<?xml version="1.0" encoding="utf-8" standalone="no"?>
<!DOCTYPE svg PUBLIC "-//W3C//DTD SVG 1.1//EN"
  "http://www.w3.org/Graphics/SVG/1.1/DTD/svg11.dtd">
<svg xmlns:xlink="http://www.w3.org/1999/xlink" width="460.8pt" height="345.6pt" viewBox="0 0 460.8 345.6" xmlns="http://www.w3.org/2000/svg" version="1.1">
 <metadata>
  <rdf:RDF xmlns:dc="http://purl.org/dc/elements/1.1/" xmlns:cc="http://creativecommons.org/ns#" xmlns:rdf="http://www.w3.org/1999/02/22-rdf-syntax-ns#">
   <cc:Work>
    <dc:type rdf:resource="http://purl.org/dc/dcmitype/StillImage"/>
    <dc:date>2025-12-03T20:53:40.877269</dc:date>
    <dc:format>image/svg+xml</dc:format>
    <dc:creator>
     <cc:Agent>
      <dc:title>Matplotlib v3.9.2, https://matplotlib.org/</dc:title>
     </cc:Agent>
    </dc:creator>
   </cc:Work>
  </rdf:RDF>
 </metadata>
 <defs>
  <style type="text/css">*{stroke-linejoin: round; stroke-linecap: butt}</style>
 </defs>
 <g id="figure_1">
  <g id="patch_1">
   <path d="M 0 345.6 
L 460.8 345.6 
L 460.8 0 
L 0 0 
z
" style="fill: #ffffff"/>
  </g>
  <g id="axes_1">
   <g id="patch_2">
    <path d="M 57.6 307.584 
L 414.72 307.584 
L 414.72 41.472 
L 57.6 41.472 
z
" style="fill: #ffffff"/>
   </g>
   <g id="PathCollection_1">
    <defs>
     <path id="mbc3686e43e" d="M 0 3.872983 
C 1.027127 3.872983 2.012324 3.464901 2.738613 2.738613 
C 3.464901 2.012324 3.872983 1.027127 3.872983 0 
C 3.872983 -1.027127 3.464901 -2.012324 2.738613 -2.738613 
C 2.012324 -3.464901 1.027127 -3.872983 0 -3.872983 
C -1.027127 -3.872983 -2.012324 -3.464901 -2.738613 -2.738613 
C -3.464901 -2.012324 -3.872983 -1.027127 -3.872983 0 
C -3.872983 1.027127 -3.464901 2.012324 -2.738613 2.738613 
C -2.012324 3.464901 -1.027127 3.872983 0 3.872983 
z
" style="stroke: #808080"/>
    </defs>
    <g clip-path="url(#pc5699ef4e7)">
     <use xlink:href="#mbc3686e43e" x="367.055023" y="252.401292" style="fill: #808080; stroke: #808080"/>
     <use xlink:href="#mbc3686e43e" x="282.593678" y="130.391315" style="fill: #808080; stroke: #808080"/>
     <use xlink:href="#mbc3686e43e" x="182.650491" y="122.110998" style="fill: #808080; stroke: #808080"/>
     <use xlink:href="#mbc3686e43e" x="240.646585" y="73.770729" style="fill: #808080; stroke: #808080"/>
     <use xlink:href="#mbc3686e43e" x="272.755358" y="120.76317" style="fill: #808080; stroke: #808080"/>
     <use xlink:href="#mbc3686e43e" x="305.594431" y="275.285271" style="fill: #808080; stroke: #808080"/>
     <use xlink:href="#mbc3686e43e" x="156.442954" y="222.117585" style="fill: #808080; stroke: #808080"/>
     <use xlink:href="#mbc3686e43e" x="105.264977" y="180.52693" style="fill: #808080; stroke: #808080"/>
     <use xlink:href="#mbc3686e43e" x="227.77889" y="110.57464" style="fill: #808080; stroke: #808080"/>
     <use xlink:href="#mbc3686e43e" x="147.869491" y="200.097656" style="fill: #808080; stroke: #808080"/>
     <use xlink:href="#mbc3686e43e" x="221.003166" y="225.212533" style="fill: #808080; stroke: #808080"/>
     <use xlink:href="#mbc3686e43e" x="312.401115" y="233.400025" style="fill: #808080; stroke: #808080"/>
    </g>
   </g>
   <g id="matplotlib.axis_1"/>
   <g id="matplotlib.axis_2"/>
   <g id="QuadContourSet_1">
    <path d="M 270.429091 141.821158 
L 274.036364 142.508118 
L 277.643636 142.832728 
L 281.250909 142.786317 
L 284.858182 142.360155 
L 288.465455 141.545489 
L 290.310128 140.928 
L 292.072727 140.214359 
L 295.68 138.267432 
L 295.720699 138.24 
L 298.8696 135.552 
L 299.287273 135.067028 
L 300.868341 132.864 
L 302.10917 130.176 
L 302.676758 127.488 
L 302.589147 124.8 
L 301.864186 122.112 
L 300.519337 119.424 
L 299.287273 117.729291 
L 298.445573 116.736 
L 295.68 114.238825 
L 295.426733 114.048 
L 292.072727 112.001728 
L 290.76025 111.36 
L 288.465455 110.417594 
L 284.858182 109.30917 
L 281.707261 108.672 
L 281.250909 108.592592 
L 277.643636 108.301118 
L 274.036364 108.34926 
L 271.085133 108.672 
L 270.429091 108.756993 
L 266.821818 109.639664 
L 263.214545 110.951011 
L 262.366423 111.36 
L 259.607273 112.99822 
L 258.193607 114.048 
L 256 116.166791 
L 255.509109 116.736 
L 253.875144 119.424 
L 252.922955 122.112 
L 252.634585 124.8 
L 252.992145 127.488 
L 253.978018 130.176 
L 255.575052 132.864 
L 256 133.3815 
L 258.07524 135.552 
L 259.607273 136.813654 
L 261.679988 138.24 
L 263.214545 139.110721 
L 266.821818 140.752858 
L 267.336731 140.928 
L 270.429091 141.821158 
z
" clip-path="url(#pc5699ef4e7)" style="fill: none; stroke: #000000"/>
   </g>
   <g id="QuadContourSet_2">
    <path d="M 144.174545 232.960198 
L 147.781818 233.911176 
L 151.389091 234.495538 
L 154.996364 234.702155 
L 158.603636 234.520132 
L 162.210909 233.938836 
L 165.818182 232.947921 
L 167.431448 232.32 
L 169.425455 231.402662 
L 172.381357 229.632 
L 173.032727 229.156994 
L 175.493843 226.944 
L 176.64 225.634268 
L 177.653684 224.256 
L 179.119977 221.568 
L 180.096372 218.88 
L 180.247273 218.10671 
L 180.569941 216.192 
L 180.653699 213.504 
L 180.391391 210.816 
L 180.247273 210.162154 
L 179.745351 208.128 
L 178.735345 205.44 
L 177.397625 202.752 
L 176.64 201.531505 
L 175.609245 200.064 
L 173.354145 197.376 
L 173.032727 197.049132 
L 170.358558 194.688 
L 169.425455 193.971506 
L 166.391362 192 
L 165.818182 191.673095 
L 162.210909 190.003057 
L 160.265512 189.312 
L 158.603636 188.791266 
L 154.996364 188.017453 
L 151.389091 187.604956 
L 147.781818 187.563921 
L 144.174545 187.90424 
L 140.567273 188.635527 
L 138.403841 189.312 
L 136.96 189.842374 
L 133.352727 191.64417 
L 132.790004 192 
L 129.745455 194.331776 
L 129.362157 194.688 
L 127.057724 197.376 
L 126.138182 198.802441 
L 125.446409 200.064 
L 124.42926 202.752 
L 123.848081 205.44 
L 123.673145 208.128 
L 123.876068 210.816 
L 124.431289 213.504 
L 125.317415 216.192 
L 126.138182 218.020757 
L 126.572212 218.88 
L 128.287064 221.568 
L 129.745455 223.471509 
L 130.432272 224.256 
L 133.194265 226.944 
L 133.352727 227.077405 
L 136.895363 229.632 
L 136.96 229.672866 
L 140.567273 231.556635 
L 142.41542 232.32 
L 144.174545 232.960198 
z
" clip-path="url(#pc5699ef4e7)" style="fill: none; stroke: #000000"/>
   </g>
   <g id="QuadContourSet_3">
    <path d="M 270.429091 141.821158 
L 274.036364 142.508118 
L 277.643636 142.832728 
L 281.250909 142.786317 
L 284.858182 142.360155 
L 288.465455 141.545489 
L 290.310128 140.928 
L 292.072727 140.214359 
L 295.68 138.267432 
L 295.720699 138.24 
L 298.8696 135.552 
L 299.287273 135.067028 
L 300.868341 132.864 
L 302.10917 130.176 
L 302.676758 127.488 
L 302.589147 124.8 
L 301.864186 122.112 
L 300.519337 119.424 
L 299.287273 117.729291 
L 298.445573 116.736 
L 295.68 114.238825 
L 295.426733 114.048 
L 292.072727 112.001728 
L 290.76025 111.36 
L 288.465455 110.417594 
L 284.858182 109.30917 
L 281.707261 108.672 
L 281.250909 108.592592 
L 277.643636 108.301118 
L 274.036364 108.34926 
L 271.085133 108.672 
L 270.429091 108.756993 
L 266.821818 109.639664 
L 263.214545 110.951011 
L 262.366423 111.36 
L 259.607273 112.99822 
L 258.193607 114.048 
L 256 116.166791 
L 255.509109 116.736 
L 253.875144 119.424 
L 252.922955 122.112 
L 252.634585 124.8 
L 252.992145 127.488 
L 253.978018 130.176 
L 255.575052 132.864 
L 256 133.3815 
L 258.07524 135.552 
L 259.607273 136.813654 
L 261.679988 138.24 
L 263.214545 139.110721 
L 266.821818 140.752858 
L 267.336731 140.928 
L 270.429091 141.821158 
z
" clip-path="url(#pc5699ef4e7)" style="fill: none; stroke: #000000"/>
   </g>
   <g id="QuadContourSet_4">
    <path d="M 183.854545 135.893452 
L 187.461818 136.122737 
L 191.069091 136.104269 
L 194.676364 135.875028 
L 197.573389 135.552 
L 198.283636 135.462056 
L 201.890909 134.847608 
L 205.498182 134.133843 
L 209.105455 133.358356 
L 211.27024 132.864 
L 212.712727 132.496747 
L 216.32 131.538995 
L 219.927273 130.56791 
L 221.31301 130.176 
L 223.534545 129.470607 
L 227.141818 128.262973 
L 229.294012 127.488 
L 230.749091 126.885356 
L 234.356364 125.241319 
L 235.223004 124.8 
L 237.963636 123.136149 
L 239.462698 122.112 
L 241.570909 120.307344 
L 242.480221 119.424 
L 244.507934 116.736 
L 245.178182 115.311195 
L 245.698336 114.048 
L 246.104747 111.36 
L 245.792982 108.672 
L 245.178182 107.094075 
L 244.665431 105.984 
L 242.529887 103.296 
L 241.570909 102.4489 
L 239.00727 100.608 
L 237.963636 100.03208 
L 234.356364 98.48623 
L 232.529443 97.92 
L 230.749091 97.471753 
L 227.141818 96.886366 
L 223.534545 96.600994 
L 219.927273 96.581432 
L 216.32 96.788578 
L 212.712727 97.180057 
L 209.105455 97.712807 
L 207.951875 97.92 
L 205.498182 98.414331 
L 201.890909 99.217218 
L 198.283636 100.057336 
L 196.01154 100.608 
L 194.676364 100.968779 
L 191.069091 101.982227 
L 187.461818 103.016315 
L 186.548655 103.296 
L 183.854545 104.227921 
L 180.247273 105.557853 
L 179.197986 105.984 
L 176.64 107.190536 
L 173.804702 108.672 
L 173.032727 109.158604 
L 169.939451 111.36 
L 169.425455 111.827069 
L 167.278932 114.048 
L 165.818182 116.170924 
L 165.476891 116.736 
L 164.557375 119.424 
L 164.354549 122.112 
L 164.893501 124.8 
L 165.818182 126.712995 
L 166.264438 127.488 
L 168.737802 130.176 
L 169.425455 130.717913 
L 172.79977 132.864 
L 173.032727 132.979984 
L 176.64 134.367209 
L 180.247273 135.350593 
L 181.425894 135.552 
L 183.854545 135.893452 
z
" clip-path="url(#pc5699ef4e7)" style="fill: none; stroke: #000000"/>
   </g>
   <g id="QuadContourSet_5">
    <path d="M 270.429091 141.821158 
L 274.036364 142.508118 
L 277.643636 142.832728 
L 281.250909 142.786317 
L 284.858182 142.360155 
L 288.465455 141.545489 
L 290.310128 140.928 
L 292.072727 140.214359 
L 295.68 138.267432 
L 295.720699 138.24 
L 298.8696 135.552 
L 299.287273 135.067028 
L 300.868341 132.864 
L 302.10917 130.176 
L 302.676758 127.488 
L 302.589147 124.8 
L 301.864186 122.112 
L 300.519337 119.424 
L 299.287273 117.729291 
L 298.445573 116.736 
L 295.68 114.238825 
L 295.426733 114.048 
L 292.072727 112.001728 
L 290.76025 111.36 
L 288.465455 110.417594 
L 284.858182 109.30917 
L 281.707261 108.672 
L 281.250909 108.592592 
L 277.643636 108.301118 
L 274.036364 108.34926 
L 271.085133 108.672 
L 270.429091 108.756993 
L 266.821818 109.639664 
L 263.214545 110.951011 
L 262.366423 111.36 
L 259.607273 112.99822 
L 258.193607 114.048 
L 256 116.166791 
L 255.509109 116.736 
L 253.875144 119.424 
L 252.922955 122.112 
L 252.634585 124.8 
L 252.992145 127.488 
L 253.978018 130.176 
L 255.575052 132.864 
L 256 133.3815 
L 258.07524 135.552 
L 259.607273 136.813654 
L 261.679988 138.24 
L 263.214545 139.110721 
L 266.821818 140.752858 
L 267.336731 140.928 
L 270.429091 141.821158 
z
" clip-path="url(#pc5699ef4e7)" style="fill: none; stroke: #000000"/>
   </g>
   <g id="QuadContourSet_6">
    <path d="M 144.174545 232.960198 
L 147.781818 233.911176 
L 151.389091 234.495538 
L 154.996364 234.702155 
L 158.603636 234.520132 
L 162.210909 233.938836 
L 165.818182 232.947921 
L 167.431448 232.32 
L 169.425455 231.402662 
L 172.381357 229.632 
L 173.032727 229.156994 
L 175.493843 226.944 
L 176.64 225.634268 
L 177.653684 224.256 
L 179.119977 221.568 
L 180.096372 218.88 
L 180.247273 218.10671 
L 180.569941 216.192 
L 180.653699 213.504 
L 180.391391 210.816 
L 180.247273 210.162154 
L 179.745351 208.128 
L 178.735345 205.44 
L 177.397625 202.752 
L 176.64 201.531505 
L 175.609245 200.064 
L 173.354145 197.376 
L 173.032727 197.049132 
L 170.358558 194.688 
L 169.425455 193.971506 
L 166.391362 192 
L 165.818182 191.673095 
L 162.210909 190.003057 
L 160.265512 189.312 
L 158.603636 188.791266 
L 154.996364 188.017453 
L 151.389091 187.604956 
L 147.781818 187.563921 
L 144.174545 187.90424 
L 140.567273 188.635527 
L 138.403841 189.312 
L 136.96 189.842374 
L 133.352727 191.64417 
L 132.790004 192 
L 129.745455 194.331776 
L 129.362157 194.688 
L 127.057724 197.376 
L 126.138182 198.802441 
L 125.446409 200.064 
L 124.42926 202.752 
L 123.848081 205.44 
L 123.673145 208.128 
L 123.876068 210.816 
L 124.431289 213.504 
L 125.317415 216.192 
L 126.138182 218.020757 
L 126.572212 218.88 
L 128.287064 221.568 
L 129.745455 223.471509 
L 130.432272 224.256 
L 133.194265 226.944 
L 133.352727 227.077405 
L 136.895363 229.632 
L 136.96 229.672866 
L 140.567273 231.556635 
L 142.41542 232.32 
L 144.174545 232.960198 
z
" clip-path="url(#pc5699ef4e7)" style="fill: none; stroke: #000000"/>
   </g>
   <g id="QuadContourSet_7">
    <path d="M 353.396364 267.74042 
L 357.003636 268.572427 
L 360.610909 269.150101 
L 364.218182 269.439578 
L 367.825455 269.416043 
L 371.432727 269.06188 
L 375.04 268.364888 
L 378.647273 267.316777 
L 378.783135 267.264 
L 382.254545 265.648323 
L 384.088244 264.576 
L 385.861818 263.282849 
L 387.4501 261.888 
L 389.469091 259.534451 
L 389.714305 259.2 
L 391.044987 256.512 
L 391.735954 253.824 
L 391.792309 251.136 
L 391.220913 248.448 
L 390.030835 245.76 
L 389.469091 244.922571 
L 388.044461 243.072 
L 385.861818 240.936361 
L 385.207264 240.384 
L 382.254545 238.370623 
L 381.101511 237.696 
L 378.647273 236.480133 
L 375.209653 235.008 
L 375.04 234.944267 
L 371.432727 233.781252 
L 367.825455 232.734406 
L 366.266813 232.32 
L 364.218182 231.818935 
L 360.610909 230.948008 
L 357.003636 229.994991 
L 355.769532 229.632 
L 353.396364 228.962305 
L 349.789091 227.748853 
L 347.78346 226.944 
L 346.181818 226.326632 
L 342.574545 224.734302 
L 341.58114 224.256 
L 338.967273 223.086428 
L 335.715671 221.568 
L 335.36 221.416474 
L 331.752727 219.967552 
L 328.804431 218.88 
L 328.145455 218.664172 
L 324.538182 217.687476 
L 320.930909 216.94394 
L 317.323636 216.474885 
L 313.716364 216.311288 
L 310.109091 216.475519 
L 306.501818 216.983261 
L 302.894545 217.845253 
L 299.842197 218.88 
L 299.287273 219.106319 
L 295.68 221.014888 
L 294.831174 221.568 
L 292.072727 223.823676 
L 291.627958 224.256 
L 289.564257 226.944 
L 288.465455 229.113366 
L 288.238653 229.632 
L 287.663604 232.32 
L 287.686505 235.008 
L 288.301585 237.696 
L 288.465455 238.062021 
L 289.654164 240.384 
L 291.683262 243.072 
L 292.072727 243.463032 
L 294.707205 245.76 
L 295.68 246.448917 
L 298.949361 248.448 
L 299.287273 248.623398 
L 302.894545 250.227922 
L 305.254065 251.136 
L 306.501818 251.56022 
L 310.109091 252.630327 
L 313.716364 253.616939 
L 314.52493 253.824 
L 317.323636 254.488862 
L 320.930909 255.382519 
L 324.538182 256.405464 
L 324.873909 256.512 
L 328.145455 257.511041 
L 331.752727 258.865711 
L 332.529096 259.2 
L 335.36 260.362725 
L 338.607232 261.888 
L 338.967273 262.046572 
L 342.574545 263.674555 
L 344.559759 264.576 
L 346.181818 265.240642 
L 349.789091 266.609167 
L 351.766225 267.264 
L 353.396364 267.74042 
z
" clip-path="url(#pc5699ef4e7)" style="fill: none; stroke: #000000"/>
   </g>
   <g id="QuadContourSet_8">
    <path d="M 183.854545 135.893452 
L 187.461818 136.122737 
L 191.069091 136.104269 
L 194.676364 135.875028 
L 197.573389 135.552 
L 198.283636 135.462056 
L 201.890909 134.847608 
L 205.498182 134.133843 
L 209.105455 133.358356 
L 211.27024 132.864 
L 212.712727 132.496747 
L 216.32 131.538995 
L 219.927273 130.56791 
L 221.31301 130.176 
L 223.534545 129.470607 
L 227.141818 128.262973 
L 229.294012 127.488 
L 230.749091 126.885356 
L 234.356364 125.241319 
L 235.223004 124.8 
L 237.963636 123.136149 
L 239.462698 122.112 
L 241.570909 120.307344 
L 242.480221 119.424 
L 244.507934 116.736 
L 245.178182 115.311195 
L 245.698336 114.048 
L 246.104747 111.36 
L 245.792982 108.672 
L 245.178182 107.094075 
L 244.665431 105.984 
L 242.529887 103.296 
L 241.570909 102.4489 
L 239.00727 100.608 
L 237.963636 100.03208 
L 234.356364 98.48623 
L 232.529443 97.92 
L 230.749091 97.471753 
L 227.141818 96.886366 
L 223.534545 96.600994 
L 219.927273 96.581432 
L 216.32 96.788578 
L 212.712727 97.180057 
L 209.105455 97.712807 
L 207.951875 97.92 
L 205.498182 98.414331 
L 201.890909 99.217218 
L 198.283636 100.057336 
L 196.01154 100.608 
L 194.676364 100.968779 
L 191.069091 101.982227 
L 187.461818 103.016315 
L 186.548655 103.296 
L 183.854545 104.227921 
L 180.247273 105.557853 
L 179.197986 105.984 
L 176.64 107.190536 
L 173.804702 108.672 
L 173.032727 109.158604 
L 169.939451 111.36 
L 169.425455 111.827069 
L 167.278932 114.048 
L 165.818182 116.170924 
L 165.476891 116.736 
L 164.557375 119.424 
L 164.354549 122.112 
L 164.893501 124.8 
L 165.818182 126.712995 
L 166.264438 127.488 
L 168.737802 130.176 
L 169.425455 130.717913 
L 172.79977 132.864 
L 173.032727 132.979984 
L 176.64 134.367209 
L 180.247273 135.350593 
L 181.425894 135.552 
L 183.854545 135.893452 
z
" clip-path="url(#pc5699ef4e7)" style="fill: none; stroke: #000000"/>
   </g>
   <g id="QuadContourSet_9">
    <path d="M 144.174545 232.960198 
L 147.781818 233.911176 
L 151.389091 234.495538 
L 154.996364 234.702155 
L 158.603636 234.520132 
L 162.210909 233.938836 
L 165.818182 232.947921 
L 167.431448 232.32 
L 169.425455 231.402662 
L 172.381357 229.632 
L 173.032727 229.156994 
L 175.493843 226.944 
L 176.64 225.634268 
L 177.653684 224.256 
L 179.119977 221.568 
L 180.096372 218.88 
L 180.247273 218.10671 
L 180.569941 216.192 
L 180.653699 213.504 
L 180.391391 210.816 
L 180.247273 210.162154 
L 179.745351 208.128 
L 178.735345 205.44 
L 177.397625 202.752 
L 176.64 201.531505 
L 175.609245 200.064 
L 173.354145 197.376 
L 173.032727 197.049132 
L 170.358558 194.688 
L 169.425455 193.971506 
L 166.391362 192 
L 165.818182 191.673095 
L 162.210909 190.003057 
L 160.265512 189.312 
L 158.603636 188.791266 
L 154.996364 188.017453 
L 151.389091 187.604956 
L 147.781818 187.563921 
L 144.174545 187.90424 
L 140.567273 188.635527 
L 138.403841 189.312 
L 136.96 189.842374 
L 133.352727 191.64417 
L 132.790004 192 
L 129.745455 194.331776 
L 129.362157 194.688 
L 127.057724 197.376 
L 126.138182 198.802441 
L 125.446409 200.064 
L 124.42926 202.752 
L 123.848081 205.44 
L 123.673145 208.128 
L 123.876068 210.816 
L 124.431289 213.504 
L 125.317415 216.192 
L 126.138182 218.020757 
L 126.572212 218.88 
L 128.287064 221.568 
L 129.745455 223.471509 
L 130.432272 224.256 
L 133.194265 226.944 
L 133.352727 227.077405 
L 136.895363 229.632 
L 136.96 229.672866 
L 140.567273 231.556635 
L 142.41542 232.32 
L 144.174545 232.960198 
z
" clip-path="url(#pc5699ef4e7)" style="fill: none; stroke: #000000"/>
   </g>
   <g id="QuadContourSet_10">
    <path d="M 270.429091 141.821158 
L 274.036364 142.508118 
L 277.643636 142.832728 
L 281.250909 142.786317 
L 284.858182 142.360155 
L 288.465455 141.545489 
L 290.310128 140.928 
L 292.072727 140.214359 
L 295.68 138.267432 
L 295.720699 138.24 
L 298.8696 135.552 
L 299.287273 135.067028 
L 300.868341 132.864 
L 302.10917 130.176 
L 302.676758 127.488 
L 302.589147 124.8 
L 301.864186 122.112 
L 300.519337 119.424 
L 299.287273 117.729291 
L 298.445573 116.736 
L 295.68 114.238825 
L 295.426733 114.048 
L 292.072727 112.001728 
L 290.76025 111.36 
L 288.465455 110.417594 
L 284.858182 109.30917 
L 281.707261 108.672 
L 281.250909 108.592592 
L 277.643636 108.301118 
L 274.036364 108.34926 
L 271.085133 108.672 
L 270.429091 108.756993 
L 266.821818 109.639664 
L 263.214545 110.951011 
L 262.366423 111.36 
L 259.607273 112.99822 
L 258.193607 114.048 
L 256 116.166791 
L 255.509109 116.736 
L 253.875144 119.424 
L 252.922955 122.112 
L 252.634585 124.8 
L 252.992145 127.488 
L 253.978018 130.176 
L 255.575052 132.864 
L 256 133.3815 
L 258.07524 135.552 
L 259.607273 136.813654 
L 261.679988 138.24 
L 263.214545 139.110721 
L 266.821818 140.752858 
L 267.336731 140.928 
L 270.429091 141.821158 
z
" clip-path="url(#pc5699ef4e7)" style="fill: none; stroke: #000000"/>
   </g>
   <g id="QuadContourSet_11">
    <path d="M 302.894545 302.369022 
L 306.501818 302.433795 
L 310.109091 302.29291 
L 310.9987 302.208 
L 313.716364 301.92269 
L 317.323636 301.325235 
L 320.930909 300.516681 
L 324.495389 299.52 
L 324.538182 299.506818 
L 328.145455 298.189335 
L 331.43635 296.832 
L 331.752727 296.689004 
L 335.36 294.9075 
L 336.831615 294.144 
L 338.967273 292.95633 
L 341.671645 291.456 
L 342.574545 290.930859 
L 346.181818 288.951187 
L 346.546241 288.768 
L 349.789091 287.133888 
L 352.290582 286.08 
L 353.396364 285.620233 
L 357.003636 284.369209 
L 360.545102 283.392 
L 360.610909 283.373869 
L 364.218182 282.48851 
L 367.825455 281.696711 
L 371.432727 280.928541 
L 372.425452 280.704 
L 375.04 280.076432 
L 378.647273 279.119646 
L 382.254545 278.042648 
L 382.332285 278.016 
L 385.861818 276.689912 
L 389.042623 275.328 
L 389.469091 275.124449 
L 393.076364 273.162322 
L 393.928275 272.64 
L 396.683636 270.718322 
L 397.66646 269.952 
L 400.290909 267.572822 
L 400.598216 267.264 
L 402.832872 264.576 
L 403.898182 262.979293 
L 404.560116 261.888 
L 405.787525 259.2 
L 406.611408 256.512 
L 407.031483 253.824 
L 407.047883 251.136 
L 406.661147 248.448 
L 405.872254 245.76 
L 404.682671 243.072 
L 403.898182 241.745015 
L 403.015256 240.384 
L 400.837485 237.696 
L 400.290909 237.133015 
L 398.014759 235.008 
L 396.683636 233.938647 
L 394.448614 232.32 
L 393.076364 231.445121 
L 389.912339 229.632 
L 389.469091 229.404179 
L 385.861818 227.742535 
L 383.935305 226.944 
L 382.254545 226.306247 
L 378.647273 225.061517 
L 376.133207 224.256 
L 375.04 223.927979 
L 371.432727 222.898871 
L 367.825455 221.859766 
L 366.836029 221.568 
L 364.218182 220.822049 
L 360.610909 219.701847 
L 358.232013 218.88 
L 357.003636 218.464832 
L 353.396364 217.127176 
L 351.107703 216.192 
L 349.789091 215.669931 
L 346.181818 214.169986 
L 344.616059 213.504 
L 342.574545 212.682447 
L 338.967273 211.259824 
L 337.770956 210.816 
L 335.36 209.986846 
L 331.752727 208.866943 
L 329.000642 208.128 
L 328.145455 207.917152 
L 324.538182 207.197692 
L 320.930909 206.659293 
L 317.323636 206.31456 
L 313.716364 206.172526 
L 310.109091 206.239553 
L 306.501818 206.520064 
L 302.894545 207.017106 
L 299.287273 207.732753 
L 297.762901 208.128 
L 295.68 208.727652 
L 292.072727 210.011247 
L 290.174566 210.816 
L 288.465455 211.629635 
L 285.073735 213.504 
L 284.858182 213.639602 
L 281.294231 216.192 
L 281.250909 216.227916 
L 278.398183 218.88 
L 277.643636 219.709029 
L 276.116499 221.568 
L 274.29586 224.256 
L 274.036364 224.737138 
L 272.950771 226.944 
L 271.942744 229.632 
L 271.218701 232.32 
L 270.739229 235.008 
L 270.453901 237.696 
L 270.429091 238.134153 
L 270.311318 240.384 
L 270.225814 243.072 
L 270.123911 245.76 
L 269.937084 248.448 
L 269.611111 251.136 
L 269.118239 253.824 
L 268.465545 256.512 
L 267.695352 259.2 
L 266.876979 261.888 
L 266.821818 262.078879 
L 266.155522 264.576 
L 265.548082 267.264 
L 265.117646 269.952 
L 264.919909 272.64 
L 264.998191 275.328 
L 265.384857 278.016 
L 266.103426 280.704 
L 266.821818 282.513975 
L 267.204488 283.392 
L 268.770901 286.08 
L 270.429091 288.341252 
L 270.775918 288.768 
L 273.415115 291.456 
L 274.036364 291.994863 
L 276.814407 294.144 
L 277.643636 294.702109 
L 281.244289 296.832 
L 281.250909 296.835464 
L 284.858182 298.46318 
L 287.644902 299.52 
L 288.465455 299.798861 
L 292.072727 300.792721 
L 295.68 301.554664 
L 299.287273 302.085319 
L 300.760147 302.208 
L 302.894545 302.369022 
z
" clip-path="url(#pc5699ef4e7)" style="fill: none; stroke: #000000"/>
   </g>
   <g id="QuadContourSet_12">
    <path d="M 183.854545 135.893452 
L 187.461818 136.122737 
L 191.069091 136.104269 
L 194.676364 135.875028 
L 197.573389 135.552 
L 198.283636 135.462056 
L 201.890909 134.847608 
L 205.498182 134.133843 
L 209.105455 133.358356 
L 211.27024 132.864 
L 212.712727 132.496747 
L 216.32 131.538995 
L 219.927273 130.56791 
L 221.31301 130.176 
L 223.534545 129.470607 
L 227.141818 128.262973 
L 229.294012 127.488 
L 230.749091 126.885356 
L 234.356364 125.241319 
L 235.223004 124.8 
L 237.963636 123.136149 
L 239.462698 122.112 
L 241.570909 120.307344 
L 242.480221 119.424 
L 244.507934 116.736 
L 245.178182 115.311195 
L 245.698336 114.048 
L 246.104747 111.36 
L 245.792982 108.672 
L 245.178182 107.094075 
L 244.665431 105.984 
L 242.529887 103.296 
L 241.570909 102.4489 
L 239.00727 100.608 
L 237.963636 100.03208 
L 234.356364 98.48623 
L 232.529443 97.92 
L 230.749091 97.471753 
L 227.141818 96.886366 
L 223.534545 96.600994 
L 219.927273 96.581432 
L 216.32 96.788578 
L 212.712727 97.180057 
L 209.105455 97.712807 
L 207.951875 97.92 
L 205.498182 98.414331 
L 201.890909 99.217218 
L 198.283636 100.057336 
L 196.01154 100.608 
L 194.676364 100.968779 
L 191.069091 101.982227 
L 187.461818 103.016315 
L 186.548655 103.296 
L 183.854545 104.227921 
L 180.247273 105.557853 
L 179.197986 105.984 
L 176.64 107.190536 
L 173.804702 108.672 
L 173.032727 109.158604 
L 169.939451 111.36 
L 169.425455 111.827069 
L 167.278932 114.048 
L 165.818182 116.170924 
L 165.476891 116.736 
L 164.557375 119.424 
L 164.354549 122.112 
L 164.893501 124.8 
L 165.818182 126.712995 
L 166.264438 127.488 
L 168.737802 130.176 
L 169.425455 130.717913 
L 172.79977 132.864 
L 173.032727 132.979984 
L 176.64 134.367209 
L 180.247273 135.350593 
L 181.425894 135.552 
L 183.854545 135.893452 
z
" clip-path="url(#pc5699ef4e7)" style="fill: none; stroke: #000000"/>
   </g>
   <g id="QuadContourSet_13">
    <path d="M 144.174545 232.960198 
L 147.781818 233.911176 
L 151.389091 234.495538 
L 154.996364 234.702155 
L 158.603636 234.520132 
L 162.210909 233.938836 
L 165.818182 232.947921 
L 167.431448 232.32 
L 169.425455 231.402662 
L 172.381357 229.632 
L 173.032727 229.156994 
L 175.493843 226.944 
L 176.64 225.634268 
L 177.653684 224.256 
L 179.119977 221.568 
L 180.096372 218.88 
L 180.247273 218.10671 
L 180.569941 216.192 
L 180.653699 213.504 
L 180.391391 210.816 
L 180.247273 210.162154 
L 179.745351 208.128 
L 178.735345 205.44 
L 177.397625 202.752 
L 176.64 201.531505 
L 175.609245 200.064 
L 173.354145 197.376 
L 173.032727 197.049132 
L 170.358558 194.688 
L 169.425455 193.971506 
L 166.391362 192 
L 165.818182 191.673095 
L 162.210909 190.003057 
L 160.265512 189.312 
L 158.603636 188.791266 
L 154.996364 188.017453 
L 151.389091 187.604956 
L 147.781818 187.563921 
L 144.174545 187.90424 
L 140.567273 188.635527 
L 138.403841 189.312 
L 136.96 189.842374 
L 133.352727 191.64417 
L 132.790004 192 
L 129.745455 194.331776 
L 129.362157 194.688 
L 127.057724 197.376 
L 126.138182 198.802441 
L 125.446409 200.064 
L 124.42926 202.752 
L 123.848081 205.44 
L 123.673145 208.128 
L 123.876068 210.816 
L 124.431289 213.504 
L 125.317415 216.192 
L 126.138182 218.020757 
L 126.572212 218.88 
L 128.287064 221.568 
L 129.745455 223.471509 
L 130.432272 224.256 
L 133.194265 226.944 
L 133.352727 227.077405 
L 136.895363 229.632 
L 136.96 229.672866 
L 140.567273 231.556635 
L 142.41542 232.32 
L 144.174545 232.960198 
z
" clip-path="url(#pc5699ef4e7)" style="fill: none; stroke: #000000"/>
   </g>
   <g id="QuadContourSet_14">
    <path d="M 270.429091 141.821158 
L 274.036364 142.508118 
L 277.643636 142.832728 
L 281.250909 142.786317 
L 284.858182 142.360155 
L 288.465455 141.545489 
L 290.310128 140.928 
L 292.072727 140.214359 
L 295.68 138.267432 
L 295.720699 138.24 
L 298.8696 135.552 
L 299.287273 135.067028 
L 300.868341 132.864 
L 302.10917 130.176 
L 302.676758 127.488 
L 302.589147 124.8 
L 301.864186 122.112 
L 300.519337 119.424 
L 299.287273 117.729291 
L 298.445573 116.736 
L 295.68 114.238825 
L 295.426733 114.048 
L 292.072727 112.001728 
L 290.76025 111.36 
L 288.465455 110.417594 
L 284.858182 109.30917 
L 281.707261 108.672 
L 281.250909 108.592592 
L 277.643636 108.301118 
L 274.036364 108.34926 
L 271.085133 108.672 
L 270.429091 108.756993 
L 266.821818 109.639664 
L 263.214545 110.951011 
L 262.366423 111.36 
L 259.607273 112.99822 
L 258.193607 114.048 
L 256 116.166791 
L 255.509109 116.736 
L 253.875144 119.424 
L 252.922955 122.112 
L 252.634585 124.8 
L 252.992145 127.488 
L 253.978018 130.176 
L 255.575052 132.864 
L 256 133.3815 
L 258.07524 135.552 
L 259.607273 136.813654 
L 261.679988 138.24 
L 263.214545 139.110721 
L 266.821818 140.752858 
L 267.336731 140.928 
L 270.429091 141.821158 
z
" clip-path="url(#pc5699ef4e7)" style="fill: none; stroke: #000000"/>
   </g>
   <g id="QuadContourSet_15">
    <path d="M 147.781818 240.554323 
L 151.389091 240.994348 
L 154.996364 241.168588 
L 158.603636 241.072926 
L 162.210909 240.703617 
L 163.998153 240.384 
L 165.818182 240.01781 
L 169.425455 238.977705 
L 172.824535 237.696 
L 173.032727 237.606331 
L 176.64 235.687776 
L 177.711325 235.008 
L 180.247273 233.133342 
L 181.1936 232.32 
L 183.813527 229.632 
L 183.854545 229.58035 
L 185.690834 226.944 
L 187.141988 224.256 
L 187.461818 223.44278 
L 188.118269 221.568 
L 188.72362 218.88 
L 189.010781 216.192 
L 188.999958 213.504 
L 188.710729 210.816 
L 188.161133 208.128 
L 187.461818 205.764901 
L 187.357052 205.44 
L 186.227062 202.752 
L 184.855612 200.064 
L 183.854545 198.396642 
L 183.185399 197.376 
L 181.159177 194.688 
L 180.247273 193.617784 
L 178.737874 192 
L 176.64 189.97917 
L 175.879141 189.312 
L 173.032727 187.045714 
L 172.450827 186.624 
L 169.425455 184.611522 
L 168.315919 183.936 
L 165.818182 182.523528 
L 163.387319 181.248 
L 162.210909 180.667203 
L 158.603636 178.993805 
L 157.618389 178.56 
L 154.996364 177.452225 
L 151.389091 175.934717 
L 151.236336 175.872 
L 147.781818 174.489094 
L 144.658965 173.184 
L 144.174545 172.98598 
L 140.567273 171.503504 
L 138.205684 170.496 
L 136.96 169.982054 
L 133.352727 168.500842 
L 131.634147 167.808 
L 129.745455 167.090958 
L 126.138182 165.805753 
L 124.006655 165.12 
L 122.530909 164.684582 
L 118.923636 163.795069 
L 115.316364 163.102946 
L 111.709091 162.643916 
L 108.101818 162.448011 
L 104.494545 162.539487 
L 100.887273 162.937263 
L 97.28 163.655651 
L 93.672727 164.705194 
L 92.590753 165.12 
L 90.065455 166.269063 
L 87.35396 167.808 
L 86.458182 168.43317 
L 83.991895 170.496 
L 82.850909 171.734656 
L 81.705649 173.184 
L 80.208038 175.872 
L 79.331817 178.56 
L 79.243636 179.436255 
L 79.083673 181.248 
L 79.243636 182.762134 
L 79.382295 183.936 
L 80.264643 186.624 
L 81.676772 189.312 
L 82.850909 190.962907 
L 83.663649 192 
L 86.252323 194.688 
L 86.458182 194.870136 
L 89.49178 197.376 
L 90.065455 197.803184 
L 93.221072 200.064 
L 93.672727 200.368846 
L 97.198921 202.752 
L 97.28 202.805913 
L 100.887273 205.292813 
L 101.0887 205.44 
L 104.494545 208.042103 
L 104.598583 208.128 
L 107.665659 210.816 
L 108.101818 211.230398 
L 110.356819 213.504 
L 111.709091 214.987353 
L 112.7731 216.192 
L 115.029236 218.88 
L 115.316364 219.225349 
L 117.29412 221.568 
L 118.923636 223.492759 
L 119.598868 224.256 
L 122.096395 226.944 
L 122.530909 227.381815 
L 124.943266 229.632 
L 126.138182 230.661444 
L 128.263602 232.32 
L 129.745455 233.374658 
L 132.337057 235.008 
L 133.352727 235.588717 
L 136.96 237.364675 
L 137.768097 237.696 
L 140.567273 238.733026 
L 144.174545 239.794029 
L 146.909013 240.384 
L 147.781818 240.554323 
z
" clip-path="url(#pc5699ef4e7)" style="fill: none; stroke: #000000"/>
   </g>
   <g id="QuadContourSet_16">
    <path d="M 183.854545 135.893452 
L 187.461818 136.122737 
L 191.069091 136.104269 
L 194.676364 135.875028 
L 197.573389 135.552 
L 198.283636 135.462056 
L 201.890909 134.847608 
L 205.498182 134.133843 
L 209.105455 133.358356 
L 211.27024 132.864 
L 212.712727 132.496747 
L 216.32 131.538995 
L 219.927273 130.56791 
L 221.31301 130.176 
L 223.534545 129.470607 
L 227.141818 128.262973 
L 229.294012 127.488 
L 230.749091 126.885356 
L 234.356364 125.241319 
L 235.223004 124.8 
L 237.963636 123.136149 
L 239.462698 122.112 
L 241.570909 120.307344 
L 242.480221 119.424 
L 244.507934 116.736 
L 245.178182 115.311195 
L 245.698336 114.048 
L 246.104747 111.36 
L 245.792982 108.672 
L 245.178182 107.094075 
L 244.665431 105.984 
L 242.529887 103.296 
L 241.570909 102.4489 
L 239.00727 100.608 
L 237.963636 100.03208 
L 234.356364 98.48623 
L 232.529443 97.92 
L 230.749091 97.471753 
L 227.141818 96.886366 
L 223.534545 96.600994 
L 219.927273 96.581432 
L 216.32 96.788578 
L 212.712727 97.180057 
L 209.105455 97.712807 
L 207.951875 97.92 
L 205.498182 98.414331 
L 201.890909 99.217218 
L 198.283636 100.057336 
L 196.01154 100.608 
L 194.676364 100.968779 
L 191.069091 101.982227 
L 187.461818 103.016315 
L 186.548655 103.296 
L 183.854545 104.227921 
L 180.247273 105.557853 
L 179.197986 105.984 
L 176.64 107.190536 
L 173.804702 108.672 
L 173.032727 109.158604 
L 169.939451 111.36 
L 169.425455 111.827069 
L 167.278932 114.048 
L 165.818182 116.170924 
L 165.476891 116.736 
L 164.557375 119.424 
L 164.354549 122.112 
L 164.893501 124.8 
L 165.818182 126.712995 
L 166.264438 127.488 
L 168.737802 130.176 
L 169.425455 130.717913 
L 172.79977 132.864 
L 173.032727 132.979984 
L 176.64 134.367209 
L 180.247273 135.350593 
L 181.425894 135.552 
L 183.854545 135.893452 
z
" clip-path="url(#pc5699ef4e7)" style="fill: none; stroke: #000000"/>
   </g>
   <g id="QuadContourSet_17">
    <path d="M 302.894545 302.369022 
L 306.501818 302.433795 
L 310.109091 302.29291 
L 310.9987 302.208 
L 313.716364 301.92269 
L 317.323636 301.325235 
L 320.930909 300.516681 
L 324.495389 299.52 
L 324.538182 299.506818 
L 328.145455 298.189335 
L 331.43635 296.832 
L 331.752727 296.689004 
L 335.36 294.9075 
L 336.831615 294.144 
L 338.967273 292.95633 
L 341.671645 291.456 
L 342.574545 290.930859 
L 346.181818 288.951187 
L 346.546241 288.768 
L 349.789091 287.133888 
L 352.290582 286.08 
L 353.396364 285.620233 
L 357.003636 284.369209 
L 360.545102 283.392 
L 360.610909 283.373869 
L 364.218182 282.48851 
L 367.825455 281.696711 
L 371.432727 280.928541 
L 372.425452 280.704 
L 375.04 280.076432 
L 378.647273 279.119646 
L 382.254545 278.042648 
L 382.332285 278.016 
L 385.861818 276.689912 
L 389.042623 275.328 
L 389.469091 275.124449 
L 393.076364 273.162322 
L 393.928275 272.64 
L 396.683636 270.718322 
L 397.66646 269.952 
L 400.290909 267.572822 
L 400.598216 267.264 
L 402.832872 264.576 
L 403.898182 262.979293 
L 404.560116 261.888 
L 405.787525 259.2 
L 406.611408 256.512 
L 407.031483 253.824 
L 407.047883 251.136 
L 406.661147 248.448 
L 405.872254 245.76 
L 404.682671 243.072 
L 403.898182 241.745015 
L 403.015256 240.384 
L 400.837485 237.696 
L 400.290909 237.133015 
L 398.014759 235.008 
L 396.683636 233.938647 
L 394.448614 232.32 
L 393.076364 231.445121 
L 389.912339 229.632 
L 389.469091 229.404179 
L 385.861818 227.742535 
L 383.935305 226.944 
L 382.254545 226.306247 
L 378.647273 225.061517 
L 376.133207 224.256 
L 375.04 223.927979 
L 371.432727 222.898871 
L 367.825455 221.859766 
L 366.836029 221.568 
L 364.218182 220.822049 
L 360.610909 219.701847 
L 358.232013 218.88 
L 357.003636 218.464832 
L 353.396364 217.127176 
L 351.107703 216.192 
L 349.789091 215.669931 
L 346.181818 214.169986 
L 344.616059 213.504 
L 342.574545 212.682447 
L 338.967273 211.259824 
L 337.770956 210.816 
L 335.36 209.986846 
L 331.752727 208.866943 
L 329.000642 208.128 
L 328.145455 207.917152 
L 324.538182 207.197692 
L 320.930909 206.659293 
L 317.323636 206.31456 
L 313.716364 206.172526 
L 310.109091 206.239553 
L 306.501818 206.520064 
L 302.894545 207.017106 
L 299.287273 207.732753 
L 297.762901 208.128 
L 295.68 208.727652 
L 292.072727 210.011247 
L 290.174566 210.816 
L 288.465455 211.629635 
L 285.073735 213.504 
L 284.858182 213.639602 
L 281.294231 216.192 
L 281.250909 216.227916 
L 278.398183 218.88 
L 277.643636 219.709029 
L 276.116499 221.568 
L 274.29586 224.256 
L 274.036364 224.737138 
L 272.950771 226.944 
L 271.942744 229.632 
L 271.218701 232.32 
L 270.739229 235.008 
L 270.453901 237.696 
L 270.429091 238.134153 
L 270.311318 240.384 
L 270.225814 243.072 
L 270.123911 245.76 
L 269.937084 248.448 
L 269.611111 251.136 
L 269.118239 253.824 
L 268.465545 256.512 
L 267.695352 259.2 
L 266.876979 261.888 
L 266.821818 262.078879 
L 266.155522 264.576 
L 265.548082 267.264 
L 265.117646 269.952 
L 264.919909 272.64 
L 264.998191 275.328 
L 265.384857 278.016 
L 266.103426 280.704 
L 266.821818 282.513975 
L 267.204488 283.392 
L 268.770901 286.08 
L 270.429091 288.341252 
L 270.775918 288.768 
L 273.415115 291.456 
L 274.036364 291.994863 
L 276.814407 294.144 
L 277.643636 294.702109 
L 281.244289 296.832 
L 281.250909 296.835464 
L 284.858182 298.46318 
L 287.644902 299.52 
L 288.465455 299.798861 
L 292.072727 300.792721 
L 295.68 301.554664 
L 299.287273 302.085319 
L 300.760147 302.208 
L 302.894545 302.369022 
z
" clip-path="url(#pc5699ef4e7)" style="fill: none; stroke: #000000"/>
   </g>
   <g id="QuadContourSet_18">
    <path d="M 270.429091 141.821158 
L 274.036364 142.508118 
L 277.643636 142.832728 
L 281.250909 142.786317 
L 284.858182 142.360155 
L 288.465455 141.545489 
L 290.310128 140.928 
L 292.072727 140.214359 
L 295.68 138.267432 
L 295.720699 138.24 
L 298.8696 135.552 
L 299.287273 135.067028 
L 300.868341 132.864 
L 302.10917 130.176 
L 302.676758 127.488 
L 302.589147 124.8 
L 301.864186 122.112 
L 300.519337 119.424 
L 299.287273 117.729291 
L 298.445573 116.736 
L 295.68 114.238825 
L 295.426733 114.048 
L 292.072727 112.001728 
L 290.76025 111.36 
L 288.465455 110.417594 
L 284.858182 109.30917 
L 281.707261 108.672 
L 281.250909 108.592592 
L 277.643636 108.301118 
L 274.036364 108.34926 
L 271.085133 108.672 
L 270.429091 108.756993 
L 266.821818 109.639664 
L 263.214545 110.951011 
L 262.366423 111.36 
L 259.607273 112.99822 
L 258.193607 114.048 
L 256 116.166791 
L 255.509109 116.736 
L 253.875144 119.424 
L 252.922955 122.112 
L 252.634585 124.8 
L 252.992145 127.488 
L 253.978018 130.176 
L 255.575052 132.864 
L 256 133.3815 
L 258.07524 135.552 
L 259.607273 136.813654 
L 261.679988 138.24 
L 263.214545 139.110721 
L 266.821818 140.752858 
L 267.336731 140.928 
L 270.429091 141.821158 
z
" clip-path="url(#pc5699ef4e7)" style="fill: none; stroke: #000000"/>
   </g>
   <g id="QuadContourSet_19">
    <path d="M 180.247273 136.193349 
L 183.854545 136.692083 
L 187.461818 136.908843 
L 191.069091 136.876222 
L 194.676364 136.631401 
L 198.283636 136.214593 
L 201.890909 135.666581 
L 202.518891 135.552 
L 205.498182 134.946852 
L 209.105455 134.149234 
L 212.712727 133.318938 
L 214.611346 132.864 
L 216.32 132.412047 
L 219.927273 131.427407 
L 223.534545 130.424505 
L 224.372616 130.176 
L 227.141818 129.262835 
L 230.749091 127.999688 
L 232.083232 127.488 
L 234.356364 126.501254 
L 237.922006 124.8 
L 237.963636 124.777067 
L 241.570909 122.540948 
L 242.188972 122.112 
L 245.178182 119.667654 
L 245.443806 119.424 
L 247.862582 116.736 
L 248.785455 115.473783 
L 249.716464 114.048 
L 251.109566 111.36 
L 252.219551 108.672 
L 252.392727 108.141524 
L 253.028446 105.984 
L 253.707433 103.296 
L 254.365502 100.608 
L 255.089009 97.92 
L 255.950661 95.232 
L 256 95.097725 
L 256.846945 92.544 
L 257.865758 89.856 
L 258.953849 87.168 
L 259.607273 85.476012 
L 259.947883 84.48 
L 260.694164 81.792 
L 261.167753 79.104 
L 261.258937 76.416 
L 260.873762 73.728 
L 259.93693 71.04 
L 259.607273 70.463377 
L 258.144542 68.352 
L 256 66.173163 
L 255.365398 65.664 
L 252.392727 63.835872 
L 250.490997 62.976 
L 248.785455 62.353468 
L 245.178182 61.503684 
L 241.570909 61.118172 
L 237.963636 61.190819 
L 234.356364 61.714553 
L 230.749091 62.681146 
L 229.992967 62.976 
L 227.141818 64.308712 
L 224.910268 65.664 
L 223.534545 66.680151 
L 221.680681 68.352 
L 219.927273 70.279898 
L 219.335812 71.04 
L 217.61121 73.728 
L 216.32 76.049384 
L 216.137498 76.416 
L 214.914088 79.104 
L 213.606837 81.792 
L 212.712727 83.365331 
L 212.104678 84.48 
L 210.252836 87.168 
L 209.105455 88.450657 
L 207.819599 89.856 
L 205.498182 91.848649 
L 204.634167 92.544 
L 201.890909 94.403688 
L 200.542287 95.232 
L 198.283636 96.483621 
L 195.364755 97.92 
L 194.676364 98.245142 
L 191.069091 99.834337 
L 189.155831 100.608 
L 187.461818 101.312357 
L 183.854545 102.76083 
L 182.525009 103.296 
L 180.247273 104.293972 
L 176.64 105.925632 
L 176.521067 105.984 
L 173.032727 107.941587 
L 171.845317 108.672 
L 169.425455 110.452471 
L 168.322821 111.36 
L 165.818182 113.978825 
L 165.759503 114.048 
L 164.154769 116.736 
L 163.230968 119.424 
L 163.020188 122.112 
L 163.549604 124.8 
L 164.842286 127.488 
L 165.818182 128.757518 
L 167.12124 130.176 
L 169.425455 131.991527 
L 170.797445 132.864 
L 173.032727 133.976963 
L 176.64 135.351625 
L 177.377032 135.552 
L 180.247273 136.193349 
z
" clip-path="url(#pc5699ef4e7)" style="fill: none; stroke: #000000"/>
   </g>
   <g id="QuadContourSet_20">
    <path d="M 147.781818 240.554323 
L 151.389091 240.994348 
L 154.996364 241.168588 
L 158.603636 241.072926 
L 162.210909 240.703617 
L 163.998153 240.384 
L 165.818182 240.01781 
L 169.425455 238.977705 
L 172.824535 237.696 
L 173.032727 237.606331 
L 176.64 235.687776 
L 177.711325 235.008 
L 180.247273 233.133342 
L 181.1936 232.32 
L 183.813527 229.632 
L 183.854545 229.58035 
L 185.690834 226.944 
L 187.141988 224.256 
L 187.461818 223.44278 
L 188.118269 221.568 
L 188.72362 218.88 
L 189.010781 216.192 
L 188.999958 213.504 
L 188.710729 210.816 
L 188.161133 208.128 
L 187.461818 205.764901 
L 187.357052 205.44 
L 186.227062 202.752 
L 184.855612 200.064 
L 183.854545 198.396642 
L 183.185399 197.376 
L 181.159177 194.688 
L 180.247273 193.617784 
L 178.737874 192 
L 176.64 189.97917 
L 175.879141 189.312 
L 173.032727 187.045714 
L 172.450827 186.624 
L 169.425455 184.611522 
L 168.315919 183.936 
L 165.818182 182.523528 
L 163.387319 181.248 
L 162.210909 180.667203 
L 158.603636 178.993805 
L 157.618389 178.56 
L 154.996364 177.452225 
L 151.389091 175.934717 
L 151.236336 175.872 
L 147.781818 174.489094 
L 144.658965 173.184 
L 144.174545 172.98598 
L 140.567273 171.503504 
L 138.205684 170.496 
L 136.96 169.982054 
L 133.352727 168.500842 
L 131.634147 167.808 
L 129.745455 167.090958 
L 126.138182 165.805753 
L 124.006655 165.12 
L 122.530909 164.684582 
L 118.923636 163.795069 
L 115.316364 163.102946 
L 111.709091 162.643916 
L 108.101818 162.448011 
L 104.494545 162.539487 
L 100.887273 162.937263 
L 97.28 163.655651 
L 93.672727 164.705194 
L 92.590753 165.12 
L 90.065455 166.269063 
L 87.35396 167.808 
L 86.458182 168.43317 
L 83.991895 170.496 
L 82.850909 171.734656 
L 81.705649 173.184 
L 80.208038 175.872 
L 79.331817 178.56 
L 79.243636 179.436255 
L 79.083673 181.248 
L 79.243636 182.762134 
L 79.382295 183.936 
L 80.264643 186.624 
L 81.676772 189.312 
L 82.850909 190.962907 
L 83.663649 192 
L 86.252323 194.688 
L 86.458182 194.870136 
L 89.49178 197.376 
L 90.065455 197.803184 
L 93.221072 200.064 
L 93.672727 200.368846 
L 97.198921 202.752 
L 97.28 202.805913 
L 100.887273 205.292813 
L 101.0887 205.44 
L 104.494545 208.042103 
L 104.598583 208.128 
L 107.665659 210.816 
L 108.101818 211.230398 
L 110.356819 213.504 
L 111.709091 214.987353 
L 112.7731 216.192 
L 115.029236 218.88 
L 115.316364 219.225349 
L 117.29412 221.568 
L 118.923636 223.492759 
L 119.598868 224.256 
L 122.096395 226.944 
L 122.530909 227.381815 
L 124.943266 229.632 
L 126.138182 230.661444 
L 128.263602 232.32 
L 129.745455 233.374658 
L 132.337057 235.008 
L 133.352727 235.588717 
L 136.96 237.364675 
L 137.768097 237.696 
L 140.567273 238.733026 
L 144.174545 239.794029 
L 146.909013 240.384 
L 147.781818 240.554323 
z
" clip-path="url(#pc5699ef4e7)" style="fill: none; stroke: #000000"/>
   </g>
   <g id="QuadContourSet_21">
    <path d="M 302.894545 302.369022 
L 306.501818 302.433795 
L 310.109091 302.29291 
L 310.9987 302.208 
L 313.716364 301.92269 
L 317.323636 301.325235 
L 320.930909 300.516681 
L 324.495389 299.52 
L 324.538182 299.506818 
L 328.145455 298.189335 
L 331.43635 296.832 
L 331.752727 296.689004 
L 335.36 294.9075 
L 336.831615 294.144 
L 338.967273 292.95633 
L 341.671645 291.456 
L 342.574545 290.930859 
L 346.181818 288.951187 
L 346.546241 288.768 
L 349.789091 287.133888 
L 352.290582 286.08 
L 353.396364 285.620233 
L 357.003636 284.369209 
L 360.545102 283.392 
L 360.610909 283.373869 
L 364.218182 282.48851 
L 367.825455 281.696711 
L 371.432727 280.928541 
L 372.425452 280.704 
L 375.04 280.076432 
L 378.647273 279.119646 
L 382.254545 278.042648 
L 382.332285 278.016 
L 385.861818 276.689912 
L 389.042623 275.328 
L 389.469091 275.124449 
L 393.076364 273.162322 
L 393.928275 272.64 
L 396.683636 270.718322 
L 397.66646 269.952 
L 400.290909 267.572822 
L 400.598216 267.264 
L 402.832872 264.576 
L 403.898182 262.979293 
L 404.560116 261.888 
L 405.787525 259.2 
L 406.611408 256.512 
L 407.031483 253.824 
L 407.047883 251.136 
L 406.661147 248.448 
L 405.872254 245.76 
L 404.682671 243.072 
L 403.898182 241.745015 
L 403.015256 240.384 
L 400.837485 237.696 
L 400.290909 237.133015 
L 398.014759 235.008 
L 396.683636 233.938647 
L 394.448614 232.32 
L 393.076364 231.445121 
L 389.912339 229.632 
L 389.469091 229.404179 
L 385.861818 227.742535 
L 383.935305 226.944 
L 382.254545 226.306247 
L 378.647273 225.061517 
L 376.133207 224.256 
L 375.04 223.927979 
L 371.432727 222.898871 
L 367.825455 221.859766 
L 366.836029 221.568 
L 364.218182 220.822049 
L 360.610909 219.701847 
L 358.232013 218.88 
L 357.003636 218.464832 
L 353.396364 217.127176 
L 351.107703 216.192 
L 349.789091 215.669931 
L 346.181818 214.169986 
L 344.616059 213.504 
L 342.574545 212.682447 
L 338.967273 211.259824 
L 337.770956 210.816 
L 335.36 209.986846 
L 331.752727 208.866943 
L 329.000642 208.128 
L 328.145455 207.917152 
L 324.538182 207.197692 
L 320.930909 206.659293 
L 317.323636 206.31456 
L 313.716364 206.172526 
L 310.109091 206.239553 
L 306.501818 206.520064 
L 302.894545 207.017106 
L 299.287273 207.732753 
L 297.762901 208.128 
L 295.68 208.727652 
L 292.072727 210.011247 
L 290.174566 210.816 
L 288.465455 211.629635 
L 285.073735 213.504 
L 284.858182 213.639602 
L 281.294231 216.192 
L 281.250909 216.227916 
L 278.398183 218.88 
L 277.643636 219.709029 
L 276.116499 221.568 
L 274.29586 224.256 
L 274.036364 224.737138 
L 272.950771 226.944 
L 271.942744 229.632 
L 271.218701 232.32 
L 270.739229 235.008 
L 270.453901 237.696 
L 270.429091 238.134153 
L 270.311318 240.384 
L 270.225814 243.072 
L 270.123911 245.76 
L 269.937084 248.448 
L 269.611111 251.136 
L 269.118239 253.824 
L 268.465545 256.512 
L 267.695352 259.2 
L 266.876979 261.888 
L 266.821818 262.078879 
L 266.155522 264.576 
L 265.548082 267.264 
L 265.117646 269.952 
L 264.919909 272.64 
L 264.998191 275.328 
L 265.384857 278.016 
L 266.103426 280.704 
L 266.821818 282.513975 
L 267.204488 283.392 
L 268.770901 286.08 
L 270.429091 288.341252 
L 270.775918 288.768 
L 273.415115 291.456 
L 274.036364 291.994863 
L 276.814407 294.144 
L 277.643636 294.702109 
L 281.244289 296.832 
L 281.250909 296.835464 
L 284.858182 298.46318 
L 287.644902 299.52 
L 288.465455 299.798861 
L 292.072727 300.792721 
L 295.68 301.554664 
L 299.287273 302.085319 
L 300.760147 302.208 
L 302.894545 302.369022 
z
" clip-path="url(#pc5699ef4e7)" style="fill: none; stroke: #000000"/>
   </g>
   <g id="QuadContourSet_22">
    <path d="M 270.429091 141.821158 
L 274.036364 142.508118 
L 277.643636 142.832728 
L 281.250909 142.786317 
L 284.858182 142.360155 
L 288.465455 141.545489 
L 290.310128 140.928 
L 292.072727 140.214359 
L 295.68 138.267432 
L 295.720699 138.24 
L 298.8696 135.552 
L 299.287273 135.067028 
L 300.868341 132.864 
L 302.10917 130.176 
L 302.676758 127.488 
L 302.589147 124.8 
L 301.864186 122.112 
L 300.519337 119.424 
L 299.287273 117.729291 
L 298.445573 116.736 
L 295.68 114.238825 
L 295.426733 114.048 
L 292.072727 112.001728 
L 290.76025 111.36 
L 288.465455 110.417594 
L 284.858182 109.30917 
L 281.707261 108.672 
L 281.250909 108.592592 
L 277.643636 108.301118 
L 274.036364 108.34926 
L 271.085133 108.672 
L 270.429091 108.756993 
L 266.821818 109.639664 
L 263.214545 110.951011 
L 262.366423 111.36 
L 259.607273 112.99822 
L 258.193607 114.048 
L 256 116.166791 
L 255.509109 116.736 
L 253.875144 119.424 
L 252.922955 122.112 
L 252.634585 124.8 
L 252.992145 127.488 
L 253.978018 130.176 
L 255.575052 132.864 
L 256 133.3815 
L 258.07524 135.552 
L 259.607273 136.813654 
L 261.679988 138.24 
L 263.214545 139.110721 
L 266.821818 140.752858 
L 267.336731 140.928 
L 270.429091 141.821158 
z
" clip-path="url(#pc5699ef4e7)" style="fill: none; stroke: #000000"/>
   </g>
   <g id="QuadContourSet_23">
    <path d="M 223.440964 41.472 
L 219.927273 42.45103 
L 214.986621 44.16 
L 212.712727 45.114559 
L 209.083276 46.848 
L 204.602815 49.536 
L 200.952035 52.224 
L 197.912673 54.912 
L 194.676364 58.434621 
L 193.218743 60.288 
L 191.069091 63.346686 
L 184.672148 73.728 
L 182.562717 76.416 
L 179.85685 79.104 
L 176.264707 81.792 
L 171.553976 84.48 
L 165.818182 87.19359 
L 158.603636 90.520671 
L 154.57056 92.544 
L 149.933677 95.232 
L 146.012119 97.92 
L 142.728003 100.608 
L 139.979503 103.296 
L 136.96 107.060716 
L 135.894376 108.672 
L 134.438339 111.36 
L 133.308461 114.048 
L 132.555314 116.736 
L 132.106173 119.424 
L 131.961841 122.112 
L 132.122969 124.8 
L 132.590089 127.488 
L 133.364447 130.176 
L 134.525328 132.864 
L 136.016498 135.552 
L 137.909062 138.24 
L 140.567273 141.260125 
L 144.174545 144.46663 
L 147.781818 147.050085 
L 151.389091 149.188847 
L 156.74194 151.68 
L 158.603636 152.405254 
L 162.210909 153.623024 
L 165.818182 154.631676 
L 169.425455 155.412027 
L 173.032727 156.025821 
L 176.64 156.476815 
L 180.247273 156.770138 
L 183.854545 156.912792 
L 187.461818 156.91431 
L 194.676364 156.549939 
L 201.890909 155.839632 
L 209.105455 155.048765 
L 212.712727 154.736452 
L 216.32 154.549069 
L 219.927273 154.537513 
L 223.534545 154.744465 
L 227.141818 155.197443 
L 230.749091 155.902592 
L 235.052824 157.056 
L 237.963636 157.914626 
L 252.392727 162.58903 
L 259.607273 164.448559 
L 263.214545 165.204832 
L 266.821818 165.79533 
L 270.429091 166.253804 
L 274.036364 166.574013 
L 277.643636 166.751284 
L 281.250909 166.78205 
L 284.858182 166.663519 
L 288.465455 166.393453 
L 292.072727 165.970013 
L 297.015739 165.12 
L 299.287273 164.623253 
L 302.894545 163.665716 
L 306.795406 162.432 
L 310.109091 161.142773 
L 313.716364 159.535742 
L 318.245867 157.056 
L 322.252621 154.368 
L 325.566238 151.68 
L 328.341026 148.992 
L 330.61275 146.304 
L 332.514953 143.616 
L 334.050122 140.928 
L 335.36 138.06313 
L 336.201814 135.552 
L 336.83767 132.864 
L 337.21072 130.176 
L 337.32373 127.488 
L 337.17963 124.8 
L 336.781519 122.112 
L 336.132679 119.424 
L 335.228784 116.736 
L 334.017492 114.048 
L 331.752727 110.106616 
L 330.780524 108.672 
L 328.145455 105.344493 
L 326.255987 103.296 
L 323.463184 100.608 
L 320.285718 97.92 
L 316.716377 95.232 
L 310.109091 90.728459 
L 306.501818 88.276006 
L 304.914792 87.168 
L 301.564945 84.48 
L 298.915243 81.792 
L 296.894745 79.104 
L 295.381318 76.416 
L 294.13221 73.728 
L 291.932031 68.352 
L 290.680259 65.664 
L 288.465455 61.663417 
L 287.570214 60.288 
L 284.858182 56.803506 
L 283.09079 54.912 
L 280.14628 52.224 
L 276.547816 49.536 
L 272.060575 46.848 
L 270.429091 46.014432 
L 266.260645 44.16 
L 263.214545 43.061286 
L 257.715486 41.472 
L 257.715486 41.472 
" clip-path="url(#pc5699ef4e7)" style="fill: none; stroke: #000000"/>
   </g>
   <g id="QuadContourSet_24">
    <path d="M 147.781818 240.554323 
L 151.389091 240.994348 
L 154.996364 241.168588 
L 158.603636 241.072926 
L 162.210909 240.703617 
L 163.998153 240.384 
L 165.818182 240.01781 
L 169.425455 238.977705 
L 172.824535 237.696 
L 173.032727 237.606331 
L 176.64 235.687776 
L 177.711325 235.008 
L 180.247273 233.133342 
L 181.1936 232.32 
L 183.813527 229.632 
L 183.854545 229.58035 
L 185.690834 226.944 
L 187.141988 224.256 
L 187.461818 223.44278 
L 188.118269 221.568 
L 188.72362 218.88 
L 189.010781 216.192 
L 188.999958 213.504 
L 188.710729 210.816 
L 188.161133 208.128 
L 187.461818 205.764901 
L 187.357052 205.44 
L 186.227062 202.752 
L 184.855612 200.064 
L 183.854545 198.396642 
L 183.185399 197.376 
L 181.159177 194.688 
L 180.247273 193.617784 
L 178.737874 192 
L 176.64 189.97917 
L 175.879141 189.312 
L 173.032727 187.045714 
L 172.450827 186.624 
L 169.425455 184.611522 
L 168.315919 183.936 
L 165.818182 182.523528 
L 163.387319 181.248 
L 162.210909 180.667203 
L 158.603636 178.993805 
L 157.618389 178.56 
L 154.996364 177.452225 
L 151.389091 175.934717 
L 151.236336 175.872 
L 147.781818 174.489094 
L 144.658965 173.184 
L 144.174545 172.98598 
L 140.567273 171.503504 
L 138.205684 170.496 
L 136.96 169.982054 
L 133.352727 168.500842 
L 131.634147 167.808 
L 129.745455 167.090958 
L 126.138182 165.805753 
L 124.006655 165.12 
L 122.530909 164.684582 
L 118.923636 163.795069 
L 115.316364 163.102946 
L 111.709091 162.643916 
L 108.101818 162.448011 
L 104.494545 162.539487 
L 100.887273 162.937263 
L 97.28 163.655651 
L 93.672727 164.705194 
L 92.590753 165.12 
L 90.065455 166.269063 
L 87.35396 167.808 
L 86.458182 168.43317 
L 83.991895 170.496 
L 82.850909 171.734656 
L 81.705649 173.184 
L 80.208038 175.872 
L 79.331817 178.56 
L 79.243636 179.436255 
L 79.083673 181.248 
L 79.243636 182.762134 
L 79.382295 183.936 
L 80.264643 186.624 
L 81.676772 189.312 
L 82.850909 190.962907 
L 83.663649 192 
L 86.252323 194.688 
L 86.458182 194.870136 
L 89.49178 197.376 
L 90.065455 197.803184 
L 93.221072 200.064 
L 93.672727 200.368846 
L 97.198921 202.752 
L 97.28 202.805913 
L 100.887273 205.292813 
L 101.0887 205.44 
L 104.494545 208.042103 
L 104.598583 208.128 
L 107.665659 210.816 
L 108.101818 211.230398 
L 110.356819 213.504 
L 111.709091 214.987353 
L 112.7731 216.192 
L 115.029236 218.88 
L 115.316364 219.225349 
L 117.29412 221.568 
L 118.923636 223.492759 
L 119.598868 224.256 
L 122.096395 226.944 
L 122.530909 227.381815 
L 124.943266 229.632 
L 126.138182 230.661444 
L 128.263602 232.32 
L 129.745455 233.374658 
L 132.337057 235.008 
L 133.352727 235.588717 
L 136.96 237.364675 
L 137.768097 237.696 
L 140.567273 238.733026 
L 144.174545 239.794029 
L 146.909013 240.384 
L 147.781818 240.554323 
z
" clip-path="url(#pc5699ef4e7)" style="fill: none; stroke: #000000"/>
   </g>
   <g id="QuadContourSet_25">
    <path d="M 302.894545 302.369022 
L 306.501818 302.433795 
L 310.109091 302.29291 
L 310.9987 302.208 
L 313.716364 301.92269 
L 317.323636 301.325235 
L 320.930909 300.516681 
L 324.495389 299.52 
L 324.538182 299.506818 
L 328.145455 298.189335 
L 331.43635 296.832 
L 331.752727 296.689004 
L 335.36 294.9075 
L 336.831615 294.144 
L 338.967273 292.95633 
L 341.671645 291.456 
L 342.574545 290.930859 
L 346.181818 288.951187 
L 346.546241 288.768 
L 349.789091 287.133888 
L 352.290582 286.08 
L 353.396364 285.620233 
L 357.003636 284.369209 
L 360.545102 283.392 
L 360.610909 283.373869 
L 364.218182 282.48851 
L 367.825455 281.696711 
L 371.432727 280.928541 
L 372.425452 280.704 
L 375.04 280.076432 
L 378.647273 279.119646 
L 382.254545 278.042648 
L 382.332285 278.016 
L 385.861818 276.689912 
L 389.042623 275.328 
L 389.469091 275.124449 
L 393.076364 273.162322 
L 393.928275 272.64 
L 396.683636 270.718322 
L 397.66646 269.952 
L 400.290909 267.572822 
L 400.598216 267.264 
L 402.832872 264.576 
L 403.898182 262.979293 
L 404.560116 261.888 
L 405.787525 259.2 
L 406.611408 256.512 
L 407.031483 253.824 
L 407.047883 251.136 
L 406.661147 248.448 
L 405.872254 245.76 
L 404.682671 243.072 
L 403.898182 241.745015 
L 403.015256 240.384 
L 400.837485 237.696 
L 400.290909 237.133015 
L 398.014759 235.008 
L 396.683636 233.938647 
L 394.448614 232.32 
L 393.076364 231.445121 
L 389.912339 229.632 
L 389.469091 229.404179 
L 385.861818 227.742535 
L 383.935305 226.944 
L 382.254545 226.306247 
L 378.647273 225.061517 
L 376.133207 224.256 
L 375.04 223.927979 
L 371.432727 222.898871 
L 367.825455 221.859766 
L 366.836029 221.568 
L 364.218182 220.822049 
L 360.610909 219.701847 
L 358.232013 218.88 
L 357.003636 218.464832 
L 353.396364 217.127176 
L 351.107703 216.192 
L 349.789091 215.669931 
L 346.181818 214.169986 
L 344.616059 213.504 
L 342.574545 212.682447 
L 338.967273 211.259824 
L 337.770956 210.816 
L 335.36 209.986846 
L 331.752727 208.866943 
L 329.000642 208.128 
L 328.145455 207.917152 
L 324.538182 207.197692 
L 320.930909 206.659293 
L 317.323636 206.31456 
L 313.716364 206.172526 
L 310.109091 206.239553 
L 306.501818 206.520064 
L 302.894545 207.017106 
L 299.287273 207.732753 
L 297.762901 208.128 
L 295.68 208.727652 
L 292.072727 210.011247 
L 290.174566 210.816 
L 288.465455 211.629635 
L 285.073735 213.504 
L 284.858182 213.639602 
L 281.294231 216.192 
L 281.250909 216.227916 
L 278.398183 218.88 
L 277.643636 219.709029 
L 276.116499 221.568 
L 274.29586 224.256 
L 274.036364 224.737138 
L 272.950771 226.944 
L 271.942744 229.632 
L 271.218701 232.32 
L 270.739229 235.008 
L 270.453901 237.696 
L 270.429091 238.134153 
L 270.311318 240.384 
L 270.225814 243.072 
L 270.123911 245.76 
L 269.937084 248.448 
L 269.611111 251.136 
L 269.118239 253.824 
L 268.465545 256.512 
L 267.695352 259.2 
L 266.876979 261.888 
L 266.821818 262.078879 
L 266.155522 264.576 
L 265.548082 267.264 
L 265.117646 269.952 
L 264.919909 272.64 
L 264.998191 275.328 
L 265.384857 278.016 
L 266.103426 280.704 
L 266.821818 282.513975 
L 267.204488 283.392 
L 268.770901 286.08 
L 270.429091 288.341252 
L 270.775918 288.768 
L 273.415115 291.456 
L 274.036364 291.994863 
L 276.814407 294.144 
L 277.643636 294.702109 
L 281.244289 296.832 
L 281.250909 296.835464 
L 284.858182 298.46318 
L 287.644902 299.52 
L 288.465455 299.798861 
L 292.072727 300.792721 
L 295.68 301.554664 
L 299.287273 302.085319 
L 300.760147 302.208 
L 302.894545 302.369022 
z
" clip-path="url(#pc5699ef4e7)" style="fill: none; stroke: #000000"/>
   </g>
   <g id="QuadContourSet_26">
    <path d="M 198.283636 251.433291 
L 201.890909 251.867162 
L 205.498182 252.290472 
L 209.105455 252.659354 
L 212.712727 252.935069 
L 216.32 253.085667 
L 219.927273 253.08606 
L 223.534545 252.917223 
L 227.141818 252.565078 
L 230.749091 252.019383 
L 234.356364 251.272767 
L 234.874321 251.136 
L 237.963636 250.23086 
L 241.570909 248.941068 
L 242.736876 248.448 
L 245.178182 247.28871 
L 247.963257 245.76 
L 248.785455 245.245484 
L 251.843832 243.072 
L 252.392727 242.6184 
L 254.806973 240.384 
L 256 239.065141 
L 257.118371 237.696 
L 258.887225 235.008 
L 259.607273 233.565854 
L 260.174212 232.32 
L 261.008561 229.632 
L 261.454089 226.944 
L 261.510876 224.256 
L 261.179026 221.568 
L 260.458666 218.88 
L 259.607273 216.81589 
L 259.325059 216.192 
L 257.6835 213.504 
L 256 211.314372 
L 255.576163 210.816 
L 252.820714 208.128 
L 252.392727 207.771198 
L 249.269614 205.44 
L 248.785455 205.124304 
L 245.178182 203.042137 
L 244.602491 202.752 
L 241.570909 201.393535 
L 238.128377 200.064 
L 237.963636 200.006615 
L 234.356364 198.942027 
L 230.749091 198.049355 
L 227.477771 197.376 
L 227.141818 197.312406 
L 223.534545 196.74292 
L 219.927273 196.241993 
L 216.32 195.758684 
L 212.712727 195.226279 
L 209.772202 194.688 
L 209.105455 194.568685 
L 205.498182 193.725637 
L 201.890909 192.549411 
L 200.595939 192 
L 198.283636 191.003533 
L 195.161328 189.312 
L 194.676364 189.046058 
L 191.069091 186.782057 
L 190.837197 186.624 
L 187.461818 184.365873 
L 186.839953 183.936 
L 183.854545 181.946757 
L 182.799067 181.248 
L 180.247273 179.638472 
L 178.485753 178.56 
L 176.64 177.488021 
L 173.744974 175.872 
L 173.032727 175.49421 
L 169.425455 173.665469 
L 168.436517 173.184 
L 165.818182 171.961697 
L 162.623709 170.496 
L 162.210909 170.312754 
L 158.603636 168.74326 
L 156.476503 167.808 
L 154.996364 167.171553 
L 151.389091 165.59729 
L 150.310455 165.12 
L 147.781818 164.025288 
L 144.198149 162.432 
L 144.174545 162.421798 
L 140.567273 160.892082 
L 137.846195 159.744 
L 136.96 159.386866 
L 133.352727 158.007202 
L 130.704715 157.056 
L 129.745455 156.732608 
L 126.138182 155.644112 
L 122.530909 154.692451 
L 121.042706 154.368 
L 118.923636 153.941196 
L 115.316364 153.383558 
L 111.709091 153.004421 
L 108.101818 152.813457 
L 104.494545 152.818098 
L 100.887273 153.023961 
L 97.28 153.435241 
L 93.672727 154.055036 
L 92.312033 154.368 
L 90.065455 154.94045 
L 86.458182 156.094705 
L 83.964956 157.056 
L 82.850909 157.537501 
L 79.243636 159.362462 
L 78.585551 159.744 
L 75.636364 161.68936 
L 74.638075 162.432 
L 72.029091 164.682834 
L 71.573946 165.12 
L 69.221209 167.808 
L 68.421818 168.934843 
L 67.416479 170.496 
L 66.08893 173.184 
L 65.164232 175.872 
L 64.814545 177.66513 
L 64.654712 178.56 
L 64.539098 181.248 
L 64.785588 183.936 
L 64.814545 184.064408 
L 65.440542 186.624 
L 66.480067 189.312 
L 67.892112 192 
L 68.421818 192.800284 
L 69.773725 194.688 
L 72.029091 197.332411 
L 72.069239 197.376 
L 74.918936 200.064 
L 75.636364 200.669603 
L 78.257136 202.752 
L 79.243636 203.47411 
L 82.043491 205.44 
L 82.850909 205.978068 
L 86.121526 208.128 
L 86.458182 208.344975 
L 90.065455 210.709079 
L 90.223763 210.816 
L 93.672727 213.219633 
L 94.056979 213.504 
L 97.28 216.044282 
L 97.455467 216.192 
L 100.437037 218.88 
L 100.887273 219.318799 
L 103.101958 221.568 
L 104.494545 223.082461 
L 105.557726 224.256 
L 107.915769 226.944 
L 108.101818 227.154959 
L 110.339049 229.632 
L 111.709091 231.115714 
L 112.872389 232.32 
L 115.316364 234.723689 
L 115.624218 235.008 
L 118.748919 237.696 
L 118.923636 237.835346 
L 122.392518 240.384 
L 122.530909 240.477811 
L 126.138182 242.697241 
L 126.817032 243.072 
L 129.745455 244.557013 
L 132.432117 245.76 
L 133.352727 246.139295 
L 136.96 247.422653 
L 140.3693 248.448 
L 140.567273 248.502893 
L 144.174545 249.318444 
L 147.781818 249.956701 
L 151.389091 250.424688 
L 154.996364 250.732706 
L 158.603636 250.895185 
L 162.210909 250.931601 
L 165.818182 250.867333 
L 169.425455 250.734164 
L 173.032727 250.569989 
L 176.64 250.417123 
L 180.247273 250.31868 
L 183.854545 250.312903 
L 187.461818 250.426256 
L 191.069091 250.66728 
L 194.676364 251.023653 
L 195.604169 251.136 
L 198.283636 251.433291 
z
" clip-path="url(#pc5699ef4e7)" style="fill: none; stroke: #000000"/>
   </g>
   <g id="QuadContourSet_27">
    <path d="M 223.440964 41.472 
L 219.927273 42.45103 
L 214.986621 44.16 
L 212.712727 45.114559 
L 209.083276 46.848 
L 204.602815 49.536 
L 200.952035 52.224 
L 197.912673 54.912 
L 194.676364 58.434621 
L 193.218743 60.288 
L 191.069091 63.346686 
L 184.672148 73.728 
L 182.562717 76.416 
L 179.85685 79.104 
L 176.264707 81.792 
L 171.553976 84.48 
L 165.818182 87.19359 
L 158.603636 90.520671 
L 154.57056 92.544 
L 149.933677 95.232 
L 146.012119 97.92 
L 142.728003 100.608 
L 139.979503 103.296 
L 136.96 107.060716 
L 135.894376 108.672 
L 134.438339 111.36 
L 133.308461 114.048 
L 132.555314 116.736 
L 132.106173 119.424 
L 131.961841 122.112 
L 132.122969 124.8 
L 132.590089 127.488 
L 133.364447 130.176 
L 134.525328 132.864 
L 136.016498 135.552 
L 137.909062 138.24 
L 140.567273 141.260125 
L 144.174545 144.46663 
L 147.781818 147.050085 
L 151.389091 149.188847 
L 156.74194 151.68 
L 158.603636 152.405254 
L 162.210909 153.623024 
L 165.818182 154.631676 
L 169.425455 155.412027 
L 173.032727 156.025821 
L 176.64 156.476815 
L 180.247273 156.770138 
L 183.854545 156.912792 
L 187.461818 156.91431 
L 194.676364 156.549939 
L 201.890909 155.839632 
L 209.105455 155.048765 
L 212.712727 154.736452 
L 216.32 154.549069 
L 219.927273 154.537513 
L 223.534545 154.744465 
L 227.141818 155.197443 
L 230.749091 155.902592 
L 235.052824 157.056 
L 237.963636 157.914626 
L 252.392727 162.58903 
L 259.607273 164.448559 
L 263.214545 165.204832 
L 266.821818 165.79533 
L 270.429091 166.253804 
L 274.036364 166.574013 
L 277.643636 166.751284 
L 281.250909 166.78205 
L 284.858182 166.663519 
L 288.465455 166.393453 
L 292.072727 165.970013 
L 297.015739 165.12 
L 299.287273 164.623253 
L 302.894545 163.665716 
L 306.795406 162.432 
L 310.109091 161.142773 
L 313.716364 159.535742 
L 318.245867 157.056 
L 322.252621 154.368 
L 325.566238 151.68 
L 328.341026 148.992 
L 330.61275 146.304 
L 332.514953 143.616 
L 334.050122 140.928 
L 335.36 138.06313 
L 336.201814 135.552 
L 336.83767 132.864 
L 337.21072 130.176 
L 337.32373 127.488 
L 337.17963 124.8 
L 336.781519 122.112 
L 336.132679 119.424 
L 335.228784 116.736 
L 334.017492 114.048 
L 331.752727 110.106616 
L 330.780524 108.672 
L 328.145455 105.344493 
L 326.255987 103.296 
L 323.463184 100.608 
L 320.285718 97.92 
L 316.716377 95.232 
L 310.109091 90.728459 
L 306.501818 88.276006 
L 304.914792 87.168 
L 301.564945 84.48 
L 298.915243 81.792 
L 296.894745 79.104 
L 295.381318 76.416 
L 294.13221 73.728 
L 291.932031 68.352 
L 290.680259 65.664 
L 288.465455 61.663417 
L 287.570214 60.288 
L 284.858182 56.803506 
L 283.09079 54.912 
L 280.14628 52.224 
L 276.547816 49.536 
L 272.060575 46.848 
L 270.429091 46.014432 
L 266.260645 44.16 
L 263.214545 43.061286 
L 257.715486 41.472 
L 257.715486 41.472 
" clip-path="url(#pc5699ef4e7)" style="fill: none; stroke: #000000"/>
   </g>
   <g id="QuadContourSet_28">
    <path d="M 302.894545 302.369022 
L 306.501818 302.433795 
L 310.109091 302.29291 
L 310.9987 302.208 
L 313.716364 301.92269 
L 317.323636 301.325235 
L 320.930909 300.516681 
L 324.495389 299.52 
L 324.538182 299.506818 
L 328.145455 298.189335 
L 331.43635 296.832 
L 331.752727 296.689004 
L 335.36 294.9075 
L 336.831615 294.144 
L 338.967273 292.95633 
L 341.671645 291.456 
L 342.574545 290.930859 
L 346.181818 288.951187 
L 346.546241 288.768 
L 349.789091 287.133888 
L 352.290582 286.08 
L 353.396364 285.620233 
L 357.003636 284.369209 
L 360.545102 283.392 
L 360.610909 283.373869 
L 364.218182 282.48851 
L 367.825455 281.696711 
L 371.432727 280.928541 
L 372.425452 280.704 
L 375.04 280.076432 
L 378.647273 279.119646 
L 382.254545 278.042648 
L 382.332285 278.016 
L 385.861818 276.689912 
L 389.042623 275.328 
L 389.469091 275.124449 
L 393.076364 273.162322 
L 393.928275 272.64 
L 396.683636 270.718322 
L 397.66646 269.952 
L 400.290909 267.572822 
L 400.598216 267.264 
L 402.832872 264.576 
L 403.898182 262.979293 
L 404.560116 261.888 
L 405.787525 259.2 
L 406.611408 256.512 
L 407.031483 253.824 
L 407.047883 251.136 
L 406.661147 248.448 
L 405.872254 245.76 
L 404.682671 243.072 
L 403.898182 241.745015 
L 403.015256 240.384 
L 400.837485 237.696 
L 400.290909 237.133015 
L 398.014759 235.008 
L 396.683636 233.938647 
L 394.448614 232.32 
L 393.076364 231.445121 
L 389.912339 229.632 
L 389.469091 229.404179 
L 385.861818 227.742535 
L 383.935305 226.944 
L 382.254545 226.306247 
L 378.647273 225.061517 
L 376.133207 224.256 
L 375.04 223.927979 
L 371.432727 222.898871 
L 367.825455 221.859766 
L 366.836029 221.568 
L 364.218182 220.822049 
L 360.610909 219.701847 
L 358.232013 218.88 
L 357.003636 218.464832 
L 353.396364 217.127176 
L 351.107703 216.192 
L 349.789091 215.669931 
L 346.181818 214.169986 
L 344.616059 213.504 
L 342.574545 212.682447 
L 338.967273 211.259824 
L 337.770956 210.816 
L 335.36 209.986846 
L 331.752727 208.866943 
L 329.000642 208.128 
L 328.145455 207.917152 
L 324.538182 207.197692 
L 320.930909 206.659293 
L 317.323636 206.31456 
L 313.716364 206.172526 
L 310.109091 206.239553 
L 306.501818 206.520064 
L 302.894545 207.017106 
L 299.287273 207.732753 
L 297.762901 208.128 
L 295.68 208.727652 
L 292.072727 210.011247 
L 290.174566 210.816 
L 288.465455 211.629635 
L 285.073735 213.504 
L 284.858182 213.639602 
L 281.294231 216.192 
L 281.250909 216.227916 
L 278.398183 218.88 
L 277.643636 219.709029 
L 276.116499 221.568 
L 274.29586 224.256 
L 274.036364 224.737138 
L 272.950771 226.944 
L 271.942744 229.632 
L 271.218701 232.32 
L 270.739229 235.008 
L 270.453901 237.696 
L 270.429091 238.134153 
L 270.311318 240.384 
L 270.225814 243.072 
L 270.123911 245.76 
L 269.937084 248.448 
L 269.611111 251.136 
L 269.118239 253.824 
L 268.465545 256.512 
L 267.695352 259.2 
L 266.876979 261.888 
L 266.821818 262.078879 
L 266.155522 264.576 
L 265.548082 267.264 
L 265.117646 269.952 
L 264.919909 272.64 
L 264.998191 275.328 
L 265.384857 278.016 
L 266.103426 280.704 
L 266.821818 282.513975 
L 267.204488 283.392 
L 268.770901 286.08 
L 270.429091 288.341252 
L 270.775918 288.768 
L 273.415115 291.456 
L 274.036364 291.994863 
L 276.814407 294.144 
L 277.643636 294.702109 
L 281.244289 296.832 
L 281.250909 296.835464 
L 284.858182 298.46318 
L 287.644902 299.52 
L 288.465455 299.798861 
L 292.072727 300.792721 
L 295.68 301.554664 
L 299.287273 302.085319 
L 300.760147 302.208 
L 302.894545 302.369022 
z
" clip-path="url(#pc5699ef4e7)" style="fill: none; stroke: #000000"/>
   </g>
   <g id="QuadContourSet_29">
    <path d="M 321.852452 307.584 
L 324.538182 306.937716 
L 328.145455 305.900366 
L 331.752727 304.689862 
L 337.743416 302.208 
L 343.2704 299.52 
L 349.789091 296.113211 
L 353.857378 294.144 
L 357.003636 292.749877 
L 360.610909 291.404528 
L 364.218182 290.23029 
L 371.432727 288.320649 
L 382.254545 285.544976 
L 388.948767 283.392 
L 389.469091 283.201945 
L 395.322743 280.704 
L 396.683636 280.026793 
L 400.320585 278.016 
L 404.265987 275.328 
L 407.505455 272.635354 
L 410.101879 269.952 
L 412.240689 267.264 
L 413.960716 264.576 
L 414.72 263.095786 
M 414.72 241.671522 
L 414.072717 240.384 
L 412.382256 237.696 
L 410.29175 235.008 
L 407.505455 232.109246 
L 403.898182 229.115016 
L 400.290909 226.648655 
L 396.048442 224.256 
L 390.161191 221.568 
L 389.469091 221.288181 
L 382.254545 218.716399 
L 364.218182 213.185268 
L 357.669154 210.816 
L 353.396364 209.154705 
L 346.181818 206.26418 
L 342.574545 204.90006 
L 335.36 202.53781 
L 331.752727 201.603143 
L 328.145455 200.807188 
L 323.797832 200.064 
L 320.930909 199.708423 
L 317.323636 199.415689 
L 313.716364 199.279703 
L 310.109091 199.300407 
L 306.501818 199.475086 
L 300.803002 200.064 
L 299.287273 200.273667 
L 292.072727 201.632768 
L 281.250909 204.03287 
L 277.643636 204.607276 
L 274.036364 204.850131 
L 270.429091 204.63901 
L 266.821818 203.900441 
L 263.214545 202.658009 
L 259.607273 201.166621 
L 256 199.51387 
L 251.204592 197.376 
L 245.178182 195.043103 
L 241.570909 193.875709 
L 237.963636 192.861256 
L 234.356364 191.972973 
L 227.141818 190.618877 
L 216.32 188.868876 
L 212.712727 188.162547 
L 209.105455 187.248351 
L 205.498182 186.061226 
L 200.704431 183.936 
L 198.283636 182.684673 
L 191.513923 178.56 
L 182.705571 173.184 
L 176.64 169.894468 
L 169.425455 166.40143 
L 160.624967 162.432 
L 140.567273 153.677686 
L 135.307186 151.68 
L 129.745455 149.87925 
L 126.138182 148.879522 
L 122.530909 148.074012 
L 118.923636 147.411876 
L 115.316364 146.902398 
L 111.709091 146.55281 
L 108.101818 146.368662 
L 104.494545 146.354149 
L 100.887273 146.512412 
L 97.28 146.845782 
L 93.672727 147.355974 
L 90.065455 148.044245 
L 86.180697 148.992 
L 82.850909 150.0437 
L 78.53574 151.68 
L 75.636364 153.031397 
L 72.029091 154.989488 
L 68.421818 157.36508 
L 64.814545 160.331064 
L 62.709346 162.432 
L 60.451736 165.12 
L 58.653709 167.808 
L 57.6 169.753351 
M 57.6 191.657613 
L 57.75731 192 
L 59.316428 194.688 
L 61.207273 197.398963 
L 63.523645 200.064 
L 66.260127 202.752 
L 69.441842 205.44 
L 73.071244 208.128 
L 79.243636 212.21968 
L 86.458182 217.011053 
L 90.065455 219.719408 
L 93.672727 222.825094 
L 95.181523 224.256 
L 97.798816 226.944 
L 105.206578 235.008 
L 108.101818 237.927113 
L 111.709091 241.150708 
L 115.316364 243.955683 
L 118.923636 246.378035 
L 122.530909 248.473226 
L 128.217865 251.136 
L 129.745455 251.753497 
L 133.352727 253.036232 
L 136.96 254.122821 
L 140.567273 254.993032 
L 144.174545 255.706378 
L 149.899985 256.512 
L 151.389091 256.672189 
L 154.996364 256.933996 
L 162.210909 257.135746 
L 169.425455 257.045297 
L 180.247273 256.8736 
L 187.461818 257.087828 
L 194.676364 257.672614 
L 209.105455 259.228821 
L 216.32 259.671391 
L 223.534545 259.758203 
L 230.749091 259.526617 
L 238.761735 259.2 
L 241.68269 259.2 
L 245.178182 259.545116 
L 248.785455 260.805547 
L 250.186884 261.888 
L 252.04992 264.576 
L 252.392727 265.506082 
L 252.896608 267.264 
L 253.805264 272.64 
L 254.244239 275.328 
L 254.799852 278.016 
L 256 282.030288 
L 256.508268 283.392 
L 257.783699 286.08 
L 259.607273 289.142004 
L 261.340994 291.456 
L 263.736173 294.144 
L 266.821818 296.953222 
L 270.429091 299.607634 
L 274.870396 302.208 
L 277.643636 303.546969 
L 281.250909 305.062048 
L 284.858182 306.268069 
L 289.794395 307.584 
L 289.794395 307.584 
" clip-path="url(#pc5699ef4e7)" style="fill: none; stroke: #000000"/>
   </g>
   <g id="QuadContourSet_30">
    <path d="M 223.440964 41.472 
L 219.927273 42.45103 
L 214.986621 44.16 
L 212.712727 45.114559 
L 209.083276 46.848 
L 204.602815 49.536 
L 200.952035 52.224 
L 197.912673 54.912 
L 194.676364 58.434621 
L 193.218743 60.288 
L 191.069091 63.346686 
L 184.672148 73.728 
L 182.562717 76.416 
L 179.85685 79.104 
L 176.264707 81.792 
L 171.553976 84.48 
L 165.818182 87.19359 
L 158.603636 90.520671 
L 154.57056 92.544 
L 149.933677 95.232 
L 146.012119 97.92 
L 142.728003 100.608 
L 139.979503 103.296 
L 136.96 107.060716 
L 135.894376 108.672 
L 134.438339 111.36 
L 133.308461 114.048 
L 132.555314 116.736 
L 132.106173 119.424 
L 131.961841 122.112 
L 132.122969 124.8 
L 132.590089 127.488 
L 133.364447 130.176 
L 134.525328 132.864 
L 136.016498 135.552 
L 137.909062 138.24 
L 140.567273 141.260125 
L 144.174545 144.46663 
L 147.781818 147.050085 
L 151.389091 149.188847 
L 156.74194 151.68 
L 158.603636 152.405254 
L 162.210909 153.623024 
L 165.818182 154.631676 
L 169.425455 155.412027 
L 173.032727 156.025821 
L 176.64 156.476815 
L 180.247273 156.770138 
L 183.854545 156.912792 
L 187.461818 156.91431 
L 194.676364 156.549939 
L 201.890909 155.839632 
L 209.105455 155.048765 
L 212.712727 154.736452 
L 216.32 154.549069 
L 219.927273 154.537513 
L 223.534545 154.744465 
L 227.141818 155.197443 
L 230.749091 155.902592 
L 235.052824 157.056 
L 237.963636 157.914626 
L 252.392727 162.58903 
L 259.607273 164.448559 
L 263.214545 165.204832 
L 266.821818 165.79533 
L 270.429091 166.253804 
L 274.036364 166.574013 
L 277.643636 166.751284 
L 281.250909 166.78205 
L 284.858182 166.663519 
L 288.465455 166.393453 
L 292.072727 165.970013 
L 297.015739 165.12 
L 299.287273 164.623253 
L 302.894545 163.665716 
L 306.795406 162.432 
L 310.109091 161.142773 
L 313.716364 159.535742 
L 318.245867 157.056 
L 322.252621 154.368 
L 325.566238 151.68 
L 328.341026 148.992 
L 330.61275 146.304 
L 332.514953 143.616 
L 334.050122 140.928 
L 335.36 138.06313 
L 336.201814 135.552 
L 336.83767 132.864 
L 337.21072 130.176 
L 337.32373 127.488 
L 337.17963 124.8 
L 336.781519 122.112 
L 336.132679 119.424 
L 335.228784 116.736 
L 334.017492 114.048 
L 331.752727 110.106616 
L 330.780524 108.672 
L 328.145455 105.344493 
L 326.255987 103.296 
L 323.463184 100.608 
L 320.285718 97.92 
L 316.716377 95.232 
L 310.109091 90.728459 
L 306.501818 88.276006 
L 304.914792 87.168 
L 301.564945 84.48 
L 298.915243 81.792 
L 296.894745 79.104 
L 295.381318 76.416 
L 294.13221 73.728 
L 291.932031 68.352 
L 290.680259 65.664 
L 288.465455 61.663417 
L 287.570214 60.288 
L 284.858182 56.803506 
L 283.09079 54.912 
L 280.14628 52.224 
L 276.547816 49.536 
L 272.060575 46.848 
L 270.429091 46.014432 
L 266.260645 44.16 
L 263.214545 43.061286 
L 257.715486 41.472 
L 257.715486 41.472 
" clip-path="url(#pc5699ef4e7)" style="fill: none; stroke: #000000"/>
   </g>
   <g id="patch_3">
    <path d="M 57.6 307.584 
L 57.6 41.472 
" style="fill: none; stroke: #000000; stroke-width: 0.8; stroke-linejoin: miter; stroke-linecap: square"/>
   </g>
   <g id="patch_4">
    <path d="M 414.72 307.584 
L 414.72 41.472 
" style="fill: none; stroke: #000000; stroke-width: 0.8; stroke-linejoin: miter; stroke-linecap: square"/>
   </g>
   <g id="patch_5">
    <path d="M 57.6 307.584 
L 414.72 307.584 
" style="fill: none; stroke: #000000; stroke-width: 0.8; stroke-linejoin: miter; stroke-linecap: square"/>
   </g>
   <g id="patch_6">
    <path d="M 57.6 41.472 
L 414.72 41.472 
" style="fill: none; stroke: #000000; stroke-width: 0.8; stroke-linejoin: miter; stroke-linecap: square"/>
   </g>
   <g id="text_1">
    <!-- 0 -->
    <g transform="translate(372.259087 255.160667) scale(0.1 -0.1)">
     <defs>
      <path id="DejaVuSans-30" d="M 2034 4250 
Q 1547 4250 1301 3770 
Q 1056 3291 1056 2328 
Q 1056 1369 1301 889 
Q 1547 409 2034 409 
Q 2525 409 2770 889 
Q 3016 1369 3016 2328 
Q 3016 3291 2770 3770 
Q 2525 4250 2034 4250 
z
M 2034 4750 
Q 2819 4750 3233 4129 
Q 3647 3509 3647 2328 
Q 3647 1150 3233 529 
Q 2819 -91 2034 -91 
Q 1250 -91 836 529 
Q 422 1150 422 2328 
Q 422 3509 836 4129 
Q 1250 4750 2034 4750 
z
" transform="scale(0.015625)"/>
     </defs>
     <use xlink:href="#DejaVuSans-30"/>
    </g>
   </g>
   <g id="text_2">
    <!-- 1 -->
    <g transform="translate(287.797742 133.15069) scale(0.1 -0.1)">
     <defs>
      <path id="DejaVuSans-31" d="M 794 531 
L 1825 531 
L 1825 4091 
L 703 3866 
L 703 4441 
L 1819 4666 
L 2450 4666 
L 2450 531 
L 3481 531 
L 3481 0 
L 794 0 
L 794 531 
z
" transform="scale(0.015625)"/>
     </defs>
     <use xlink:href="#DejaVuSans-31"/>
    </g>
   </g>
   <g id="text_3">
    <!-- 2 -->
    <g transform="translate(187.854556 124.870373) scale(0.1 -0.1)">
     <defs>
      <path id="DejaVuSans-32" d="M 1228 531 
L 3431 531 
L 3431 0 
L 469 0 
L 469 531 
Q 828 903 1448 1529 
Q 2069 2156 2228 2338 
Q 2531 2678 2651 2914 
Q 2772 3150 2772 3378 
Q 2772 3750 2511 3984 
Q 2250 4219 1831 4219 
Q 1534 4219 1204 4116 
Q 875 4013 500 3803 
L 500 4441 
Q 881 4594 1212 4672 
Q 1544 4750 1819 4750 
Q 2544 4750 2975 4387 
Q 3406 4025 3406 3419 
Q 3406 3131 3298 2873 
Q 3191 2616 2906 2266 
Q 2828 2175 2409 1742 
Q 1991 1309 1228 531 
z
" transform="scale(0.015625)"/>
     </defs>
     <use xlink:href="#DejaVuSans-32"/>
    </g>
   </g>
   <g id="text_4">
    <!-- 3 -->
    <g transform="translate(245.85065 76.530104) scale(0.1 -0.1)">
     <defs>
      <path id="DejaVuSans-33" d="M 2597 2516 
Q 3050 2419 3304 2112 
Q 3559 1806 3559 1356 
Q 3559 666 3084 287 
Q 2609 -91 1734 -91 
Q 1441 -91 1130 -33 
Q 819 25 488 141 
L 488 750 
Q 750 597 1062 519 
Q 1375 441 1716 441 
Q 2309 441 2620 675 
Q 2931 909 2931 1356 
Q 2931 1769 2642 2001 
Q 2353 2234 1838 2234 
L 1294 2234 
L 1294 2753 
L 1863 2753 
Q 2328 2753 2575 2939 
Q 2822 3125 2822 3475 
Q 2822 3834 2567 4026 
Q 2313 4219 1838 4219 
Q 1578 4219 1281 4162 
Q 984 4106 628 3988 
L 628 4550 
Q 988 4650 1302 4700 
Q 1616 4750 1894 4750 
Q 2613 4750 3031 4423 
Q 3450 4097 3450 3541 
Q 3450 3153 3228 2886 
Q 3006 2619 2597 2516 
z
" transform="scale(0.015625)"/>
     </defs>
     <use xlink:href="#DejaVuSans-33"/>
    </g>
   </g>
   <g id="text_5">
    <!-- 4 -->
    <g transform="translate(277.959422 123.522545) scale(0.1 -0.1)">
     <defs>
      <path id="DejaVuSans-34" d="M 2419 4116 
L 825 1625 
L 2419 1625 
L 2419 4116 
z
M 2253 4666 
L 3047 4666 
L 3047 1625 
L 3713 1625 
L 3713 1100 
L 3047 1100 
L 3047 0 
L 2419 0 
L 2419 1100 
L 313 1100 
L 313 1709 
L 2253 4666 
z
" transform="scale(0.015625)"/>
     </defs>
     <use xlink:href="#DejaVuSans-34"/>
    </g>
   </g>
   <g id="text_6">
    <!-- 5 -->
    <g transform="translate(310.798495 278.044646) scale(0.1 -0.1)">
     <defs>
      <path id="DejaVuSans-35" d="M 691 4666 
L 3169 4666 
L 3169 4134 
L 1269 4134 
L 1269 2991 
Q 1406 3038 1543 3061 
Q 1681 3084 1819 3084 
Q 2600 3084 3056 2656 
Q 3513 2228 3513 1497 
Q 3513 744 3044 326 
Q 2575 -91 1722 -91 
Q 1428 -91 1123 -41 
Q 819 9 494 109 
L 494 744 
Q 775 591 1075 516 
Q 1375 441 1709 441 
Q 2250 441 2565 725 
Q 2881 1009 2881 1497 
Q 2881 1984 2565 2268 
Q 2250 2553 1709 2553 
Q 1456 2553 1204 2497 
Q 953 2441 691 2322 
L 691 4666 
z
" transform="scale(0.015625)"/>
     </defs>
     <use xlink:href="#DejaVuSans-35"/>
    </g>
   </g>
   <g id="text_7">
    <!-- 6 -->
    <g transform="translate(161.647018 224.87696) scale(0.1 -0.1)">
     <defs>
      <path id="DejaVuSans-36" d="M 2113 2584 
Q 1688 2584 1439 2293 
Q 1191 2003 1191 1497 
Q 1191 994 1439 701 
Q 1688 409 2113 409 
Q 2538 409 2786 701 
Q 3034 994 3034 1497 
Q 3034 2003 2786 2293 
Q 2538 2584 2113 2584 
z
M 3366 4563 
L 3366 3988 
Q 3128 4100 2886 4159 
Q 2644 4219 2406 4219 
Q 1781 4219 1451 3797 
Q 1122 3375 1075 2522 
Q 1259 2794 1537 2939 
Q 1816 3084 2150 3084 
Q 2853 3084 3261 2657 
Q 3669 2231 3669 1497 
Q 3669 778 3244 343 
Q 2819 -91 2113 -91 
Q 1303 -91 875 529 
Q 447 1150 447 2328 
Q 447 3434 972 4092 
Q 1497 4750 2381 4750 
Q 2619 4750 2861 4703 
Q 3103 4656 3366 4563 
z
" transform="scale(0.015625)"/>
     </defs>
     <use xlink:href="#DejaVuSans-36"/>
    </g>
   </g>
   <g id="text_8">
    <!-- 7 -->
    <g transform="translate(110.469042 183.286305) scale(0.1 -0.1)">
     <defs>
      <path id="DejaVuSans-37" d="M 525 4666 
L 3525 4666 
L 3525 4397 
L 1831 0 
L 1172 0 
L 2766 4134 
L 525 4134 
L 525 4666 
z
" transform="scale(0.015625)"/>
     </defs>
     <use xlink:href="#DejaVuSans-37"/>
    </g>
   </g>
   <g id="text_9">
    <!-- 8 -->
    <g transform="translate(232.982954 113.334015) scale(0.1 -0.1)">
     <defs>
      <path id="DejaVuSans-38" d="M 2034 2216 
Q 1584 2216 1326 1975 
Q 1069 1734 1069 1313 
Q 1069 891 1326 650 
Q 1584 409 2034 409 
Q 2484 409 2743 651 
Q 3003 894 3003 1313 
Q 3003 1734 2745 1975 
Q 2488 2216 2034 2216 
z
M 1403 2484 
Q 997 2584 770 2862 
Q 544 3141 544 3541 
Q 544 4100 942 4425 
Q 1341 4750 2034 4750 
Q 2731 4750 3128 4425 
Q 3525 4100 3525 3541 
Q 3525 3141 3298 2862 
Q 3072 2584 2669 2484 
Q 3125 2378 3379 2068 
Q 3634 1759 3634 1313 
Q 3634 634 3220 271 
Q 2806 -91 2034 -91 
Q 1263 -91 848 271 
Q 434 634 434 1313 
Q 434 1759 690 2068 
Q 947 2378 1403 2484 
z
M 1172 3481 
Q 1172 3119 1398 2916 
Q 1625 2713 2034 2713 
Q 2441 2713 2670 2916 
Q 2900 3119 2900 3481 
Q 2900 3844 2670 4047 
Q 2441 4250 2034 4250 
Q 1625 4250 1398 4047 
Q 1172 3844 1172 3481 
z
" transform="scale(0.015625)"/>
     </defs>
     <use xlink:href="#DejaVuSans-38"/>
    </g>
   </g>
   <g id="text_10">
    <!-- 9 -->
    <g transform="translate(153.073555 202.857031) scale(0.1 -0.1)">
     <defs>
      <path id="DejaVuSans-39" d="M 703 97 
L 703 672 
Q 941 559 1184 500 
Q 1428 441 1663 441 
Q 2288 441 2617 861 
Q 2947 1281 2994 2138 
Q 2813 1869 2534 1725 
Q 2256 1581 1919 1581 
Q 1219 1581 811 2004 
Q 403 2428 403 3163 
Q 403 3881 828 4315 
Q 1253 4750 1959 4750 
Q 2769 4750 3195 4129 
Q 3622 3509 3622 2328 
Q 3622 1225 3098 567 
Q 2575 -91 1691 -91 
Q 1453 -91 1209 -44 
Q 966 3 703 97 
z
M 1959 2075 
Q 2384 2075 2632 2365 
Q 2881 2656 2881 3163 
Q 2881 3666 2632 3958 
Q 2384 4250 1959 4250 
Q 1534 4250 1286 3958 
Q 1038 3666 1038 3163 
Q 1038 2656 1286 2365 
Q 1534 2075 1959 2075 
z
" transform="scale(0.015625)"/>
     </defs>
     <use xlink:href="#DejaVuSans-39"/>
    </g>
   </g>
   <g id="text_11">
    <!-- 10 -->
    <g transform="translate(226.20723 227.971908) scale(0.1 -0.1)">
     <use xlink:href="#DejaVuSans-31"/>
     <use xlink:href="#DejaVuSans-30" x="63.623047"/>
    </g>
   </g>
   <g id="text_12">
    <!-- 11 -->
    <g transform="translate(317.605179 236.1594) scale(0.1 -0.1)">
     <use xlink:href="#DejaVuSans-31"/>
     <use xlink:href="#DejaVuSans-31" x="63.623047"/>
    </g>
   </g>
  </g>
 </g>
 <defs>
  <clipPath id="pc5699ef4e7">
   <rect x="57.6" y="41.472" width="357.12" height="266.112"/>
  </clipPath>
 </defs>
</svg>
