<?xml version="1.0" encoding="utf-8" standalone="no"?>
<!DOCTYPE svg PUBLIC "-//W3C//DTD SVG 1.1//EN"
  "http://www.w3.org/Graphics/SVG/1.1/DTD/svg11.dtd">
<svg xmlns:xlink="http://www.w3.org/1999/xlink" width="720pt" height="360pt" viewBox="0 0 720 360" xmlns="http://www.w3.org/2000/svg" version="1.1">
 <metadata>
  <rdf:RDF xmlns:dc="http://purl.org/dc/elements/1.1/" xmlns:cc="http://creativecommons.org/ns#" xmlns:rdf="http://www.w3.org/1999/02/22-rdf-syntax-ns#">
   <cc:Work>
    <dc:type rdf:resource="http://purl.org/dc/dcmitype/StillImage"/>
    <dc:date>2025-12-03T18:50:58.422778</dc:date>
    <dc:format>image/svg+xml</dc:format>
    <dc:creator>
     <cc:Agent>
      <dc:title>Matplotlib v3.9.2, https://matplotlib.org/</dc:title>
     </cc:Agent>
    </dc:creator>
   </cc:Work>
  </rdf:RDF>
 </metadata>
 <defs>
  <style type="text/css">*{stroke-linejoin: round; stroke-linecap: butt}</style>
 </defs>
 <g id="figure_1">
  <g id="patch_1">
   <path d="M 0 360 
L 720 360 
L 720 0 
L 0 0 
z
" style="fill: #ffffff"/>
  </g>
  <g id="axes_1">
   <g id="patch_2">
    <path d="M 90 320.4 
L 343.636364 320.4 
L 343.636364 43.2 
L 90 43.2 
z
" style="fill: #ffffff"/>
   </g>
   <g id="matplotlib.axis_1">
    <g id="xtick_1">
     <g id="line2d_1">
      <defs>
       <path id="m1fa0b45a76" d="M 0 0 
L 0 3.5 
" style="stroke: #000000; stroke-width: 0.8"/>
      </defs>
      <g>
       <use xlink:href="#m1fa0b45a76" x="100.662552" y="320.4" style="stroke: #000000; stroke-width: 0.8"/>
      </g>
     </g>
     <g id="text_1">
      <!-- −12 -->
      <g transform="translate(90.110209 334.998438) scale(0.1 -0.1)">
       <defs>
        <path id="DejaVuSans-2212" d="M 678 2272 
L 4684 2272 
L 4684 1741 
L 678 1741 
L 678 2272 
z
" transform="scale(0.015625)"/>
        <path id="DejaVuSans-31" d="M 794 531 
L 1825 531 
L 1825 4091 
L 703 3866 
L 703 4441 
L 1819 4666 
L 2450 4666 
L 2450 531 
L 3481 531 
L 3481 0 
L 794 0 
L 794 531 
z
" transform="scale(0.015625)"/>
        <path id="DejaVuSans-32" d="M 1228 531 
L 3431 531 
L 3431 0 
L 469 0 
L 469 531 
Q 828 903 1448 1529 
Q 2069 2156 2228 2338 
Q 2531 2678 2651 2914 
Q 2772 3150 2772 3378 
Q 2772 3750 2511 3984 
Q 2250 4219 1831 4219 
Q 1534 4219 1204 4116 
Q 875 4013 500 3803 
L 500 4441 
Q 881 4594 1212 4672 
Q 1544 4750 1819 4750 
Q 2544 4750 2975 4387 
Q 3406 4025 3406 3419 
Q 3406 3131 3298 2873 
Q 3191 2616 2906 2266 
Q 2828 2175 2409 1742 
Q 1991 1309 1228 531 
z
" transform="scale(0.015625)"/>
       </defs>
       <use xlink:href="#DejaVuSans-2212"/>
       <use xlink:href="#DejaVuSans-31" x="83.789062"/>
       <use xlink:href="#DejaVuSans-32" x="147.412109"/>
      </g>
     </g>
    </g>
    <g id="xtick_2">
     <g id="line2d_2">
      <g>
       <use xlink:href="#m1fa0b45a76" x="137.332698" y="320.4" style="stroke: #000000; stroke-width: 0.8"/>
      </g>
     </g>
     <g id="text_2">
      <!-- −10 -->
      <g transform="translate(126.780354 334.998438) scale(0.1 -0.1)">
       <defs>
        <path id="DejaVuSans-30" d="M 2034 4250 
Q 1547 4250 1301 3770 
Q 1056 3291 1056 2328 
Q 1056 1369 1301 889 
Q 1547 409 2034 409 
Q 2525 409 2770 889 
Q 3016 1369 3016 2328 
Q 3016 3291 2770 3770 
Q 2525 4250 2034 4250 
z
M 2034 4750 
Q 2819 4750 3233 4129 
Q 3647 3509 3647 2328 
Q 3647 1150 3233 529 
Q 2819 -91 2034 -91 
Q 1250 -91 836 529 
Q 422 1150 422 2328 
Q 422 3509 836 4129 
Q 1250 4750 2034 4750 
z
" transform="scale(0.015625)"/>
       </defs>
       <use xlink:href="#DejaVuSans-2212"/>
       <use xlink:href="#DejaVuSans-31" x="83.789062"/>
       <use xlink:href="#DejaVuSans-30" x="147.412109"/>
      </g>
     </g>
    </g>
    <g id="xtick_3">
     <g id="line2d_3">
      <g>
       <use xlink:href="#m1fa0b45a76" x="174.002843" y="320.4" style="stroke: #000000; stroke-width: 0.8"/>
      </g>
     </g>
     <g id="text_3">
      <!-- −8 -->
      <g transform="translate(166.631749 334.998438) scale(0.1 -0.1)">
       <defs>
        <path id="DejaVuSans-38" d="M 2034 2216 
Q 1584 2216 1326 1975 
Q 1069 1734 1069 1313 
Q 1069 891 1326 650 
Q 1584 409 2034 409 
Q 2484 409 2743 651 
Q 3003 894 3003 1313 
Q 3003 1734 2745 1975 
Q 2488 2216 2034 2216 
z
M 1403 2484 
Q 997 2584 770 2862 
Q 544 3141 544 3541 
Q 544 4100 942 4425 
Q 1341 4750 2034 4750 
Q 2731 4750 3128 4425 
Q 3525 4100 3525 3541 
Q 3525 3141 3298 2862 
Q 3072 2584 2669 2484 
Q 3125 2378 3379 2068 
Q 3634 1759 3634 1313 
Q 3634 634 3220 271 
Q 2806 -91 2034 -91 
Q 1263 -91 848 271 
Q 434 634 434 1313 
Q 434 1759 690 2068 
Q 947 2378 1403 2484 
z
M 1172 3481 
Q 1172 3119 1398 2916 
Q 1625 2713 2034 2713 
Q 2441 2713 2670 2916 
Q 2900 3119 2900 3481 
Q 2900 3844 2670 4047 
Q 2441 4250 2034 4250 
Q 1625 4250 1398 4047 
Q 1172 3844 1172 3481 
z
" transform="scale(0.015625)"/>
       </defs>
       <use xlink:href="#DejaVuSans-2212"/>
       <use xlink:href="#DejaVuSans-38" x="83.789062"/>
      </g>
     </g>
    </g>
    <g id="xtick_4">
     <g id="line2d_4">
      <g>
       <use xlink:href="#m1fa0b45a76" x="210.672988" y="320.4" style="stroke: #000000; stroke-width: 0.8"/>
      </g>
     </g>
     <g id="text_4">
      <!-- −6 -->
      <g transform="translate(203.301895 334.998438) scale(0.1 -0.1)">
       <defs>
        <path id="DejaVuSans-36" d="M 2113 2584 
Q 1688 2584 1439 2293 
Q 1191 2003 1191 1497 
Q 1191 994 1439 701 
Q 1688 409 2113 409 
Q 2538 409 2786 701 
Q 3034 994 3034 1497 
Q 3034 2003 2786 2293 
Q 2538 2584 2113 2584 
z
M 3366 4563 
L 3366 3988 
Q 3128 4100 2886 4159 
Q 2644 4219 2406 4219 
Q 1781 4219 1451 3797 
Q 1122 3375 1075 2522 
Q 1259 2794 1537 2939 
Q 1816 3084 2150 3084 
Q 2853 3084 3261 2657 
Q 3669 2231 3669 1497 
Q 3669 778 3244 343 
Q 2819 -91 2113 -91 
Q 1303 -91 875 529 
Q 447 1150 447 2328 
Q 447 3434 972 4092 
Q 1497 4750 2381 4750 
Q 2619 4750 2861 4703 
Q 3103 4656 3366 4563 
z
" transform="scale(0.015625)"/>
       </defs>
       <use xlink:href="#DejaVuSans-2212"/>
       <use xlink:href="#DejaVuSans-36" x="83.789062"/>
      </g>
     </g>
    </g>
    <g id="xtick_5">
     <g id="line2d_5">
      <g>
       <use xlink:href="#m1fa0b45a76" x="247.343134" y="320.4" style="stroke: #000000; stroke-width: 0.8"/>
      </g>
     </g>
     <g id="text_5">
      <!-- −4 -->
      <g transform="translate(239.97204 334.998438) scale(0.1 -0.1)">
       <defs>
        <path id="DejaVuSans-34" d="M 2419 4116 
L 825 1625 
L 2419 1625 
L 2419 4116 
z
M 2253 4666 
L 3047 4666 
L 3047 1625 
L 3713 1625 
L 3713 1100 
L 3047 1100 
L 3047 0 
L 2419 0 
L 2419 1100 
L 313 1100 
L 313 1709 
L 2253 4666 
z
" transform="scale(0.015625)"/>
       </defs>
       <use xlink:href="#DejaVuSans-2212"/>
       <use xlink:href="#DejaVuSans-34" x="83.789062"/>
      </g>
     </g>
    </g>
    <g id="xtick_6">
     <g id="line2d_6">
      <g>
       <use xlink:href="#m1fa0b45a76" x="284.013279" y="320.4" style="stroke: #000000; stroke-width: 0.8"/>
      </g>
     </g>
     <g id="text_6">
      <!-- −2 -->
      <g transform="translate(276.642185 334.998438) scale(0.1 -0.1)">
       <use xlink:href="#DejaVuSans-2212"/>
       <use xlink:href="#DejaVuSans-32" x="83.789062"/>
      </g>
     </g>
    </g>
    <g id="xtick_7">
     <g id="line2d_7">
      <g>
       <use xlink:href="#m1fa0b45a76" x="320.683424" y="320.4" style="stroke: #000000; stroke-width: 0.8"/>
      </g>
     </g>
     <g id="text_7">
      <!-- 0 -->
      <g transform="translate(317.502174 334.998438) scale(0.1 -0.1)">
       <use xlink:href="#DejaVuSans-30"/>
      </g>
     </g>
    </g>
   </g>
   <g id="matplotlib.axis_2">
    <g id="ytick_1">
     <g id="line2d_8">
      <defs>
       <path id="m3f2a931cc3" d="M 0 0 
L -3.5 0 
" style="stroke: #000000; stroke-width: 0.8"/>
      </defs>
      <g>
       <use xlink:href="#m3f2a931cc3" x="90" y="296.64238" style="stroke: #000000; stroke-width: 0.8"/>
      </g>
     </g>
     <g id="text_8">
      <!-- −10.0 -->
      <g transform="translate(52.354687 300.441598) scale(0.1 -0.1)">
       <defs>
        <path id="DejaVuSans-2e" d="M 684 794 
L 1344 794 
L 1344 0 
L 684 0 
L 684 794 
z
" transform="scale(0.015625)"/>
       </defs>
       <use xlink:href="#DejaVuSans-2212"/>
       <use xlink:href="#DejaVuSans-31" x="83.789062"/>
       <use xlink:href="#DejaVuSans-30" x="147.412109"/>
       <use xlink:href="#DejaVuSans-2e" x="211.035156"/>
       <use xlink:href="#DejaVuSans-30" x="242.822266"/>
      </g>
     </g>
    </g>
    <g id="ytick_2">
     <g id="line2d_9">
      <g>
       <use xlink:href="#m3f2a931cc3" x="90" y="260.5708" style="stroke: #000000; stroke-width: 0.8"/>
      </g>
     </g>
     <g id="text_9">
      <!-- −7.5 -->
      <g transform="translate(58.717187 264.370019) scale(0.1 -0.1)">
       <defs>
        <path id="DejaVuSans-37" d="M 525 4666 
L 3525 4666 
L 3525 4397 
L 1831 0 
L 1172 0 
L 2766 4134 
L 525 4134 
L 525 4666 
z
" transform="scale(0.015625)"/>
        <path id="DejaVuSans-35" d="M 691 4666 
L 3169 4666 
L 3169 4134 
L 1269 4134 
L 1269 2991 
Q 1406 3038 1543 3061 
Q 1681 3084 1819 3084 
Q 2600 3084 3056 2656 
Q 3513 2228 3513 1497 
Q 3513 744 3044 326 
Q 2575 -91 1722 -91 
Q 1428 -91 1123 -41 
Q 819 9 494 109 
L 494 744 
Q 775 591 1075 516 
Q 1375 441 1709 441 
Q 2250 441 2565 725 
Q 2881 1009 2881 1497 
Q 2881 1984 2565 2268 
Q 2250 2553 1709 2553 
Q 1456 2553 1204 2497 
Q 953 2441 691 2322 
L 691 4666 
z
" transform="scale(0.015625)"/>
       </defs>
       <use xlink:href="#DejaVuSans-2212"/>
       <use xlink:href="#DejaVuSans-37" x="83.789062"/>
       <use xlink:href="#DejaVuSans-2e" x="147.412109"/>
       <use xlink:href="#DejaVuSans-35" x="179.199219"/>
      </g>
     </g>
    </g>
    <g id="ytick_3">
     <g id="line2d_10">
      <g>
       <use xlink:href="#m3f2a931cc3" x="90" y="224.499221" style="stroke: #000000; stroke-width: 0.8"/>
      </g>
     </g>
     <g id="text_10">
      <!-- −5.0 -->
      <g transform="translate(58.717187 228.29844) scale(0.1 -0.1)">
       <use xlink:href="#DejaVuSans-2212"/>
       <use xlink:href="#DejaVuSans-35" x="83.789062"/>
       <use xlink:href="#DejaVuSans-2e" x="147.412109"/>
       <use xlink:href="#DejaVuSans-30" x="179.199219"/>
      </g>
     </g>
    </g>
    <g id="ytick_4">
     <g id="line2d_11">
      <g>
       <use xlink:href="#m3f2a931cc3" x="90" y="188.427641" style="stroke: #000000; stroke-width: 0.8"/>
      </g>
     </g>
     <g id="text_11">
      <!-- −2.5 -->
      <g transform="translate(58.717187 192.22686) scale(0.1 -0.1)">
       <use xlink:href="#DejaVuSans-2212"/>
       <use xlink:href="#DejaVuSans-32" x="83.789062"/>
       <use xlink:href="#DejaVuSans-2e" x="147.412109"/>
       <use xlink:href="#DejaVuSans-35" x="179.199219"/>
      </g>
     </g>
    </g>
    <g id="ytick_5">
     <g id="line2d_12">
      <g>
       <use xlink:href="#m3f2a931cc3" x="90" y="152.356062" style="stroke: #000000; stroke-width: 0.8"/>
      </g>
     </g>
     <g id="text_12">
      <!-- 0.0 -->
      <g transform="translate(67.096875 156.155281) scale(0.1 -0.1)">
       <use xlink:href="#DejaVuSans-30"/>
       <use xlink:href="#DejaVuSans-2e" x="63.623047"/>
       <use xlink:href="#DejaVuSans-30" x="95.410156"/>
      </g>
     </g>
    </g>
    <g id="ytick_6">
     <g id="line2d_13">
      <g>
       <use xlink:href="#m3f2a931cc3" x="90" y="116.284483" style="stroke: #000000; stroke-width: 0.8"/>
      </g>
     </g>
     <g id="text_13">
      <!-- 2.5 -->
      <g transform="translate(67.096875 120.083701) scale(0.1 -0.1)">
       <use xlink:href="#DejaVuSans-32"/>
       <use xlink:href="#DejaVuSans-2e" x="63.623047"/>
       <use xlink:href="#DejaVuSans-35" x="95.410156"/>
      </g>
     </g>
    </g>
    <g id="ytick_7">
     <g id="line2d_14">
      <g>
       <use xlink:href="#m3f2a931cc3" x="90" y="80.212903" style="stroke: #000000; stroke-width: 0.8"/>
      </g>
     </g>
     <g id="text_14">
      <!-- 5.0 -->
      <g transform="translate(67.096875 84.012122) scale(0.1 -0.1)">
       <use xlink:href="#DejaVuSans-35"/>
       <use xlink:href="#DejaVuSans-2e" x="63.623047"/>
       <use xlink:href="#DejaVuSans-30" x="95.410156"/>
      </g>
     </g>
    </g>
    <g id="ytick_8">
     <g id="line2d_15">
      <g>
       <use xlink:href="#m3f2a931cc3" x="90" y="44.141324" style="stroke: #000000; stroke-width: 0.8"/>
      </g>
     </g>
     <g id="text_15">
      <!-- 7.5 -->
      <g transform="translate(67.096875 47.940543) scale(0.1 -0.1)">
       <use xlink:href="#DejaVuSans-37"/>
       <use xlink:href="#DejaVuSans-2e" x="63.623047"/>
       <use xlink:href="#DejaVuSans-35" x="95.410156"/>
      </g>
     </g>
    </g>
   </g>
   <g id="line2d_16">
    <defs>
     <path id="m5d9cd07f46" d="M 0 5 
C 1.326016 5 2.597899 4.473168 3.535534 3.535534 
C 4.473168 2.597899 5 1.326016 5 0 
C 5 -1.326016 4.473168 -2.597899 3.535534 -3.535534 
C 2.597899 -4.473168 1.326016 -5 0 -5 
C -1.326016 -5 -2.597899 -4.473168 -3.535534 -3.535534 
C -4.473168 -2.597899 -5 -1.326016 -5 0 
C -5 1.326016 -4.473168 2.597899 -3.535534 3.535534 
C -2.597899 4.473168 -1.326016 5 0 5 
z
" style="stroke: #000000"/>
    </defs>
    <g clip-path="url(#p0f904b5f80)">
     <use xlink:href="#m5d9cd07f46" x="306.122585" y="121.984497" style="fill: #1f77b4; stroke: #000000"/>
     <use xlink:href="#m5d9cd07f46" x="270.07534" y="72.259646" style="fill: #1f77b4; stroke: #000000"/>
     <use xlink:href="#m5d9cd07f46" x="299.212289" y="89.866839" style="fill: #1f77b4; stroke: #000000"/>
     <use xlink:href="#m5d9cd07f46" x="276.556071" y="64.356638" style="fill: #1f77b4; stroke: #000000"/>
     <use xlink:href="#m5d9cd07f46" x="277.655912" y="100.971603" style="fill: #1f77b4; stroke: #000000"/>
     <use xlink:href="#m5d9cd07f46" x="296.104878" y="92.374516" style="fill: #1f77b4; stroke: #000000"/>
     <use xlink:href="#m5d9cd07f46" x="295.758918" y="93.858926" style="fill: #1f77b4; stroke: #000000"/>
     <use xlink:href="#m5d9cd07f46" x="317.063128" y="118.501454" style="fill: #1f77b4; stroke: #000000"/>
     <use xlink:href="#m5d9cd07f46" x="285.343526" y="81.124139" style="fill: #1f77b4; stroke: #000000"/>
     <use xlink:href="#m5d9cd07f46" x="269.307119" y="93.81698" style="fill: #1f77b4; stroke: #000000"/>
     <use xlink:href="#m5d9cd07f46" x="286.737954" y="101.583714" style="fill: #1f77b4; stroke: #000000"/>
     <use xlink:href="#m5d9cd07f46" x="284.34373" y="94.317821" style="fill: #1f77b4; stroke: #000000"/>
     <use xlink:href="#m5d9cd07f46" x="306.786004" y="81.526137" style="fill: #1f77b4; stroke: #000000"/>
     <use xlink:href="#m5d9cd07f46" x="330.327957" y="108.925974" style="fill: #1f77b4; stroke: #000000"/>
     <use xlink:href="#m5d9cd07f46" x="269.769307" y="85.394145" style="fill: #1f77b4; stroke: #000000"/>
     <use xlink:href="#m5d9cd07f46" x="288.002072" y="102.278315" style="fill: #1f77b4; stroke: #000000"/>
     <use xlink:href="#m5d9cd07f46" x="292.458396" y="79.871046" style="fill: #1f77b4; stroke: #000000"/>
     <use xlink:href="#m5d9cd07f46" x="291.029265" y="80.367216" style="fill: #1f77b4; stroke: #000000"/>
     <use xlink:href="#m5d9cd07f46" x="299.659879" y="93.077514" style="fill: #1f77b4; stroke: #000000"/>
     <use xlink:href="#m5d9cd07f46" x="276.423332" y="70.699269" style="fill: #1f77b4; stroke: #000000"/>
     <use xlink:href="#m5d9cd07f46" x="287.093789" y="101.442738" style="fill: #1f77b4; stroke: #000000"/>
     <use xlink:href="#m5d9cd07f46" x="305.638095" y="75.341913" style="fill: #1f77b4; stroke: #000000"/>
     <use xlink:href="#m5d9cd07f46" x="320.687867" y="78.069761" style="fill: #1f77b4; stroke: #000000"/>
     <use xlink:href="#m5d9cd07f46" x="280.571206" y="104.257912" style="fill: #1f77b4; stroke: #000000"/>
     <use xlink:href="#m5d9cd07f46" x="311.00378" y="66.847565" style="fill: #1f77b4; stroke: #000000"/>
     <use xlink:href="#m5d9cd07f46" x="277.573623" y="94.501053" style="fill: #1f77b4; stroke: #000000"/>
     <use xlink:href="#m5d9cd07f46" x="311.043018" y="104.646369" style="fill: #1f77b4; stroke: #000000"/>
     <use xlink:href="#m5d9cd07f46" x="293.755722" y="58.472635" style="fill: #1f77b4; stroke: #000000"/>
     <use xlink:href="#m5d9cd07f46" x="306.772532" y="98.6417" style="fill: #1f77b4; stroke: #000000"/>
     <use xlink:href="#m5d9cd07f46" x="277.947926" y="88.959175" style="fill: #1f77b4; stroke: #000000"/>
     <use xlink:href="#m5d9cd07f46" x="291.186837" y="97.967418" style="fill: #1f77b4; stroke: #000000"/>
     <use xlink:href="#m5d9cd07f46" x="286.425182" y="80.312272" style="fill: #1f77b4; stroke: #000000"/>
     <use xlink:href="#m5d9cd07f46" x="295.491537" y="76.005067" style="fill: #1f77b4; stroke: #000000"/>
     <use xlink:href="#m5d9cd07f46" x="322.246524" y="99.759617" style="fill: #1f77b4; stroke: #000000"/>
    </g>
   </g>
   <g id="line2d_17">
    <defs>
     <path id="m27c77e746e" d="M 0 -5 
L -5 5 
L 5 5 
z
" style="stroke: #000000; stroke-linejoin: miter"/>
    </defs>
    <g clip-path="url(#p0f904b5f80)">
     <use xlink:href="#m27c77e746e" x="152.889056" y="221.799111" style="fill: #ff7f0e; stroke: #000000; stroke-linejoin: miter"/>
     <use xlink:href="#m27c77e746e" x="110.896708" y="216.676225" style="fill: #ff7f0e; stroke: #000000; stroke-linejoin: miter"/>
     <use xlink:href="#m27c77e746e" x="141.593443" y="198.402694" style="fill: #ff7f0e; stroke: #000000; stroke-linejoin: miter"/>
     <use xlink:href="#m27c77e746e" x="237.505332" y="273.583448" style="fill: #ff7f0e; stroke: #000000; stroke-linejoin: miter"/>
     <use xlink:href="#m27c77e746e" x="205.850477" y="269.324086" style="fill: #ff7f0e; stroke: #000000; stroke-linejoin: miter"/>
     <use xlink:href="#m27c77e746e" x="203.617426" y="274.610287" style="fill: #ff7f0e; stroke: #000000; stroke-linejoin: miter"/>
     <use xlink:href="#m27c77e746e" x="151.910811" y="218.394168" style="fill: #ff7f0e; stroke: #000000; stroke-linejoin: miter"/>
     <use xlink:href="#m27c77e746e" x="136.665154" y="232.710857" style="fill: #ff7f0e; stroke: #000000; stroke-linejoin: miter"/>
     <use xlink:href="#m27c77e746e" x="139.608241" y="193.100565" style="fill: #ff7f0e; stroke: #000000; stroke-linejoin: miter"/>
     <use xlink:href="#m27c77e746e" x="189.123242" y="278.903678" style="fill: #ff7f0e; stroke: #000000; stroke-linejoin: miter"/>
     <use xlink:href="#m27c77e746e" x="231.314935" y="297.357881" style="fill: #ff7f0e; stroke: #000000; stroke-linejoin: miter"/>
     <use xlink:href="#m27c77e746e" x="209.232824" y="266.914986" style="fill: #ff7f0e; stroke: #000000; stroke-linejoin: miter"/>
     <use xlink:href="#m27c77e746e" x="195.411101" y="260.147705" style="fill: #ff7f0e; stroke: #000000; stroke-linejoin: miter"/>
     <use xlink:href="#m27c77e746e" x="131.070057" y="208.768429" style="fill: #ff7f0e; stroke: #000000; stroke-linejoin: miter"/>
     <use xlink:href="#m27c77e746e" x="117.299351" y="206.953516" style="fill: #ff7f0e; stroke: #000000; stroke-linejoin: miter"/>
     <use xlink:href="#m27c77e746e" x="201.466562" y="266.522481" style="fill: #ff7f0e; stroke: #000000; stroke-linejoin: miter"/>
     <use xlink:href="#m27c77e746e" x="132.493504" y="208.926889" style="fill: #ff7f0e; stroke: #000000; stroke-linejoin: miter"/>
     <use xlink:href="#m27c77e746e" x="195.710047" y="274.276114" style="fill: #ff7f0e; stroke: #000000; stroke-linejoin: miter"/>
     <use xlink:href="#m27c77e746e" x="130.493762" y="218.613478" style="fill: #ff7f0e; stroke: #000000; stroke-linejoin: miter"/>
     <use xlink:href="#m27c77e746e" x="185.462283" y="305.127365" style="fill: #ff7f0e; stroke: #000000; stroke-linejoin: miter"/>
     <use xlink:href="#m27c77e746e" x="199.240745" y="271.441091" style="fill: #ff7f0e; stroke: #000000; stroke-linejoin: miter"/>
     <use xlink:href="#m27c77e746e" x="200.693101" y="286.507268" style="fill: #ff7f0e; stroke: #000000; stroke-linejoin: miter"/>
     <use xlink:href="#m27c77e746e" x="181.667332" y="284.381721" style="fill: #ff7f0e; stroke: #000000; stroke-linejoin: miter"/>
     <use xlink:href="#m27c77e746e" x="167.217734" y="204.520426" style="fill: #ff7f0e; stroke: #000000; stroke-linejoin: miter"/>
     <use xlink:href="#m27c77e746e" x="187.727526" y="271.464042" style="fill: #ff7f0e; stroke: #000000; stroke-linejoin: miter"/>
     <use xlink:href="#m27c77e746e" x="159.356886" y="206.725919" style="fill: #ff7f0e; stroke: #000000; stroke-linejoin: miter"/>
     <use xlink:href="#m27c77e746e" x="112.198433" y="204.850154" style="fill: #ff7f0e; stroke: #000000; stroke-linejoin: miter"/>
     <use xlink:href="#m27c77e746e" x="134.057452" y="218.111221" style="fill: #ff7f0e; stroke: #000000; stroke-linejoin: miter"/>
     <use xlink:href="#m27c77e746e" x="188.646572" y="271.713777" style="fill: #ff7f0e; stroke: #000000; stroke-linejoin: miter"/>
     <use xlink:href="#m27c77e746e" x="196.294311" y="271.050904" style="fill: #ff7f0e; stroke: #000000; stroke-linejoin: miter"/>
     <use xlink:href="#m27c77e746e" x="143.801925" y="228.331927" style="fill: #ff7f0e; stroke: #000000; stroke-linejoin: miter"/>
     <use xlink:href="#m27c77e746e" x="114.821434" y="201.45397" style="fill: #ff7f0e; stroke: #000000; stroke-linejoin: miter"/>
     <use xlink:href="#m27c77e746e" x="141.010479" y="207.680341" style="fill: #ff7f0e; stroke: #000000; stroke-linejoin: miter"/>
     <use xlink:href="#m27c77e746e" x="200.856081" y="268.009148" style="fill: #ff7f0e; stroke: #000000; stroke-linejoin: miter"/>
     <use xlink:href="#m27c77e746e" x="133.298237" y="212.294137" style="fill: #ff7f0e; stroke: #000000; stroke-linejoin: miter"/>
     <use xlink:href="#m27c77e746e" x="203.232022" y="293.477696" style="fill: #ff7f0e; stroke: #000000; stroke-linejoin: miter"/>
     <use xlink:href="#m27c77e746e" x="192.575152" y="261.073607" style="fill: #ff7f0e; stroke: #000000; stroke-linejoin: miter"/>
     <use xlink:href="#m27c77e746e" x="183.798165" y="258.106714" style="fill: #ff7f0e; stroke: #000000; stroke-linejoin: miter"/>
     <use xlink:href="#m27c77e746e" x="200.228032" y="272.516716" style="fill: #ff7f0e; stroke: #000000; stroke-linejoin: miter"/>
     <use xlink:href="#m27c77e746e" x="126.006879" y="199.325825" style="fill: #ff7f0e; stroke: #000000; stroke-linejoin: miter"/>
     <use xlink:href="#m27c77e746e" x="160.729047" y="181.014886" style="fill: #ff7f0e; stroke: #000000; stroke-linejoin: miter"/>
     <use xlink:href="#m27c77e746e" x="140.795256" y="203.480988" style="fill: #ff7f0e; stroke: #000000; stroke-linejoin: miter"/>
     <use xlink:href="#m27c77e746e" x="179.287032" y="256.988766" style="fill: #ff7f0e; stroke: #000000; stroke-linejoin: miter"/>
     <use xlink:href="#m27c77e746e" x="200.374226" y="251.336508" style="fill: #ff7f0e; stroke: #000000; stroke-linejoin: miter"/>
     <use xlink:href="#m27c77e746e" x="136.923286" y="220.581994" style="fill: #ff7f0e; stroke: #000000; stroke-linejoin: miter"/>
     <use xlink:href="#m27c77e746e" x="103.308407" y="191.561317" style="fill: #ff7f0e; stroke: #000000; stroke-linejoin: miter"/>
     <use xlink:href="#m27c77e746e" x="215.560659" y="274.141447" style="fill: #ff7f0e; stroke: #000000; stroke-linejoin: miter"/>
     <use xlink:href="#m27c77e746e" x="167.815839" y="265.471923" style="fill: #ff7f0e; stroke: #000000; stroke-linejoin: miter"/>
     <use xlink:href="#m27c77e746e" x="145.139439" y="208.281561" style="fill: #ff7f0e; stroke: #000000; stroke-linejoin: miter"/>
     <use xlink:href="#m27c77e746e" x="144.772688" y="200.832947" style="fill: #ff7f0e; stroke: #000000; stroke-linejoin: miter"/>
     <use xlink:href="#m27c77e746e" x="150.952796" y="223.158067" style="fill: #ff7f0e; stroke: #000000; stroke-linejoin: miter"/>
     <use xlink:href="#m27c77e746e" x="202.191864" y="263.931891" style="fill: #ff7f0e; stroke: #000000; stroke-linejoin: miter"/>
     <use xlink:href="#m27c77e746e" x="143.161829" y="238.575069" style="fill: #ff7f0e; stroke: #000000; stroke-linejoin: miter"/>
     <use xlink:href="#m27c77e746e" x="207.079387" y="259.168575" style="fill: #ff7f0e; stroke: #000000; stroke-linejoin: miter"/>
     <use xlink:href="#m27c77e746e" x="191.94897" y="273.261393" style="fill: #ff7f0e; stroke: #000000; stroke-linejoin: miter"/>
     <use xlink:href="#m27c77e746e" x="129.176504" y="191.729502" style="fill: #ff7f0e; stroke: #000000; stroke-linejoin: miter"/>
     <use xlink:href="#m27c77e746e" x="115.385973" y="196.940581" style="fill: #ff7f0e; stroke: #000000; stroke-linejoin: miter"/>
     <use xlink:href="#m27c77e746e" x="140.308931" y="196.755554" style="fill: #ff7f0e; stroke: #000000; stroke-linejoin: miter"/>
     <use xlink:href="#m27c77e746e" x="226.070352" y="253.96496" style="fill: #ff7f0e; stroke: #000000; stroke-linejoin: miter"/>
     <use xlink:href="#m27c77e746e" x="131.760366" y="197.450931" style="fill: #ff7f0e; stroke: #000000; stroke-linejoin: miter"/>
     <use xlink:href="#m27c77e746e" x="212.423188" y="264.664714" style="fill: #ff7f0e; stroke: #000000; stroke-linejoin: miter"/>
     <use xlink:href="#m27c77e746e" x="125.077997" y="203.949744" style="fill: #ff7f0e; stroke: #000000; stroke-linejoin: miter"/>
     <use xlink:href="#m27c77e746e" x="157.935914" y="203.497597" style="fill: #ff7f0e; stroke: #000000; stroke-linejoin: miter"/>
     <use xlink:href="#m27c77e746e" x="210.195221" y="238.440864" style="fill: #ff7f0e; stroke: #000000; stroke-linejoin: miter"/>
     <use xlink:href="#m27c77e746e" x="191.467499" y="286.185183" style="fill: #ff7f0e; stroke: #000000; stroke-linejoin: miter"/>
     <use xlink:href="#m27c77e746e" x="206.017154" y="254.926118" style="fill: #ff7f0e; stroke: #000000; stroke-linejoin: miter"/>
    </g>
   </g>
   <g id="patch_3">
    <path d="M 90 320.4 
L 90 43.2 
" style="fill: none; stroke: #000000; stroke-width: 0.8; stroke-linejoin: miter; stroke-linecap: square"/>
   </g>
   <g id="patch_4">
    <path d="M 343.636364 320.4 
L 343.636364 43.2 
" style="fill: none; stroke: #000000; stroke-width: 0.8; stroke-linejoin: miter; stroke-linecap: square"/>
   </g>
   <g id="patch_5">
    <path d="M 90 320.4 
L 343.636364 320.4 
" style="fill: none; stroke: #000000; stroke-width: 0.8; stroke-linejoin: miter; stroke-linecap: square"/>
   </g>
   <g id="patch_6">
    <path d="M 90 43.2 
L 343.636364 43.2 
" style="fill: none; stroke: #000000; stroke-width: 0.8; stroke-linejoin: miter; stroke-linecap: square"/>
   </g>
  </g>
  <g id="axes_2">
   <g id="patch_7">
    <path d="M 394.363636 320.4 
L 648 320.4 
L 648 43.2 
L 394.363636 43.2 
z
" style="fill: #ffffff"/>
   </g>
   <g id="matplotlib.axis_3">
    <g id="xtick_8">
     <g id="line2d_18">
      <g>
       <use xlink:href="#m1fa0b45a76" x="405.026189" y="320.4" style="stroke: #000000; stroke-width: 0.8"/>
      </g>
     </g>
     <g id="text_16">
      <!-- −12 -->
      <g transform="translate(394.473845 334.998438) scale(0.1 -0.1)">
       <use xlink:href="#DejaVuSans-2212"/>
       <use xlink:href="#DejaVuSans-31" x="83.789062"/>
       <use xlink:href="#DejaVuSans-32" x="147.412109"/>
      </g>
     </g>
    </g>
    <g id="xtick_9">
     <g id="line2d_19">
      <g>
       <use xlink:href="#m1fa0b45a76" x="441.696334" y="320.4" style="stroke: #000000; stroke-width: 0.8"/>
      </g>
     </g>
     <g id="text_17">
      <!-- −10 -->
      <g transform="translate(431.14399 334.998438) scale(0.1 -0.1)">
       <use xlink:href="#DejaVuSans-2212"/>
       <use xlink:href="#DejaVuSans-31" x="83.789062"/>
       <use xlink:href="#DejaVuSans-30" x="147.412109"/>
      </g>
     </g>
    </g>
    <g id="xtick_10">
     <g id="line2d_20">
      <g>
       <use xlink:href="#m1fa0b45a76" x="478.36648" y="320.4" style="stroke: #000000; stroke-width: 0.8"/>
      </g>
     </g>
     <g id="text_18">
      <!-- −8 -->
      <g transform="translate(470.995386 334.998438) scale(0.1 -0.1)">
       <use xlink:href="#DejaVuSans-2212"/>
       <use xlink:href="#DejaVuSans-38" x="83.789062"/>
      </g>
     </g>
    </g>
    <g id="xtick_11">
     <g id="line2d_21">
      <g>
       <use xlink:href="#m1fa0b45a76" x="515.036625" y="320.4" style="stroke: #000000; stroke-width: 0.8"/>
      </g>
     </g>
     <g id="text_19">
      <!-- −6 -->
      <g transform="translate(507.665531 334.998438) scale(0.1 -0.1)">
       <use xlink:href="#DejaVuSans-2212"/>
       <use xlink:href="#DejaVuSans-36" x="83.789062"/>
      </g>
     </g>
    </g>
    <g id="xtick_12">
     <g id="line2d_22">
      <g>
       <use xlink:href="#m1fa0b45a76" x="551.70677" y="320.4" style="stroke: #000000; stroke-width: 0.8"/>
      </g>
     </g>
     <g id="text_20">
      <!-- −4 -->
      <g transform="translate(544.335676 334.998438) scale(0.1 -0.1)">
       <use xlink:href="#DejaVuSans-2212"/>
       <use xlink:href="#DejaVuSans-34" x="83.789062"/>
      </g>
     </g>
    </g>
    <g id="xtick_13">
     <g id="line2d_23">
      <g>
       <use xlink:href="#m1fa0b45a76" x="588.376916" y="320.4" style="stroke: #000000; stroke-width: 0.8"/>
      </g>
     </g>
     <g id="text_21">
      <!-- −2 -->
      <g transform="translate(581.005822 334.998438) scale(0.1 -0.1)">
       <use xlink:href="#DejaVuSans-2212"/>
       <use xlink:href="#DejaVuSans-32" x="83.789062"/>
      </g>
     </g>
    </g>
    <g id="xtick_14">
     <g id="line2d_24">
      <g>
       <use xlink:href="#m1fa0b45a76" x="625.047061" y="320.4" style="stroke: #000000; stroke-width: 0.8"/>
      </g>
     </g>
     <g id="text_22">
      <!-- 0 -->
      <g transform="translate(621.865811 334.998438) scale(0.1 -0.1)">
       <use xlink:href="#DejaVuSans-30"/>
      </g>
     </g>
    </g>
   </g>
   <g id="matplotlib.axis_4">
    <g id="ytick_9">
     <g id="line2d_25">
      <g>
       <use xlink:href="#m3f2a931cc3" x="394.363636" y="296.64238" style="stroke: #000000; stroke-width: 0.8"/>
      </g>
     </g>
     <g id="text_23">
      <!-- −10.0 -->
      <g transform="translate(356.718324 300.441598) scale(0.1 -0.1)">
       <use xlink:href="#DejaVuSans-2212"/>
       <use xlink:href="#DejaVuSans-31" x="83.789062"/>
       <use xlink:href="#DejaVuSans-30" x="147.412109"/>
       <use xlink:href="#DejaVuSans-2e" x="211.035156"/>
       <use xlink:href="#DejaVuSans-30" x="242.822266"/>
      </g>
     </g>
    </g>
    <g id="ytick_10">
     <g id="line2d_26">
      <g>
       <use xlink:href="#m3f2a931cc3" x="394.363636" y="260.5708" style="stroke: #000000; stroke-width: 0.8"/>
      </g>
     </g>
     <g id="text_24">
      <!-- −7.5 -->
      <g transform="translate(363.080824 264.370019) scale(0.1 -0.1)">
       <use xlink:href="#DejaVuSans-2212"/>
       <use xlink:href="#DejaVuSans-37" x="83.789062"/>
       <use xlink:href="#DejaVuSans-2e" x="147.412109"/>
       <use xlink:href="#DejaVuSans-35" x="179.199219"/>
      </g>
     </g>
    </g>
    <g id="ytick_11">
     <g id="line2d_27">
      <g>
       <use xlink:href="#m3f2a931cc3" x="394.363636" y="224.499221" style="stroke: #000000; stroke-width: 0.8"/>
      </g>
     </g>
     <g id="text_25">
      <!-- −5.0 -->
      <g transform="translate(363.080824 228.29844) scale(0.1 -0.1)">
       <use xlink:href="#DejaVuSans-2212"/>
       <use xlink:href="#DejaVuSans-35" x="83.789062"/>
       <use xlink:href="#DejaVuSans-2e" x="147.412109"/>
       <use xlink:href="#DejaVuSans-30" x="179.199219"/>
      </g>
     </g>
    </g>
    <g id="ytick_12">
     <g id="line2d_28">
      <g>
       <use xlink:href="#m3f2a931cc3" x="394.363636" y="188.427641" style="stroke: #000000; stroke-width: 0.8"/>
      </g>
     </g>
     <g id="text_26">
      <!-- −2.5 -->
      <g transform="translate(363.080824 192.22686) scale(0.1 -0.1)">
       <use xlink:href="#DejaVuSans-2212"/>
       <use xlink:href="#DejaVuSans-32" x="83.789062"/>
       <use xlink:href="#DejaVuSans-2e" x="147.412109"/>
       <use xlink:href="#DejaVuSans-35" x="179.199219"/>
      </g>
     </g>
    </g>
    <g id="ytick_13">
     <g id="line2d_29">
      <g>
       <use xlink:href="#m3f2a931cc3" x="394.363636" y="152.356062" style="stroke: #000000; stroke-width: 0.8"/>
      </g>
     </g>
     <g id="text_27">
      <!-- 0.0 -->
      <g transform="translate(371.460511 156.155281) scale(0.1 -0.1)">
       <use xlink:href="#DejaVuSans-30"/>
       <use xlink:href="#DejaVuSans-2e" x="63.623047"/>
       <use xlink:href="#DejaVuSans-30" x="95.410156"/>
      </g>
     </g>
    </g>
    <g id="ytick_14">
     <g id="line2d_30">
      <g>
       <use xlink:href="#m3f2a931cc3" x="394.363636" y="116.284483" style="stroke: #000000; stroke-width: 0.8"/>
      </g>
     </g>
     <g id="text_28">
      <!-- 2.5 -->
      <g transform="translate(371.460511 120.083701) scale(0.1 -0.1)">
       <use xlink:href="#DejaVuSans-32"/>
       <use xlink:href="#DejaVuSans-2e" x="63.623047"/>
       <use xlink:href="#DejaVuSans-35" x="95.410156"/>
      </g>
     </g>
    </g>
    <g id="ytick_15">
     <g id="line2d_31">
      <g>
       <use xlink:href="#m3f2a931cc3" x="394.363636" y="80.212903" style="stroke: #000000; stroke-width: 0.8"/>
      </g>
     </g>
     <g id="text_29">
      <!-- 5.0 -->
      <g transform="translate(371.460511 84.012122) scale(0.1 -0.1)">
       <use xlink:href="#DejaVuSans-35"/>
       <use xlink:href="#DejaVuSans-2e" x="63.623047"/>
       <use xlink:href="#DejaVuSans-30" x="95.410156"/>
      </g>
     </g>
    </g>
    <g id="ytick_16">
     <g id="line2d_32">
      <g>
       <use xlink:href="#m3f2a931cc3" x="394.363636" y="44.141324" style="stroke: #000000; stroke-width: 0.8"/>
      </g>
     </g>
     <g id="text_30">
      <!-- 7.5 -->
      <g transform="translate(371.460511 47.940543) scale(0.1 -0.1)">
       <use xlink:href="#DejaVuSans-37"/>
       <use xlink:href="#DejaVuSans-2e" x="63.623047"/>
       <use xlink:href="#DejaVuSans-35" x="95.410156"/>
      </g>
     </g>
    </g>
   </g>
   <g id="line2d_33">
    <g clip-path="url(#p8e1c84d8af)">
     <use xlink:href="#m5d9cd07f46" x="610.486221" y="121.984497" style="fill: #1f77b4; stroke: #000000"/>
     <use xlink:href="#m5d9cd07f46" x="603.575925" y="89.866839" style="fill: #1f77b4; stroke: #000000"/>
     <use xlink:href="#m5d9cd07f46" x="582.019548" y="100.971603" style="fill: #1f77b4; stroke: #000000"/>
     <use xlink:href="#m5d9cd07f46" x="600.468514" y="92.374516" style="fill: #1f77b4; stroke: #000000"/>
     <use xlink:href="#m5d9cd07f46" x="600.122554" y="93.858926" style="fill: #1f77b4; stroke: #000000"/>
     <use xlink:href="#m5d9cd07f46" x="621.426765" y="118.501454" style="fill: #1f77b4; stroke: #000000"/>
     <use xlink:href="#m5d9cd07f46" x="591.101591" y="101.583714" style="fill: #1f77b4; stroke: #000000"/>
     <use xlink:href="#m5d9cd07f46" x="588.707367" y="94.317821" style="fill: #1f77b4; stroke: #000000"/>
     <use xlink:href="#m5d9cd07f46" x="634.691593" y="108.925974" style="fill: #1f77b4; stroke: #000000"/>
     <use xlink:href="#m5d9cd07f46" x="592.365708" y="102.278315" style="fill: #1f77b4; stroke: #000000"/>
     <use xlink:href="#m5d9cd07f46" x="604.023515" y="93.077514" style="fill: #1f77b4; stroke: #000000"/>
     <use xlink:href="#m5d9cd07f46" x="591.457426" y="101.442738" style="fill: #1f77b4; stroke: #000000"/>
     <use xlink:href="#m5d9cd07f46" x="584.934842" y="104.257912" style="fill: #1f77b4; stroke: #000000"/>
     <use xlink:href="#m5d9cd07f46" x="581.937259" y="94.501053" style="fill: #1f77b4; stroke: #000000"/>
     <use xlink:href="#m5d9cd07f46" x="615.406655" y="104.646369" style="fill: #1f77b4; stroke: #000000"/>
     <use xlink:href="#m5d9cd07f46" x="611.136169" y="98.6417" style="fill: #1f77b4; stroke: #000000"/>
     <use xlink:href="#m5d9cd07f46" x="595.550473" y="97.967418" style="fill: #1f77b4; stroke: #000000"/>
     <use xlink:href="#m5d9cd07f46" x="626.61016" y="99.759617" style="fill: #1f77b4; stroke: #000000"/>
    </g>
   </g>
   <g id="line2d_34">
    <g clip-path="url(#p8e1c84d8af)">
     <use xlink:href="#m27c77e746e" x="513.59646" y="266.914986" style="fill: #ff7f0e; stroke: #000000; stroke-linejoin: miter"/>
     <use xlink:href="#m27c77e746e" x="499.774737" y="260.147705" style="fill: #ff7f0e; stroke: #000000; stroke-linejoin: miter"/>
     <use xlink:href="#m27c77e746e" x="505.830198" y="266.522481" style="fill: #ff7f0e; stroke: #000000; stroke-linejoin: miter"/>
     <use xlink:href="#m27c77e746e" x="505.219718" y="268.009148" style="fill: #ff7f0e; stroke: #000000; stroke-linejoin: miter"/>
     <use xlink:href="#m27c77e746e" x="496.938789" y="261.073607" style="fill: #ff7f0e; stroke: #000000; stroke-linejoin: miter"/>
     <use xlink:href="#m27c77e746e" x="488.161802" y="258.106714" style="fill: #ff7f0e; stroke: #000000; stroke-linejoin: miter"/>
     <use xlink:href="#m27c77e746e" x="483.650668" y="256.988766" style="fill: #ff7f0e; stroke: #000000; stroke-linejoin: miter"/>
     <use xlink:href="#m27c77e746e" x="504.737863" y="251.336508" style="fill: #ff7f0e; stroke: #000000; stroke-linejoin: miter"/>
     <use xlink:href="#m27c77e746e" x="472.179475" y="265.471923" style="fill: #ff7f0e; stroke: #000000; stroke-linejoin: miter"/>
     <use xlink:href="#m27c77e746e" x="506.5555" y="263.931891" style="fill: #ff7f0e; stroke: #000000; stroke-linejoin: miter"/>
     <use xlink:href="#m27c77e746e" x="511.443023" y="259.168575" style="fill: #ff7f0e; stroke: #000000; stroke-linejoin: miter"/>
     <use xlink:href="#m27c77e746e" x="530.433988" y="253.96496" style="fill: #ff7f0e; stroke: #000000; stroke-linejoin: miter"/>
     <use xlink:href="#m27c77e746e" x="516.786825" y="264.664714" style="fill: #ff7f0e; stroke: #000000; stroke-linejoin: miter"/>
     <use xlink:href="#m27c77e746e" x="514.558857" y="238.440864" style="fill: #ff7f0e; stroke: #000000; stroke-linejoin: miter"/>
     <use xlink:href="#m27c77e746e" x="510.38079" y="254.926118" style="fill: #ff7f0e; stroke: #000000; stroke-linejoin: miter"/>
    </g>
   </g>
   <g id="line2d_35">
    <defs>
     <path id="m99dbb5604b" d="M -0 5 
L 5 -5 
L -5 -5 
z
" style="stroke: #808080; stroke-linejoin: miter"/>
    </defs>
    <g clip-path="url(#p8e1c84d8af)">
     <use xlink:href="#m99dbb5604b" x="457.252693" y="221.799111" style="fill: #2ca02c; stroke: #808080; stroke-linejoin: miter"/>
     <use xlink:href="#m99dbb5604b" x="415.260344" y="216.676225" style="fill: #2ca02c; stroke: #808080; stroke-linejoin: miter"/>
     <use xlink:href="#m99dbb5604b" x="445.957079" y="198.402694" style="fill: #2ca02c; stroke: #808080; stroke-linejoin: miter"/>
     <use xlink:href="#m99dbb5604b" x="456.274447" y="218.394168" style="fill: #2ca02c; stroke: #808080; stroke-linejoin: miter"/>
     <use xlink:href="#m99dbb5604b" x="441.028791" y="232.710857" style="fill: #2ca02c; stroke: #808080; stroke-linejoin: miter"/>
     <use xlink:href="#m99dbb5604b" x="443.971877" y="193.100565" style="fill: #2ca02c; stroke: #808080; stroke-linejoin: miter"/>
     <use xlink:href="#m99dbb5604b" x="435.433693" y="208.768429" style="fill: #2ca02c; stroke: #808080; stroke-linejoin: miter"/>
     <use xlink:href="#m99dbb5604b" x="421.662987" y="206.953516" style="fill: #2ca02c; stroke: #808080; stroke-linejoin: miter"/>
     <use xlink:href="#m99dbb5604b" x="436.85714" y="208.926889" style="fill: #2ca02c; stroke: #808080; stroke-linejoin: miter"/>
     <use xlink:href="#m99dbb5604b" x="434.857399" y="218.613478" style="fill: #2ca02c; stroke: #808080; stroke-linejoin: miter"/>
     <use xlink:href="#m99dbb5604b" x="471.58137" y="204.520426" style="fill: #2ca02c; stroke: #808080; stroke-linejoin: miter"/>
     <use xlink:href="#m99dbb5604b" x="463.720522" y="206.725919" style="fill: #2ca02c; stroke: #808080; stroke-linejoin: miter"/>
     <use xlink:href="#m99dbb5604b" x="416.56207" y="204.850154" style="fill: #2ca02c; stroke: #808080; stroke-linejoin: miter"/>
     <use xlink:href="#m99dbb5604b" x="438.421089" y="218.111221" style="fill: #2ca02c; stroke: #808080; stroke-linejoin: miter"/>
     <use xlink:href="#m99dbb5604b" x="448.165562" y="228.331927" style="fill: #2ca02c; stroke: #808080; stroke-linejoin: miter"/>
     <use xlink:href="#m99dbb5604b" x="419.18507" y="201.45397" style="fill: #2ca02c; stroke: #808080; stroke-linejoin: miter"/>
     <use xlink:href="#m99dbb5604b" x="445.374115" y="207.680341" style="fill: #2ca02c; stroke: #808080; stroke-linejoin: miter"/>
     <use xlink:href="#m99dbb5604b" x="437.661873" y="212.294137" style="fill: #2ca02c; stroke: #808080; stroke-linejoin: miter"/>
     <use xlink:href="#m99dbb5604b" x="430.370515" y="199.325825" style="fill: #2ca02c; stroke: #808080; stroke-linejoin: miter"/>
     <use xlink:href="#m99dbb5604b" x="465.092683" y="181.014886" style="fill: #2ca02c; stroke: #808080; stroke-linejoin: miter"/>
     <use xlink:href="#m99dbb5604b" x="445.158892" y="203.480988" style="fill: #2ca02c; stroke: #808080; stroke-linejoin: miter"/>
     <use xlink:href="#m99dbb5604b" x="441.286922" y="220.581994" style="fill: #2ca02c; stroke: #808080; stroke-linejoin: miter"/>
     <use xlink:href="#m99dbb5604b" x="407.672043" y="191.561317" style="fill: #2ca02c; stroke: #808080; stroke-linejoin: miter"/>
     <use xlink:href="#m99dbb5604b" x="449.503075" y="208.281561" style="fill: #2ca02c; stroke: #808080; stroke-linejoin: miter"/>
     <use xlink:href="#m99dbb5604b" x="449.136324" y="200.832947" style="fill: #2ca02c; stroke: #808080; stroke-linejoin: miter"/>
     <use xlink:href="#m99dbb5604b" x="455.316432" y="223.158067" style="fill: #2ca02c; stroke: #808080; stroke-linejoin: miter"/>
     <use xlink:href="#m99dbb5604b" x="447.525465" y="238.575069" style="fill: #2ca02c; stroke: #808080; stroke-linejoin: miter"/>
     <use xlink:href="#m99dbb5604b" x="433.540141" y="191.729502" style="fill: #2ca02c; stroke: #808080; stroke-linejoin: miter"/>
     <use xlink:href="#m99dbb5604b" x="419.749609" y="196.940581" style="fill: #2ca02c; stroke: #808080; stroke-linejoin: miter"/>
     <use xlink:href="#m99dbb5604b" x="444.672567" y="196.755554" style="fill: #2ca02c; stroke: #808080; stroke-linejoin: miter"/>
     <use xlink:href="#m99dbb5604b" x="436.124003" y="197.450931" style="fill: #2ca02c; stroke: #808080; stroke-linejoin: miter"/>
     <use xlink:href="#m99dbb5604b" x="429.441634" y="203.949744" style="fill: #2ca02c; stroke: #808080; stroke-linejoin: miter"/>
     <use xlink:href="#m99dbb5604b" x="462.299551" y="203.497597" style="fill: #2ca02c; stroke: #808080; stroke-linejoin: miter"/>
    </g>
   </g>
   <g id="line2d_36">
    <defs>
     <path id="m9cb02bc79e" d="M 0 7.071068 
L 7.071068 0 
L 0 -7.071068 
L -7.071068 0 
z
" style="stroke: #808080; stroke-linejoin: miter"/>
    </defs>
    <g clip-path="url(#p8e1c84d8af)">
     <use xlink:href="#m9cb02bc79e" x="541.868968" y="273.583448" style="fill: #d62728; stroke: #808080; stroke-linejoin: miter"/>
     <use xlink:href="#m9cb02bc79e" x="510.214113" y="269.324086" style="fill: #d62728; stroke: #808080; stroke-linejoin: miter"/>
     <use xlink:href="#m9cb02bc79e" x="507.981063" y="274.610287" style="fill: #d62728; stroke: #808080; stroke-linejoin: miter"/>
     <use xlink:href="#m9cb02bc79e" x="493.486878" y="278.903678" style="fill: #d62728; stroke: #808080; stroke-linejoin: miter"/>
     <use xlink:href="#m9cb02bc79e" x="535.678571" y="297.357881" style="fill: #d62728; stroke: #808080; stroke-linejoin: miter"/>
     <use xlink:href="#m9cb02bc79e" x="500.073683" y="274.276114" style="fill: #d62728; stroke: #808080; stroke-linejoin: miter"/>
     <use xlink:href="#m9cb02bc79e" x="489.825919" y="305.127365" style="fill: #d62728; stroke: #808080; stroke-linejoin: miter"/>
     <use xlink:href="#m9cb02bc79e" x="503.604382" y="271.441091" style="fill: #d62728; stroke: #808080; stroke-linejoin: miter"/>
     <use xlink:href="#m9cb02bc79e" x="505.056738" y="286.507268" style="fill: #d62728; stroke: #808080; stroke-linejoin: miter"/>
     <use xlink:href="#m9cb02bc79e" x="486.030968" y="284.381721" style="fill: #d62728; stroke: #808080; stroke-linejoin: miter"/>
     <use xlink:href="#m9cb02bc79e" x="492.091162" y="271.464042" style="fill: #d62728; stroke: #808080; stroke-linejoin: miter"/>
     <use xlink:href="#m9cb02bc79e" x="493.010208" y="271.713777" style="fill: #d62728; stroke: #808080; stroke-linejoin: miter"/>
     <use xlink:href="#m9cb02bc79e" x="500.657947" y="271.050904" style="fill: #d62728; stroke: #808080; stroke-linejoin: miter"/>
     <use xlink:href="#m9cb02bc79e" x="507.595659" y="293.477696" style="fill: #d62728; stroke: #808080; stroke-linejoin: miter"/>
     <use xlink:href="#m9cb02bc79e" x="504.591668" y="272.516716" style="fill: #d62728; stroke: #808080; stroke-linejoin: miter"/>
     <use xlink:href="#m9cb02bc79e" x="519.924296" y="274.141447" style="fill: #d62728; stroke: #808080; stroke-linejoin: miter"/>
     <use xlink:href="#m9cb02bc79e" x="496.312607" y="273.261393" style="fill: #d62728; stroke: #808080; stroke-linejoin: miter"/>
     <use xlink:href="#m9cb02bc79e" x="495.831135" y="286.185183" style="fill: #d62728; stroke: #808080; stroke-linejoin: miter"/>
    </g>
   </g>
   <g id="line2d_37">
    <defs>
     <path id="m4b8d80da95" d="M -5 5 
L 5 5 
L 5 -5 
L -5 -5 
z
" style="stroke: #000000; stroke-linejoin: miter"/>
    </defs>
    <g clip-path="url(#p8e1c84d8af)">
     <use xlink:href="#m4b8d80da95" x="574.438977" y="72.259646" style="fill: #9467bd; stroke: #000000; stroke-linejoin: miter"/>
     <use xlink:href="#m4b8d80da95" x="580.919708" y="64.356638" style="fill: #9467bd; stroke: #000000; stroke-linejoin: miter"/>
     <use xlink:href="#m4b8d80da95" x="589.707162" y="81.124139" style="fill: #9467bd; stroke: #000000; stroke-linejoin: miter"/>
     <use xlink:href="#m4b8d80da95" x="573.670755" y="93.81698" style="fill: #9467bd; stroke: #000000; stroke-linejoin: miter"/>
     <use xlink:href="#m4b8d80da95" x="611.149641" y="81.526137" style="fill: #9467bd; stroke: #000000; stroke-linejoin: miter"/>
     <use xlink:href="#m4b8d80da95" x="574.132943" y="85.394145" style="fill: #9467bd; stroke: #000000; stroke-linejoin: miter"/>
     <use xlink:href="#m4b8d80da95" x="596.822033" y="79.871046" style="fill: #9467bd; stroke: #000000; stroke-linejoin: miter"/>
     <use xlink:href="#m4b8d80da95" x="595.392901" y="80.367216" style="fill: #9467bd; stroke: #000000; stroke-linejoin: miter"/>
     <use xlink:href="#m4b8d80da95" x="580.786968" y="70.699269" style="fill: #9467bd; stroke: #000000; stroke-linejoin: miter"/>
     <use xlink:href="#m4b8d80da95" x="610.001731" y="75.341913" style="fill: #9467bd; stroke: #000000; stroke-linejoin: miter"/>
     <use xlink:href="#m4b8d80da95" x="625.051503" y="78.069761" style="fill: #9467bd; stroke: #000000; stroke-linejoin: miter"/>
     <use xlink:href="#m4b8d80da95" x="615.367416" y="66.847565" style="fill: #9467bd; stroke: #000000; stroke-linejoin: miter"/>
     <use xlink:href="#m4b8d80da95" x="598.119359" y="58.472635" style="fill: #9467bd; stroke: #000000; stroke-linejoin: miter"/>
     <use xlink:href="#m4b8d80da95" x="582.311563" y="88.959175" style="fill: #9467bd; stroke: #000000; stroke-linejoin: miter"/>
     <use xlink:href="#m4b8d80da95" x="590.788818" y="80.312272" style="fill: #9467bd; stroke: #000000; stroke-linejoin: miter"/>
     <use xlink:href="#m4b8d80da95" x="599.855174" y="76.005067" style="fill: #9467bd; stroke: #000000; stroke-linejoin: miter"/>
    </g>
   </g>
   <g id="patch_8">
    <path d="M 394.363636 320.4 
L 394.363636 43.2 
" style="fill: none; stroke: #000000; stroke-width: 0.8; stroke-linejoin: miter; stroke-linecap: square"/>
   </g>
   <g id="patch_9">
    <path d="M 648 320.4 
L 648 43.2 
" style="fill: none; stroke: #000000; stroke-width: 0.8; stroke-linejoin: miter; stroke-linecap: square"/>
   </g>
   <g id="patch_10">
    <path d="M 394.363636 320.4 
L 648 320.4 
" style="fill: none; stroke: #000000; stroke-width: 0.8; stroke-linejoin: miter; stroke-linecap: square"/>
   </g>
   <g id="patch_11">
    <path d="M 394.363636 43.2 
L 648 43.2 
" style="fill: none; stroke: #000000; stroke-width: 0.8; stroke-linejoin: miter; stroke-linecap: square"/>
   </g>
  </g>
 </g>
 <defs>
  <clipPath id="p0f904b5f80">
   <rect x="90" y="43.2" width="253.636364" height="277.2"/>
  </clipPath>
  <clipPath id="p8e1c84d8af">
   <rect x="394.363636" y="43.2" width="253.636364" height="277.2"/>
  </clipPath>
 </defs>
</svg>
