<?xml version="1.0" encoding="utf-8" standalone="no"?>
<!DOCTYPE svg PUBLIC "-//W3C//DTD SVG 1.1//EN"
  "http://www.w3.org/Graphics/SVG/1.1/DTD/svg11.dtd">
<svg xmlns:xlink="http://www.w3.org/1999/xlink" width="460.8pt" height="345.6pt" viewBox="0 0 460.8 345.6" xmlns="http://www.w3.org/2000/svg" version="1.1">
 <metadata>
  <rdf:RDF xmlns:dc="http://purl.org/dc/elements/1.1/" xmlns:cc="http://creativecommons.org/ns#" xmlns:rdf="http://www.w3.org/1999/02/22-rdf-syntax-ns#">
   <cc:Work>
    <dc:type rdf:resource="http://purl.org/dc/dcmitype/StillImage"/>
    <dc:date>2025-12-03T18:53:16.249110</dc:date>
    <dc:format>image/svg+xml</dc:format>
    <dc:creator>
     <cc:Agent>
      <dc:title>Matplotlib v3.9.2, https://matplotlib.org/</dc:title>
     </cc:Agent>
    </dc:creator>
   </cc:Work>
  </rdf:RDF>
 </metadata>
 <defs>
  <style type="text/css">*{stroke-linejoin: round; stroke-linecap: butt}</style>
 </defs>
 <g id="figure_1">
  <g id="patch_1">
   <path d="M 0 345.6 
L 460.8 345.6 
L 460.8 0 
L 0 0 
z
" style="fill: #ffffff"/>
  </g>
  <g id="axes_1">
   <g id="patch_2">
    <path d="M 57.6 307.584 
L 414.72 307.584 
L 414.72 41.472 
L 57.6 41.472 
z
" style="fill: #ffffff"/>
   </g>
   <g id="PathCollection_1">
    <defs>
     <path id="C0_0_1c7fa7fc19" d="M 0 3.872983 
C 1.027127 3.872983 2.012324 3.464901 2.738613 2.738613 
C 3.464901 2.012324 3.872983 1.027127 3.872983 -0 
C 3.872983 -1.027127 3.464901 -2.012324 2.738613 -2.738613 
C 2.012324 -3.464901 1.027127 -3.872983 0 -3.872983 
C -1.027127 -3.872983 -2.012324 -3.464901 -2.738613 -2.738613 
C -3.464901 -2.012324 -3.872983 -1.027127 -3.872983 0 
C -3.872983 1.027127 -3.464901 2.012324 -2.738613 2.738613 
C -2.012324 3.464901 -1.027127 3.872983 0 3.872983 
z
"/>
    </defs>
    <g clip-path="url(#pe7ad265513)">
     <use xlink:href="#C0_0_1c7fa7fc19" x="272.215367" y="134.835685" style="fill: #0000aa; stroke: #0000aa"/>
    </g>
    <g clip-path="url(#pe7ad265513)">
     <use xlink:href="#C0_0_1c7fa7fc19" x="356.454937" y="266.190177" style="fill: #0000aa; stroke: #0000aa"/>
    </g>
    <g clip-path="url(#pe7ad265513)">
     <use xlink:href="#C0_0_1c7fa7fc19" x="184.163646" y="170.959786" style="fill: #ff2020; stroke: #ff2020"/>
    </g>
    <g clip-path="url(#pe7ad265513)">
     <use xlink:href="#C0_0_1c7fa7fc19" x="79.042566" y="221.837349" style="fill: #ff2020; stroke: #ff2020"/>
    </g>
    <g clip-path="url(#pe7ad265513)">
     <use xlink:href="#C0_0_1c7fa7fc19" x="371.999184" y="235.7176" style="fill: #0000aa; stroke: #0000aa"/>
    </g>
    <g clip-path="url(#pe7ad265513)">
     <use xlink:href="#C0_0_1c7fa7fc19" x="384.132252" y="217.020828" style="fill: #0000aa; stroke: #0000aa"/>
    </g>
    <g clip-path="url(#pe7ad265513)">
     <use xlink:href="#C0_0_1c7fa7fc19" x="288.816577" y="180.246595" style="fill: #0000aa; stroke: #0000aa"/>
    </g>
    <g clip-path="url(#pe7ad265513)">
     <use xlink:href="#C0_0_1c7fa7fc19" x="279.694091" y="282.151058" style="fill: #0000aa; stroke: #0000aa"/>
    </g>
    <g clip-path="url(#pe7ad265513)">
     <use xlink:href="#C0_0_1c7fa7fc19" x="280.814469" y="157.459775" style="fill: #0000aa; stroke: #0000aa"/>
    </g>
    <g clip-path="url(#pe7ad265513)">
     <use xlink:href="#C0_0_1c7fa7fc19" x="303.690968" y="288.742505" style="fill: #0000aa; stroke: #0000aa"/>
    </g>
    <g clip-path="url(#pe7ad265513)">
     <use xlink:href="#C0_0_1c7fa7fc19" x="148.1759" y="90.21071" style="fill: #ff2020; stroke: #ff2020"/>
    </g>
    <g clip-path="url(#pe7ad265513)">
     <use xlink:href="#C0_0_1c7fa7fc19" x="212.351723" y="245.606704" style="fill: #ff2020; stroke: #ff2020"/>
    </g>
    <g clip-path="url(#pe7ad265513)">
     <use xlink:href="#C0_0_1c7fa7fc19" x="377.256626" y="229.916144" style="fill: #0000aa; stroke: #0000aa"/>
    </g>
    <g clip-path="url(#pe7ad265513)">
     <use xlink:href="#C0_0_1c7fa7fc19" x="314.197473" y="270.128498" style="fill: #0000aa; stroke: #0000aa"/>
    </g>
    <g clip-path="url(#pe7ad265513)">
     <use xlink:href="#C0_0_1c7fa7fc19" x="99.860082" y="117.247359" style="fill: #ff2020; stroke: #ff2020"/>
    </g>
    <g clip-path="url(#pe7ad265513)">
     <use xlink:href="#C0_0_1c7fa7fc19" x="289.430186" y="180.463028" style="fill: #0000aa; stroke: #0000aa"/>
    </g>
    <g clip-path="url(#pe7ad265513)">
     <use xlink:href="#C0_0_1c7fa7fc19" x="243.235106" y="81.72067" style="fill: #ff2020; stroke: #ff2020"/>
    </g>
    <g clip-path="url(#pe7ad265513)">
     <use xlink:href="#C0_0_1c7fa7fc19" x="222.96393" y="254.705869" style="fill: #0000aa; stroke: #0000aa"/>
    </g>
    <g clip-path="url(#pe7ad265513)">
     <use xlink:href="#C0_0_1c7fa7fc19" x="223.36149" y="81.413305" style="fill: #ff2020; stroke: #ff2020"/>
    </g>
    <g clip-path="url(#pe7ad265513)">
     <use xlink:href="#C0_0_1c7fa7fc19" x="104.754309" y="90.992176" style="fill: #ff2020; stroke: #ff2020"/>
    </g>
    <g clip-path="url(#pe7ad265513)">
     <use xlink:href="#C0_0_1c7fa7fc19" x="388.742412" y="209.075808" style="fill: #0000aa; stroke: #0000aa"/>
    </g>
    <g clip-path="url(#pe7ad265513)">
     <use xlink:href="#C0_0_1c7fa7fc19" x="276.855192" y="280.280831" style="fill: #0000aa; stroke: #0000aa"/>
    </g>
    <g clip-path="url(#pe7ad265513)">
     <use xlink:href="#C0_0_1c7fa7fc19" x="207.401387" y="65.61156" style="fill: #ff2020; stroke: #ff2020"/>
    </g>
    <g clip-path="url(#pe7ad265513)">
     <use xlink:href="#C0_0_1c7fa7fc19" x="321.88183" y="264.861527" style="fill: #0000aa; stroke: #0000aa"/>
    </g>
    <g clip-path="url(#pe7ad265513)">
     <use xlink:href="#C0_0_1c7fa7fc19" x="157.140403" y="61.435352" style="fill: #ff2020; stroke: #ff2020"/>
    </g>
    <g clip-path="url(#pe7ad265513)">
     <use xlink:href="#C0_0_1c7fa7fc19" x="211.811167" y="221.959495" style="fill: #ff2020; stroke: #ff2020"/>
    </g>
    <g clip-path="url(#pe7ad265513)">
     <use xlink:href="#C0_0_1c7fa7fc19" x="380.755381" y="225.086248" style="fill: #0000aa; stroke: #0000aa"/>
    </g>
    <g clip-path="url(#pe7ad265513)">
     <use xlink:href="#C0_0_1c7fa7fc19" x="384.346583" y="204.296678" style="fill: #0000aa; stroke: #0000aa"/>
    </g>
    <g clip-path="url(#pe7ad265513)">
     <use xlink:href="#C0_0_1c7fa7fc19" x="203.820278" y="223.395205" style="fill: #ff2020; stroke: #ff2020"/>
    </g>
    <g clip-path="url(#pe7ad265513)">
     <use xlink:href="#C0_0_1c7fa7fc19" x="200.961657" y="80.231195" style="fill: #ff2020; stroke: #ff2020"/>
    </g>
    <g clip-path="url(#pe7ad265513)">
     <use xlink:href="#C0_0_1c7fa7fc19" x="279.99693" y="134.687916" style="fill: #0000aa; stroke: #0000aa"/>
    </g>
    <g clip-path="url(#pe7ad265513)">
     <use xlink:href="#C0_0_1c7fa7fc19" x="162.436743" y="88.313997" style="fill: #ff2020; stroke: #ff2020"/>
    </g>
    <g clip-path="url(#pe7ad265513)">
     <use xlink:href="#C0_0_1c7fa7fc19" x="289.654629" y="278.538939" style="fill: #0000aa; stroke: #0000aa"/>
    </g>
    <g clip-path="url(#pe7ad265513)">
     <use xlink:href="#C0_0_1c7fa7fc19" x="190.850672" y="182.492692" style="fill: #ff2020; stroke: #ff2020"/>
    </g>
    <g clip-path="url(#pe7ad265513)">
     <use xlink:href="#C0_0_1c7fa7fc19" x="266.691159" y="112.893296" style="fill: #0000aa; stroke: #0000aa"/>
    </g>
    <g clip-path="url(#pe7ad265513)">
     <use xlink:href="#C0_0_1c7fa7fc19" x="387.185491" y="179.985823" style="fill: #0000aa; stroke: #0000aa"/>
    </g>
    <g clip-path="url(#pe7ad265513)">
     <use xlink:href="#C0_0_1c7fa7fc19" x="232.215186" y="244.368955" style="fill: #0000aa; stroke: #0000aa"/>
    </g>
    <g clip-path="url(#pe7ad265513)">
     <use xlink:href="#C0_0_1c7fa7fc19" x="287.456402" y="196.385446" style="fill: #0000aa; stroke: #0000aa"/>
    </g>
    <g clip-path="url(#pe7ad265513)">
     <use xlink:href="#C0_0_1c7fa7fc19" x="97.790606" y="134.471605" style="fill: #ff2020; stroke: #ff2020"/>
    </g>
    <g clip-path="url(#pe7ad265513)">
     <use xlink:href="#C0_0_1c7fa7fc19" x="182.067075" y="158.794324" style="fill: #ff2020; stroke: #ff2020"/>
    </g>
    <g clip-path="url(#pe7ad265513)">
     <use xlink:href="#C0_0_1c7fa7fc19" x="244.717014" y="272.762274" style="fill: #0000aa; stroke: #0000aa"/>
    </g>
    <g clip-path="url(#pe7ad265513)">
     <use xlink:href="#C0_0_1c7fa7fc19" x="140.293114" y="85.620523" style="fill: #ff2020; stroke: #ff2020"/>
    </g>
    <g clip-path="url(#pe7ad265513)">
     <use xlink:href="#C0_0_1c7fa7fc19" x="255.033071" y="107.047306" style="fill: #ff2020; stroke: #ff2020"/>
    </g>
    <g clip-path="url(#pe7ad265513)">
     <use xlink:href="#C0_0_1c7fa7fc19" x="197.193492" y="201.051124" style="fill: #ff2020; stroke: #ff2020"/>
    </g>
    <g clip-path="url(#pe7ad265513)">
     <use xlink:href="#C0_0_1c7fa7fc19" x="349.109473" y="260.404392" style="fill: #0000aa; stroke: #0000aa"/>
    </g>
    <g clip-path="url(#pe7ad265513)">
     <use xlink:href="#C0_0_1c7fa7fc19" x="147.190045" y="71.681795" style="fill: #ff2020; stroke: #ff2020"/>
    </g>
    <g clip-path="url(#pe7ad265513)">
     <use xlink:href="#C0_0_1c7fa7fc19" x="293.25599" y="182.853841" style="fill: #0000aa; stroke: #0000aa"/>
    </g>
    <g clip-path="url(#pe7ad265513)">
     <use xlink:href="#C0_0_1c7fa7fc19" x="110.832231" y="115.438362" style="fill: #ff2020; stroke: #ff2020"/>
    </g>
    <g clip-path="url(#pe7ad265513)">
     <use xlink:href="#C0_0_1c7fa7fc19" x="203.351241" y="226.540885" style="fill: #ff2020; stroke: #ff2020"/>
    </g>
    <g clip-path="url(#pe7ad265513)">
     <use xlink:href="#C0_0_1c7fa7fc19" x="277.209597" y="277.792768" style="fill: #0000aa; stroke: #0000aa"/>
    </g>
    <g clip-path="url(#pe7ad265513)">
     <use xlink:href="#C0_0_1c7fa7fc19" x="113.150108" y="94.081446" style="fill: #ff2020; stroke: #ff2020"/>
    </g>
    <g clip-path="url(#pe7ad265513)">
     <use xlink:href="#C0_0_1c7fa7fc19" x="220.850116" y="239.43198" style="fill: #0000aa; stroke: #0000aa"/>
    </g>
    <g clip-path="url(#pe7ad265513)">
     <use xlink:href="#C0_0_1c7fa7fc19" x="394.474635" y="205.237005" style="fill: #0000aa; stroke: #0000aa"/>
    </g>
    <g clip-path="url(#pe7ad265513)">
     <use xlink:href="#C0_0_1c7fa7fc19" x="91.336404" y="202.504554" style="fill: #ff2020; stroke: #ff2020"/>
    </g>
    <g clip-path="url(#pe7ad265513)">
     <use xlink:href="#C0_0_1c7fa7fc19" x="296.206634" y="283.730001" style="fill: #0000aa; stroke: #0000aa"/>
    </g>
    <g clip-path="url(#pe7ad265513)">
     <use xlink:href="#C0_0_1c7fa7fc19" x="265.555959" y="115.130434" style="fill: #0000aa; stroke: #0000aa"/>
    </g>
    <g clip-path="url(#pe7ad265513)">
     <use xlink:href="#C0_0_1c7fa7fc19" x="244.150638" y="103.549719" style="fill: #ff2020; stroke: #ff2020"/>
    </g>
    <g clip-path="url(#pe7ad265513)">
     <use xlink:href="#C0_0_1c7fa7fc19" x="316.718002" y="280.171093" style="fill: #0000aa; stroke: #0000aa"/>
    </g>
    <g clip-path="url(#pe7ad265513)">
     <use xlink:href="#C0_0_1c7fa7fc19" x="212.579136" y="73.51806" style="fill: #ff2020; stroke: #ff2020"/>
    </g>
    <g clip-path="url(#pe7ad265513)">
     <use xlink:href="#C0_0_1c7fa7fc19" x="164.591067" y="66.167832" style="fill: #ff2020; stroke: #ff2020"/>
    </g>
    <g clip-path="url(#pe7ad265513)">
     <use xlink:href="#C0_0_1c7fa7fc19" x="223.314113" y="253.196423" style="fill: #0000aa; stroke: #0000aa"/>
    </g>
    <g clip-path="url(#pe7ad265513)">
     <use xlink:href="#C0_0_1c7fa7fc19" x="79.622823" y="187.108305" style="fill: #ff2020; stroke: #ff2020"/>
    </g>
    <g clip-path="url(#pe7ad265513)">
     <use xlink:href="#C0_0_1c7fa7fc19" x="373.556681" y="228.984939" style="fill: #0000aa; stroke: #0000aa"/>
    </g>
    <g clip-path="url(#pe7ad265513)">
     <use xlink:href="#C0_0_1c7fa7fc19" x="278.249502" y="133.52301" style="fill: #0000aa; stroke: #0000aa"/>
    </g>
    <g clip-path="url(#pe7ad265513)">
     <use xlink:href="#C0_0_1c7fa7fc19" x="301.966516" y="278.941089" style="fill: #0000aa; stroke: #0000aa"/>
    </g>
    <g clip-path="url(#pe7ad265513)">
     <use xlink:href="#C0_0_1c7fa7fc19" x="73.955666" y="176.377818" style="fill: #ff2020; stroke: #ff2020"/>
    </g>
    <g clip-path="url(#pe7ad265513)">
     <use xlink:href="#C0_0_1c7fa7fc19" x="169.724765" y="62.952158" style="fill: #ff2020; stroke: #ff2020"/>
    </g>
    <g clip-path="url(#pe7ad265513)">
     <use xlink:href="#C0_0_1c7fa7fc19" x="340.390198" y="266.345859" style="fill: #0000aa; stroke: #0000aa"/>
    </g>
    <g clip-path="url(#pe7ad265513)">
     <use xlink:href="#C0_0_1c7fa7fc19" x="189.576726" y="68.351238" style="fill: #ff2020; stroke: #ff2020"/>
    </g>
    <g clip-path="url(#pe7ad265513)">
     <use xlink:href="#C0_0_1c7fa7fc19" x="87.995732" y="144.29165" style="fill: #ff2020; stroke: #ff2020"/>
    </g>
    <g clip-path="url(#pe7ad265513)">
     <use xlink:href="#C0_0_1c7fa7fc19" x="255.780967" y="278.711536" style="fill: #0000aa; stroke: #0000aa"/>
    </g>
    <g clip-path="url(#pe7ad265513)">
     <use xlink:href="#C0_0_1c7fa7fc19" x="82.232645" y="151.595889" style="fill: #ff2020; stroke: #ff2020"/>
    </g>
    <g clip-path="url(#pe7ad265513)">
     <use xlink:href="#C0_0_1c7fa7fc19" x="235.084927" y="278.754074" style="fill: #0000aa; stroke: #0000aa"/>
    </g>
    <g clip-path="url(#pe7ad265513)">
     <use xlink:href="#C0_0_1c7fa7fc19" x="172.529201" y="134.423666" style="fill: #ff2020; stroke: #ff2020"/>
    </g>
    <g clip-path="url(#pe7ad265513)">
     <use xlink:href="#C0_0_1c7fa7fc19" x="272.09607" y="273.240671" style="fill: #0000aa; stroke: #0000aa"/>
    </g>
    <g clip-path="url(#pe7ad265513)">
     <use xlink:href="#C0_0_1c7fa7fc19" x="86.775394" y="155.887068" style="fill: #ff2020; stroke: #ff2020"/>
    </g>
    <g clip-path="url(#pe7ad265513)">
     <use xlink:href="#C0_0_1c7fa7fc19" x="191.966934" y="183.746522" style="fill: #ff2020; stroke: #ff2020"/>
    </g>
    <g clip-path="url(#pe7ad265513)">
     <use xlink:href="#C0_0_1c7fa7fc19" x="283.738908" y="151.119587" style="fill: #0000aa; stroke: #0000aa"/>
    </g>
    <g clip-path="url(#pe7ad265513)">
     <use xlink:href="#C0_0_1c7fa7fc19" x="250.161806" y="96.783523" style="fill: #ff2020; stroke: #ff2020"/>
    </g>
    <g clip-path="url(#pe7ad265513)">
     <use xlink:href="#C0_0_1c7fa7fc19" x="263.054654" y="265.071591" style="fill: #0000aa; stroke: #0000aa"/>
    </g>
    <g clip-path="url(#pe7ad265513)">
     <use xlink:href="#C0_0_1c7fa7fc19" x="394.383782" y="192.739775" style="fill: #0000aa; stroke: #0000aa"/>
    </g>
    <g clip-path="url(#pe7ad265513)">
     <use xlink:href="#C0_0_1c7fa7fc19" x="184.240396" y="68.62894" style="fill: #ff2020; stroke: #ff2020"/>
    </g>
    <g clip-path="url(#pe7ad265513)">
     <use xlink:href="#C0_0_1c7fa7fc19" x="253.4486" y="283.579065" style="fill: #0000aa; stroke: #0000aa"/>
    </g>
    <g clip-path="url(#pe7ad265513)">
     <use xlink:href="#C0_0_1c7fa7fc19" x="397.198368" y="145.861369" style="fill: #0000aa; stroke: #0000aa"/>
    </g>
    <g clip-path="url(#pe7ad265513)">
     <use xlink:href="#C0_0_1c7fa7fc19" x="188.831117" y="175.822388" style="fill: #ff2020; stroke: #ff2020"/>
    </g>
    <g clip-path="url(#pe7ad265513)">
     <use xlink:href="#C0_0_1c7fa7fc19" x="148.697186" y="61.175432" style="fill: #ff2020; stroke: #ff2020"/>
    </g>
    <g clip-path="url(#pe7ad265513)">
     <use xlink:href="#C0_0_1c7fa7fc19" x="286.645006" y="204.757979" style="fill: #0000aa; stroke: #0000aa"/>
    </g>
    <g clip-path="url(#pe7ad265513)">
     <use xlink:href="#C0_0_1c7fa7fc19" x="150.758909" y="70.5125" style="fill: #ff2020; stroke: #ff2020"/>
    </g>
    <g clip-path="url(#pe7ad265513)">
     <use xlink:href="#C0_0_1c7fa7fc19" x="249.38485" y="268.801204" style="fill: #0000aa; stroke: #0000aa"/>
    </g>
    <g clip-path="url(#pe7ad265513)">
     <use xlink:href="#C0_0_1c7fa7fc19" x="395.496815" y="153.493109" style="fill: #0000aa; stroke: #0000aa"/>
    </g>
    <g clip-path="url(#pe7ad265513)">
     <use xlink:href="#C0_0_1c7fa7fc19" x="221.201613" y="74.375392" style="fill: #ff2020; stroke: #ff2020"/>
    </g>
    <g clip-path="url(#pe7ad265513)">
     <use xlink:href="#C0_0_1c7fa7fc19" x="290.895663" y="159.753843" style="fill: #0000aa; stroke: #0000aa"/>
    </g>
    <g clip-path="url(#pe7ad265513)">
     <use xlink:href="#C0_0_1c7fa7fc19" x="395.313808" y="172.546892" style="fill: #0000aa; stroke: #0000aa"/>
    </g>
    <g clip-path="url(#pe7ad265513)">
     <use xlink:href="#C0_0_1c7fa7fc19" x="115.507555" y="99.493139" style="fill: #ff2020; stroke: #ff2020"/>
    </g>
    <g clip-path="url(#pe7ad265513)">
     <use xlink:href="#C0_0_1c7fa7fc19" x="397.315964" y="157.643519" style="fill: #0000aa; stroke: #0000aa"/>
    </g>
    <g clip-path="url(#pe7ad265513)">
     <use xlink:href="#C0_0_1c7fa7fc19" x="373.726123" y="227.587705" style="fill: #0000aa; stroke: #0000aa"/>
    </g>
    <g clip-path="url(#pe7ad265513)">
     <use xlink:href="#C0_0_1c7fa7fc19" x="368.807353" y="244.040135" style="fill: #0000aa; stroke: #0000aa"/>
    </g>
    <g clip-path="url(#pe7ad265513)">
     <use xlink:href="#C0_0_1c7fa7fc19" x="229.102956" y="247.888867" style="fill: #0000aa; stroke: #0000aa"/>
    </g>
    <g clip-path="url(#pe7ad265513)">
     <use xlink:href="#C0_0_1c7fa7fc19" x="78.701837" y="175.382724" style="fill: #ff2020; stroke: #ff2020"/>
    </g>
    <g clip-path="url(#pe7ad265513)">
     <use xlink:href="#C0_0_1c7fa7fc19" x="193.137445" y="199.538094" style="fill: #ff2020; stroke: #ff2020"/>
    </g>
    <g clip-path="url(#pe7ad265513)">
     <use xlink:href="#C0_0_1c7fa7fc19" x="323.078654" y="295.488" style="fill: #0000aa; stroke: #0000aa"/>
    </g>
    <g clip-path="url(#pe7ad265513)">
     <use xlink:href="#C0_0_1c7fa7fc19" x="393.822015" y="165.835035" style="fill: #0000aa; stroke: #0000aa"/>
    </g>
    <g clip-path="url(#pe7ad265513)">
     <use xlink:href="#C0_0_1c7fa7fc19" x="189.790195" y="53.568" style="fill: #ff2020; stroke: #ff2020"/>
    </g>
    <g clip-path="url(#pe7ad265513)">
     <use xlink:href="#C0_0_1c7fa7fc19" x="294.705013" y="214.3261" style="fill: #0000aa; stroke: #0000aa"/>
    </g>
    <g clip-path="url(#pe7ad265513)">
     <use xlink:href="#C0_0_1c7fa7fc19" x="91.774829" y="166.179288" style="fill: #ff2020; stroke: #ff2020"/>
    </g>
    <g clip-path="url(#pe7ad265513)">
     <use xlink:href="#C0_0_1c7fa7fc19" x="194.875487" y="168.397394" style="fill: #ff2020; stroke: #ff2020"/>
    </g>
    <g clip-path="url(#pe7ad265513)">
     <use xlink:href="#C0_0_1c7fa7fc19" x="82.586673" y="195.694451" style="fill: #ff2020; stroke: #ff2020"/>
    </g>
    <g clip-path="url(#pe7ad265513)">
     <use xlink:href="#C0_0_1c7fa7fc19" x="136.603703" y="70.753907" style="fill: #ff2020; stroke: #ff2020"/>
    </g>
    <g clip-path="url(#pe7ad265513)">
     <use xlink:href="#C0_0_1c7fa7fc19" x="348.882211" y="261.85611" style="fill: #0000aa; stroke: #0000aa"/>
    </g>
    <g clip-path="url(#pe7ad265513)">
     <use xlink:href="#C0_0_1c7fa7fc19" x="210.91238" y="80.216699" style="fill: #ff2020; stroke: #ff2020"/>
    </g>
    <g clip-path="url(#pe7ad265513)">
     <use xlink:href="#C0_0_1c7fa7fc19" x="124.954965" y="93.811557" style="fill: #ff2020; stroke: #ff2020"/>
    </g>
    <g clip-path="url(#pe7ad265513)">
     <use xlink:href="#C0_0_1c7fa7fc19" x="190.336941" y="61.750584" style="fill: #ff2020; stroke: #ff2020"/>
    </g>
    <g clip-path="url(#pe7ad265513)">
     <use xlink:href="#C0_0_1c7fa7fc19" x="184.356688" y="54.932891" style="fill: #ff2020; stroke: #ff2020"/>
    </g>
    <g clip-path="url(#pe7ad265513)">
     <use xlink:href="#C0_0_1c7fa7fc19" x="96.753639" y="152.710805" style="fill: #ff2020; stroke: #ff2020"/>
    </g>
    <g clip-path="url(#pe7ad265513)">
     <use xlink:href="#C0_0_1c7fa7fc19" x="283.725146" y="155.91879" style="fill: #0000aa; stroke: #0000aa"/>
    </g>
    <g clip-path="url(#pe7ad265513)">
     <use xlink:href="#C0_0_1c7fa7fc19" x="336.903437" y="283.917432" style="fill: #0000aa; stroke: #0000aa"/>
    </g>
    <g clip-path="url(#pe7ad265513)">
     <use xlink:href="#C0_0_1c7fa7fc19" x="250.091159" y="114.341371" style="fill: #ff2020; stroke: #ff2020"/>
    </g>
    <g clip-path="url(#pe7ad265513)">
     <use xlink:href="#C0_0_1c7fa7fc19" x="390.644853" y="190.903593" style="fill: #0000aa; stroke: #0000aa"/>
    </g>
    <g clip-path="url(#pe7ad265513)">
     <use xlink:href="#C0_0_1c7fa7fc19" x="247.319205" y="268.938253" style="fill: #0000aa; stroke: #0000aa"/>
    </g>
    <g clip-path="url(#pe7ad265513)">
     <use xlink:href="#C0_0_1c7fa7fc19" x="264.479459" y="136.534896" style="fill: #0000aa; stroke: #0000aa"/>
    </g>
    <g clip-path="url(#pe7ad265513)">
     <use xlink:href="#C0_0_1c7fa7fc19" x="277.926809" y="132.007844" style="fill: #0000aa; stroke: #0000aa"/>
    </g>
    <g clip-path="url(#pe7ad265513)">
     <use xlink:href="#C0_0_1c7fa7fc19" x="111.754631" y="127.379069" style="fill: #ff2020; stroke: #ff2020"/>
    </g>
    <g clip-path="url(#pe7ad265513)">
     <use xlink:href="#C0_0_1c7fa7fc19" x="183.160687" y="161.821114" style="fill: #ff2020; stroke: #ff2020"/>
    </g>
    <g clip-path="url(#pe7ad265513)">
     <use xlink:href="#C0_0_1c7fa7fc19" x="183.262092" y="65.785312" style="fill: #ff2020; stroke: #ff2020"/>
    </g>
    <g clip-path="url(#pe7ad265513)">
     <use xlink:href="#C0_0_1c7fa7fc19" x="179.765243" y="149.363482" style="fill: #ff2020; stroke: #ff2020"/>
    </g>
    <g clip-path="url(#pe7ad265513)">
     <use xlink:href="#C0_0_1c7fa7fc19" x="103.163035" y="111.245551" style="fill: #ff2020; stroke: #ff2020"/>
    </g>
    <g clip-path="url(#pe7ad265513)">
     <use xlink:href="#C0_0_1c7fa7fc19" x="283.160845" y="204.767279" style="fill: #0000aa; stroke: #0000aa"/>
    </g>
    <g clip-path="url(#pe7ad265513)">
     <use xlink:href="#C0_0_1c7fa7fc19" x="205.093842" y="204.234208" style="fill: #ff2020; stroke: #ff2020"/>
    </g>
    <g clip-path="url(#pe7ad265513)">
     <use xlink:href="#C0_0_1c7fa7fc19" x="328.166582" y="268.279077" style="fill: #0000aa; stroke: #0000aa"/>
    </g>
    <g clip-path="url(#pe7ad265513)">
     <use xlink:href="#C0_0_1c7fa7fc19" x="394.832284" y="136.680419" style="fill: #0000aa; stroke: #0000aa"/>
    </g>
    <g clip-path="url(#pe7ad265513)">
     <use xlink:href="#C0_0_1c7fa7fc19" x="291.57277" y="171.27215" style="fill: #0000aa; stroke: #0000aa"/>
    </g>
    <g clip-path="url(#pe7ad265513)">
     <use xlink:href="#C0_0_1c7fa7fc19" x="129.396502" y="99.729374" style="fill: #ff2020; stroke: #ff2020"/>
    </g>
    <g clip-path="url(#pe7ad265513)">
     <use xlink:href="#C0_0_1c7fa7fc19" x="81.659644" y="142.03098" style="fill: #ff2020; stroke: #ff2020"/>
    </g>
    <g clip-path="url(#pe7ad265513)">
     <use xlink:href="#C0_0_1c7fa7fc19" x="210.99229" y="233.257688" style="fill: #ff2020; stroke: #ff2020"/>
    </g>
    <g clip-path="url(#pe7ad265513)">
     <use xlink:href="#C0_0_1c7fa7fc19" x="313.98521" y="270.385329" style="fill: #0000aa; stroke: #0000aa"/>
    </g>
    <g clip-path="url(#pe7ad265513)">
     <use xlink:href="#C0_0_1c7fa7fc19" x="354.608015" y="236.986418" style="fill: #0000aa; stroke: #0000aa"/>
    </g>
    <g clip-path="url(#pe7ad265513)">
     <use xlink:href="#C0_0_1c7fa7fc19" x="308.109159" y="269.724631" style="fill: #0000aa; stroke: #0000aa"/>
    </g>
    <g clip-path="url(#pe7ad265513)">
     <use xlink:href="#C0_0_1c7fa7fc19" x="80.364818" y="179.351616" style="fill: #ff2020; stroke: #ff2020"/>
    </g>
    <g clip-path="url(#pe7ad265513)">
     <use xlink:href="#C0_0_1c7fa7fc19" x="398.487273" y="137.532855" style="fill: #0000aa; stroke: #0000aa"/>
    </g>
    <g clip-path="url(#pe7ad265513)">
     <use xlink:href="#C0_0_1c7fa7fc19" x="279.737255" y="153.992832" style="fill: #0000aa; stroke: #0000aa"/>
    </g>
    <g clip-path="url(#pe7ad265513)">
     <use xlink:href="#C0_0_1c7fa7fc19" x="197.084289" y="212.602923" style="fill: #ff2020; stroke: #ff2020"/>
    </g>
    <g clip-path="url(#pe7ad265513)">
     <use xlink:href="#C0_0_1c7fa7fc19" x="185.093451" y="142.266302" style="fill: #ff2020; stroke: #ff2020"/>
    </g>
    <g clip-path="url(#pe7ad265513)">
     <use xlink:href="#C0_0_1c7fa7fc19" x="233.221778" y="73.008365" style="fill: #ff2020; stroke: #ff2020"/>
    </g>
    <g clip-path="url(#pe7ad265513)">
     <use xlink:href="#C0_0_1c7fa7fc19" x="148.897267" y="67.583249" style="fill: #ff2020; stroke: #ff2020"/>
    </g>
    <g clip-path="url(#pe7ad265513)">
     <use xlink:href="#C0_0_1c7fa7fc19" x="140.332853" y="82.074244" style="fill: #ff2020; stroke: #ff2020"/>
    </g>
    <g clip-path="url(#pe7ad265513)">
     <use xlink:href="#C0_0_1c7fa7fc19" x="293.074439" y="201.100586" style="fill: #0000aa; stroke: #0000aa"/>
    </g>
    <g clip-path="url(#pe7ad265513)">
     <use xlink:href="#C0_0_1c7fa7fc19" x="210.674533" y="209.164183" style="fill: #ff2020; stroke: #ff2020"/>
    </g>
    <g clip-path="url(#pe7ad265513)">
     <use xlink:href="#C0_0_1c7fa7fc19" x="328.338829" y="275.716137" style="fill: #0000aa; stroke: #0000aa"/>
    </g>
    <g clip-path="url(#pe7ad265513)">
     <use xlink:href="#C0_0_1c7fa7fc19" x="213.10924" y="62.139429" style="fill: #ff2020; stroke: #ff2020"/>
    </g>
    <g clip-path="url(#pe7ad265513)">
     <use xlink:href="#C0_0_1c7fa7fc19" x="185.782157" y="174.534362" style="fill: #ff2020; stroke: #ff2020"/>
    </g>
    <g clip-path="url(#pe7ad265513)">
     <use xlink:href="#C0_0_1c7fa7fc19" x="236.333798" y="264.799374" style="fill: #0000aa; stroke: #0000aa"/>
    </g>
    <g clip-path="url(#pe7ad265513)">
     <use xlink:href="#C0_0_1c7fa7fc19" x="362.981661" y="261.516311" style="fill: #0000aa; stroke: #0000aa"/>
    </g>
    <g clip-path="url(#pe7ad265513)">
     <use xlink:href="#C0_0_1c7fa7fc19" x="275.245145" y="144.357626" style="fill: #0000aa; stroke: #0000aa"/>
    </g>
    <g clip-path="url(#pe7ad265513)">
     <use xlink:href="#C0_0_1c7fa7fc19" x="222.349995" y="78.810643" style="fill: #ff2020; stroke: #ff2020"/>
    </g>
    <g clip-path="url(#pe7ad265513)">
     <use xlink:href="#C0_0_1c7fa7fc19" x="248.114492" y="261.958465" style="fill: #0000aa; stroke: #0000aa"/>
    </g>
    <g clip-path="url(#pe7ad265513)">
     <use xlink:href="#C0_0_1c7fa7fc19" x="167.677657" y="70.027789" style="fill: #ff2020; stroke: #ff2020"/>
    </g>
    <g clip-path="url(#pe7ad265513)">
     <use xlink:href="#C0_0_1c7fa7fc19" x="318.63799" y="279.912" style="fill: #0000aa; stroke: #0000aa"/>
    </g>
    <g clip-path="url(#pe7ad265513)">
     <use xlink:href="#C0_0_1c7fa7fc19" x="221.63982" y="237.106907" style="fill: #0000aa; stroke: #0000aa"/>
    </g>
    <g clip-path="url(#pe7ad265513)">
     <use xlink:href="#C0_0_1c7fa7fc19" x="241.694443" y="72.600273" style="fill: #ff2020; stroke: #ff2020"/>
    </g>
    <g clip-path="url(#pe7ad265513)">
     <use xlink:href="#C0_0_1c7fa7fc19" x="253.892125" y="97.602735" style="fill: #ff2020; stroke: #ff2020"/>
    </g>
    <g clip-path="url(#pe7ad265513)">
     <use xlink:href="#C0_0_1c7fa7fc19" x="202.967253" y="203.98282" style="fill: #ff2020; stroke: #ff2020"/>
    </g>
    <g clip-path="url(#pe7ad265513)">
     <use xlink:href="#C0_0_1c7fa7fc19" x="303.207555" y="284.65152" style="fill: #0000aa; stroke: #0000aa"/>
    </g>
    <g clip-path="url(#pe7ad265513)">
     <use xlink:href="#C0_0_1c7fa7fc19" x="249.826552" y="88.797713" style="fill: #ff2020; stroke: #ff2020"/>
    </g>
    <g clip-path="url(#pe7ad265513)">
     <use xlink:href="#C0_0_1c7fa7fc19" x="342.15304" y="258.524381" style="fill: #0000aa; stroke: #0000aa"/>
    </g>
    <g clip-path="url(#pe7ad265513)">
     <use xlink:href="#C0_0_1c7fa7fc19" x="228.206974" y="264.578122" style="fill: #0000aa; stroke: #0000aa"/>
    </g>
    <g clip-path="url(#pe7ad265513)">
     <use xlink:href="#C0_0_1c7fa7fc19" x="362.108751" y="224.436916" style="fill: #0000aa; stroke: #0000aa"/>
    </g>
    <g clip-path="url(#pe7ad265513)">
     <use xlink:href="#C0_0_1c7fa7fc19" x="236.357726" y="86.193362" style="fill: #ff2020; stroke: #ff2020"/>
    </g>
    <g clip-path="url(#pe7ad265513)">
     <use xlink:href="#C0_0_1c7fa7fc19" x="260.579052" y="272.395941" style="fill: #0000aa; stroke: #0000aa"/>
    </g>
    <g clip-path="url(#pe7ad265513)">
     <use xlink:href="#C0_0_1c7fa7fc19" x="350.738707" y="261.640647" style="fill: #0000aa; stroke: #0000aa"/>
    </g>
    <g clip-path="url(#pe7ad265513)">
     <use xlink:href="#C0_0_1c7fa7fc19" x="285.172216" y="294.641594" style="fill: #0000aa; stroke: #0000aa"/>
    </g>
    <g clip-path="url(#pe7ad265513)">
     <use xlink:href="#C0_0_1c7fa7fc19" x="250.908081" y="88.690017" style="fill: #ff2020; stroke: #ff2020"/>
    </g>
    <g clip-path="url(#pe7ad265513)">
     <use xlink:href="#C0_0_1c7fa7fc19" x="73.832727" y="206.955469" style="fill: #ff2020; stroke: #ff2020"/>
    </g>
    <g clip-path="url(#pe7ad265513)">
     <use xlink:href="#C0_0_1c7fa7fc19" x="90.465199" y="134.162551" style="fill: #ff2020; stroke: #ff2020"/>
    </g>
    <g clip-path="url(#pe7ad265513)">
     <use xlink:href="#C0_0_1c7fa7fc19" x="107.784544" y="135.332161" style="fill: #ff2020; stroke: #ff2020"/>
    </g>
    <g clip-path="url(#pe7ad265513)">
     <use xlink:href="#C0_0_1c7fa7fc19" x="201.830404" y="206.51441" style="fill: #ff2020; stroke: #ff2020"/>
    </g>
    <g clip-path="url(#pe7ad265513)">
     <use xlink:href="#C0_0_1c7fa7fc19" x="285.539059" y="276.166264" style="fill: #0000aa; stroke: #0000aa"/>
    </g>
    <g clip-path="url(#pe7ad265513)">
     <use xlink:href="#C0_0_1c7fa7fc19" x="380.231175" y="151.683562" style="fill: #0000aa; stroke: #0000aa"/>
    </g>
    <g clip-path="url(#pe7ad265513)">
     <use xlink:href="#C0_0_1c7fa7fc19" x="116.18666" y="110.179651" style="fill: #ff2020; stroke: #ff2020"/>
    </g>
    <g clip-path="url(#pe7ad265513)">
     <use xlink:href="#C0_0_1c7fa7fc19" x="109.045618" y="123.488581" style="fill: #ff2020; stroke: #ff2020"/>
    </g>
    <g clip-path="url(#pe7ad265513)">
     <use xlink:href="#C0_0_1c7fa7fc19" x="249.590765" y="105.12928" style="fill: #ff2020; stroke: #ff2020"/>
    </g>
    <g clip-path="url(#pe7ad265513)">
     <use xlink:href="#C0_0_1c7fa7fc19" x="341.302635" y="265.546274" style="fill: #0000aa; stroke: #0000aa"/>
    </g>
    <g clip-path="url(#pe7ad265513)">
     <use xlink:href="#C0_0_1c7fa7fc19" x="93.143277" y="136.729856" style="fill: #ff2020; stroke: #ff2020"/>
    </g>
    <g clip-path="url(#pe7ad265513)">
     <use xlink:href="#C0_0_1c7fa7fc19" x="389.059025" y="184.322974" style="fill: #0000aa; stroke: #0000aa"/>
    </g>
    <g clip-path="url(#pe7ad265513)">
     <use xlink:href="#C0_0_1c7fa7fc19" x="374.12021" y="250.872743" style="fill: #0000aa; stroke: #0000aa"/>
    </g>
    <g clip-path="url(#pe7ad265513)">
     <use xlink:href="#C0_0_1c7fa7fc19" x="391.41043" y="172.122962" style="fill: #0000aa; stroke: #0000aa"/>
    </g>
    <g clip-path="url(#pe7ad265513)">
     <use xlink:href="#C0_0_1c7fa7fc19" x="221.565069" y="67.965182" style="fill: #ff2020; stroke: #ff2020"/>
    </g>
    <g clip-path="url(#pe7ad265513)">
     <use xlink:href="#C0_0_1c7fa7fc19" x="168.658478" y="80.861576" style="fill: #ff2020; stroke: #ff2020"/>
    </g>
    <g clip-path="url(#pe7ad265513)">
     <use xlink:href="#C0_0_1c7fa7fc19" x="267.365022" y="286.250781" style="fill: #0000aa; stroke: #0000aa"/>
    </g>
    <g clip-path="url(#pe7ad265513)">
     <use xlink:href="#C0_0_1c7fa7fc19" x="93.205792" y="157.374383" style="fill: #ff2020; stroke: #ff2020"/>
    </g>
    <g clip-path="url(#pe7ad265513)">
     <use xlink:href="#C0_0_1c7fa7fc19" x="120.32709" y="95.606343" style="fill: #ff2020; stroke: #ff2020"/>
    </g>
    <g clip-path="url(#pe7ad265513)">
     <use xlink:href="#C0_0_1c7fa7fc19" x="88.681431" y="154.374898" style="fill: #ff2020; stroke: #ff2020"/>
    </g>
    <g clip-path="url(#pe7ad265513)">
     <use xlink:href="#C0_0_1c7fa7fc19" x="230.995838" y="74.942274" style="fill: #ff2020; stroke: #ff2020"/>
    </g>
    <g clip-path="url(#pe7ad265513)">
     <use xlink:href="#C0_0_1c7fa7fc19" x="271.354731" y="132.744073" style="fill: #0000aa; stroke: #0000aa"/>
    </g>
    <g clip-path="url(#pe7ad265513)">
     <use xlink:href="#C0_0_1c7fa7fc19" x="285.159686" y="171.340667" style="fill: #0000aa; stroke: #0000aa"/>
    </g>
    <g clip-path="url(#pe7ad265513)">
     <use xlink:href="#C0_0_1c7fa7fc19" x="184.707639" y="156.39339" style="fill: #ff2020; stroke: #ff2020"/>
    </g>
    <g clip-path="url(#pe7ad265513)">
     <use xlink:href="#C0_0_1c7fa7fc19" x="130.048798" y="85.494558" style="fill: #ff2020; stroke: #ff2020"/>
    </g>
    <g clip-path="url(#pe7ad265513)">
     <use xlink:href="#C0_0_1c7fa7fc19" x="384.215127" y="175.239658" style="fill: #0000aa; stroke: #0000aa"/>
    </g>
    <g clip-path="url(#pe7ad265513)">
     <use xlink:href="#C0_0_1c7fa7fc19" x="204.863525" y="211.898586" style="fill: #ff2020; stroke: #ff2020"/>
    </g>
    <g clip-path="url(#pe7ad265513)">
     <use xlink:href="#C0_0_1c7fa7fc19" x="199.45108" y="63.982801" style="fill: #ff2020; stroke: #ff2020"/>
    </g>
    <g clip-path="url(#pe7ad265513)">
     <use xlink:href="#C0_0_1c7fa7fc19" x="356.762697" y="243.380023" style="fill: #0000aa; stroke: #0000aa"/>
    </g>
   </g>
   <g id="PathCollection_2">
    <path d="M 313.249444 217.873624 
L 308.249444 227.873624 
L 318.249444 227.873624 
z
" clip-path="url(#pe7ad265513)" style="fill: #0000aa; stroke: #0000aa; stroke-width: 2"/>
    <path d="M 165.350949 121.280804 
L 160.350949 131.280804 
L 170.350949 131.280804 
z
" clip-path="url(#pe7ad265513)" style="fill: #ff2020; stroke: #ff2020; stroke-width: 2"/>
   </g>
   <g id="matplotlib.axis_1">
    <g id="xtick_1">
     <g id="line2d_1">
      <defs>
       <path id="mb8145be832" d="M 0 0 
L 0 3.5 
" style="stroke: #000000; stroke-width: 0.8"/>
      </defs>
      <g>
       <use xlink:href="#mb8145be832" x="81.33406" y="307.584" style="stroke: #000000; stroke-width: 0.8"/>
      </g>
     </g>
     <g id="text_1">
      <!-- −1.0 -->
      <g transform="translate(69.192654 322.182437) scale(0.1 -0.1)">
       <defs>
        <path id="DejaVuSans-2212" d="M 678 2272 
L 4684 2272 
L 4684 1741 
L 678 1741 
L 678 2272 
z
" transform="scale(0.015625)"/>
        <path id="DejaVuSans-31" d="M 794 531 
L 1825 531 
L 1825 4091 
L 703 3866 
L 703 4441 
L 1819 4666 
L 2450 4666 
L 2450 531 
L 3481 531 
L 3481 0 
L 794 0 
L 794 531 
z
" transform="scale(0.015625)"/>
        <path id="DejaVuSans-2e" d="M 684 794 
L 1344 794 
L 1344 0 
L 684 0 
L 684 794 
z
" transform="scale(0.015625)"/>
        <path id="DejaVuSans-30" d="M 2034 4250 
Q 1547 4250 1301 3770 
Q 1056 3291 1056 2328 
Q 1056 1369 1301 889 
Q 1547 409 2034 409 
Q 2525 409 2770 889 
Q 3016 1369 3016 2328 
Q 3016 3291 2770 3770 
Q 2525 4250 2034 4250 
z
M 2034 4750 
Q 2819 4750 3233 4129 
Q 3647 3509 3647 2328 
Q 3647 1150 3233 529 
Q 2819 -91 2034 -91 
Q 1250 -91 836 529 
Q 422 1150 422 2328 
Q 422 3509 836 4129 
Q 1250 4750 2034 4750 
z
" transform="scale(0.015625)"/>
       </defs>
       <use xlink:href="#DejaVuSans-2212"/>
       <use xlink:href="#DejaVuSans-31" x="83.789062"/>
       <use xlink:href="#DejaVuSans-2e" x="147.412109"/>
       <use xlink:href="#DejaVuSans-30" x="179.199219"/>
      </g>
     </g>
    </g>
    <g id="xtick_2">
     <g id="line2d_2">
      <g>
       <use xlink:href="#mb8145be832" x="133.866187" y="307.584" style="stroke: #000000; stroke-width: 0.8"/>
      </g>
     </g>
     <g id="text_2">
      <!-- −0.5 -->
      <g transform="translate(121.72478 322.182437) scale(0.1 -0.1)">
       <defs>
        <path id="DejaVuSans-35" d="M 691 4666 
L 3169 4666 
L 3169 4134 
L 1269 4134 
L 1269 2991 
Q 1406 3038 1543 3061 
Q 1681 3084 1819 3084 
Q 2600 3084 3056 2656 
Q 3513 2228 3513 1497 
Q 3513 744 3044 326 
Q 2575 -91 1722 -91 
Q 1428 -91 1123 -41 
Q 819 9 494 109 
L 494 744 
Q 775 591 1075 516 
Q 1375 441 1709 441 
Q 2250 441 2565 725 
Q 2881 1009 2881 1497 
Q 2881 1984 2565 2268 
Q 2250 2553 1709 2553 
Q 1456 2553 1204 2497 
Q 953 2441 691 2322 
L 691 4666 
z
" transform="scale(0.015625)"/>
       </defs>
       <use xlink:href="#DejaVuSans-2212"/>
       <use xlink:href="#DejaVuSans-30" x="83.789062"/>
       <use xlink:href="#DejaVuSans-2e" x="147.412109"/>
       <use xlink:href="#DejaVuSans-35" x="179.199219"/>
      </g>
     </g>
    </g>
    <g id="xtick_3">
     <g id="line2d_3">
      <g>
       <use xlink:href="#mb8145be832" x="186.398313" y="307.584" style="stroke: #000000; stroke-width: 0.8"/>
      </g>
     </g>
     <g id="text_3">
      <!-- 0.0 -->
      <g transform="translate(178.446751 322.182437) scale(0.1 -0.1)">
       <use xlink:href="#DejaVuSans-30"/>
       <use xlink:href="#DejaVuSans-2e" x="63.623047"/>
       <use xlink:href="#DejaVuSans-30" x="95.410156"/>
      </g>
     </g>
    </g>
    <g id="xtick_4">
     <g id="line2d_4">
      <g>
       <use xlink:href="#mb8145be832" x="238.93044" y="307.584" style="stroke: #000000; stroke-width: 0.8"/>
      </g>
     </g>
     <g id="text_4">
      <!-- 0.5 -->
      <g transform="translate(230.978877 322.182437) scale(0.1 -0.1)">
       <use xlink:href="#DejaVuSans-30"/>
       <use xlink:href="#DejaVuSans-2e" x="63.623047"/>
       <use xlink:href="#DejaVuSans-35" x="95.410156"/>
      </g>
     </g>
    </g>
    <g id="xtick_5">
     <g id="line2d_5">
      <g>
       <use xlink:href="#mb8145be832" x="291.462566" y="307.584" style="stroke: #000000; stroke-width: 0.8"/>
      </g>
     </g>
     <g id="text_5">
      <!-- 1.0 -->
      <g transform="translate(283.511004 322.182437) scale(0.1 -0.1)">
       <use xlink:href="#DejaVuSans-31"/>
       <use xlink:href="#DejaVuSans-2e" x="63.623047"/>
       <use xlink:href="#DejaVuSans-30" x="95.410156"/>
      </g>
     </g>
    </g>
    <g id="xtick_6">
     <g id="line2d_6">
      <g>
       <use xlink:href="#mb8145be832" x="343.994693" y="307.584" style="stroke: #000000; stroke-width: 0.8"/>
      </g>
     </g>
     <g id="text_6">
      <!-- 1.5 -->
      <g transform="translate(336.04313 322.182437) scale(0.1 -0.1)">
       <use xlink:href="#DejaVuSans-31"/>
       <use xlink:href="#DejaVuSans-2e" x="63.623047"/>
       <use xlink:href="#DejaVuSans-35" x="95.410156"/>
      </g>
     </g>
    </g>
    <g id="xtick_7">
     <g id="line2d_7">
      <g>
       <use xlink:href="#mb8145be832" x="396.526819" y="307.584" style="stroke: #000000; stroke-width: 0.8"/>
      </g>
     </g>
     <g id="text_7">
      <!-- 2.0 -->
      <g transform="translate(388.575257 322.182437) scale(0.1 -0.1)">
       <defs>
        <path id="DejaVuSans-32" d="M 1228 531 
L 3431 531 
L 3431 0 
L 469 0 
L 469 531 
Q 828 903 1448 1529 
Q 2069 2156 2228 2338 
Q 2531 2678 2651 2914 
Q 2772 3150 2772 3378 
Q 2772 3750 2511 3984 
Q 2250 4219 1831 4219 
Q 1534 4219 1204 4116 
Q 875 4013 500 3803 
L 500 4441 
Q 881 4594 1212 4672 
Q 1544 4750 1819 4750 
Q 2544 4750 2975 4387 
Q 3406 4025 3406 3419 
Q 3406 3131 3298 2873 
Q 3191 2616 2906 2266 
Q 2828 2175 2409 1742 
Q 1991 1309 1228 531 
z
" transform="scale(0.015625)"/>
       </defs>
       <use xlink:href="#DejaVuSans-32"/>
       <use xlink:href="#DejaVuSans-2e" x="63.623047"/>
       <use xlink:href="#DejaVuSans-30" x="95.410156"/>
      </g>
     </g>
    </g>
    <g id="text_8">
     <!-- Feature 0 -->
     <g transform="translate(212.499844 335.860562) scale(0.1 -0.1)">
      <defs>
       <path id="DejaVuSans-46" d="M 628 4666 
L 3309 4666 
L 3309 4134 
L 1259 4134 
L 1259 2759 
L 3109 2759 
L 3109 2228 
L 1259 2228 
L 1259 0 
L 628 0 
L 628 4666 
z
" transform="scale(0.015625)"/>
       <path id="DejaVuSans-65" d="M 3597 1894 
L 3597 1613 
L 953 1613 
Q 991 1019 1311 708 
Q 1631 397 2203 397 
Q 2534 397 2845 478 
Q 3156 559 3463 722 
L 3463 178 
Q 3153 47 2828 -22 
Q 2503 -91 2169 -91 
Q 1331 -91 842 396 
Q 353 884 353 1716 
Q 353 2575 817 3079 
Q 1281 3584 2069 3584 
Q 2775 3584 3186 3129 
Q 3597 2675 3597 1894 
z
M 3022 2063 
Q 3016 2534 2758 2815 
Q 2500 3097 2075 3097 
Q 1594 3097 1305 2825 
Q 1016 2553 972 2059 
L 3022 2063 
z
" transform="scale(0.015625)"/>
       <path id="DejaVuSans-61" d="M 2194 1759 
Q 1497 1759 1228 1600 
Q 959 1441 959 1056 
Q 959 750 1161 570 
Q 1363 391 1709 391 
Q 2188 391 2477 730 
Q 2766 1069 2766 1631 
L 2766 1759 
L 2194 1759 
z
M 3341 1997 
L 3341 0 
L 2766 0 
L 2766 531 
Q 2569 213 2275 61 
Q 1981 -91 1556 -91 
Q 1019 -91 701 211 
Q 384 513 384 1019 
Q 384 1609 779 1909 
Q 1175 2209 1959 2209 
L 2766 2209 
L 2766 2266 
Q 2766 2663 2505 2880 
Q 2244 3097 1772 3097 
Q 1472 3097 1187 3025 
Q 903 2953 641 2809 
L 641 3341 
Q 956 3463 1253 3523 
Q 1550 3584 1831 3584 
Q 2591 3584 2966 3190 
Q 3341 2797 3341 1997 
z
" transform="scale(0.015625)"/>
       <path id="DejaVuSans-74" d="M 1172 4494 
L 1172 3500 
L 2356 3500 
L 2356 3053 
L 1172 3053 
L 1172 1153 
Q 1172 725 1289 603 
Q 1406 481 1766 481 
L 2356 481 
L 2356 0 
L 1766 0 
Q 1100 0 847 248 
Q 594 497 594 1153 
L 594 3053 
L 172 3053 
L 172 3500 
L 594 3500 
L 594 4494 
L 1172 4494 
z
" transform="scale(0.015625)"/>
       <path id="DejaVuSans-75" d="M 544 1381 
L 544 3500 
L 1119 3500 
L 1119 1403 
Q 1119 906 1312 657 
Q 1506 409 1894 409 
Q 2359 409 2629 706 
Q 2900 1003 2900 1516 
L 2900 3500 
L 3475 3500 
L 3475 0 
L 2900 0 
L 2900 538 
Q 2691 219 2414 64 
Q 2138 -91 1772 -91 
Q 1169 -91 856 284 
Q 544 659 544 1381 
z
M 1991 3584 
L 1991 3584 
z
" transform="scale(0.015625)"/>
       <path id="DejaVuSans-72" d="M 2631 2963 
Q 2534 3019 2420 3045 
Q 2306 3072 2169 3072 
Q 1681 3072 1420 2755 
Q 1159 2438 1159 1844 
L 1159 0 
L 581 0 
L 581 3500 
L 1159 3500 
L 1159 2956 
Q 1341 3275 1631 3429 
Q 1922 3584 2338 3584 
Q 2397 3584 2469 3576 
Q 2541 3569 2628 3553 
L 2631 2963 
z
" transform="scale(0.015625)"/>
       <path id="DejaVuSans-20" transform="scale(0.015625)"/>
      </defs>
      <use xlink:href="#DejaVuSans-46"/>
      <use xlink:href="#DejaVuSans-65" x="52.019531"/>
      <use xlink:href="#DejaVuSans-61" x="113.542969"/>
      <use xlink:href="#DejaVuSans-74" x="174.822266"/>
      <use xlink:href="#DejaVuSans-75" x="214.03125"/>
      <use xlink:href="#DejaVuSans-72" x="277.410156"/>
      <use xlink:href="#DejaVuSans-65" x="316.273438"/>
      <use xlink:href="#DejaVuSans-20" x="377.796875"/>
      <use xlink:href="#DejaVuSans-30" x="409.583984"/>
     </g>
    </g>
   </g>
   <g id="matplotlib.axis_2">
    <g id="ytick_1">
     <g id="line2d_8">
      <defs>
       <path id="ma18afe14e3" d="M 0 0 
L -3.5 0 
" style="stroke: #000000; stroke-width: 0.8"/>
      </defs>
      <g>
       <use xlink:href="#ma18afe14e3" x="57.6" y="283.70035" style="stroke: #000000; stroke-width: 0.8"/>
      </g>
     </g>
     <g id="text_9">
      <!-- −0.50 -->
      <g transform="translate(19.954687 287.499568) scale(0.1 -0.1)">
       <use xlink:href="#DejaVuSans-2212"/>
       <use xlink:href="#DejaVuSans-30" x="83.789062"/>
       <use xlink:href="#DejaVuSans-2e" x="147.412109"/>
       <use xlink:href="#DejaVuSans-35" x="179.199219"/>
       <use xlink:href="#DejaVuSans-30" x="242.822266"/>
      </g>
     </g>
    </g>
    <g id="ytick_2">
     <g id="line2d_9">
      <g>
       <use xlink:href="#ma18afe14e3" x="57.6" y="247.27265" style="stroke: #000000; stroke-width: 0.8"/>
      </g>
     </g>
     <g id="text_10">
      <!-- −0.25 -->
      <g transform="translate(19.954687 251.071869) scale(0.1 -0.1)">
       <use xlink:href="#DejaVuSans-2212"/>
       <use xlink:href="#DejaVuSans-30" x="83.789062"/>
       <use xlink:href="#DejaVuSans-2e" x="147.412109"/>
       <use xlink:href="#DejaVuSans-32" x="179.199219"/>
       <use xlink:href="#DejaVuSans-35" x="242.822266"/>
      </g>
     </g>
    </g>
    <g id="ytick_3">
     <g id="line2d_10">
      <g>
       <use xlink:href="#ma18afe14e3" x="57.6" y="210.84495" style="stroke: #000000; stroke-width: 0.8"/>
      </g>
     </g>
     <g id="text_11">
      <!-- 0.00 -->
      <g transform="translate(28.334375 214.644169) scale(0.1 -0.1)">
       <use xlink:href="#DejaVuSans-30"/>
       <use xlink:href="#DejaVuSans-2e" x="63.623047"/>
       <use xlink:href="#DejaVuSans-30" x="95.410156"/>
       <use xlink:href="#DejaVuSans-30" x="159.033203"/>
      </g>
     </g>
    </g>
    <g id="ytick_4">
     <g id="line2d_11">
      <g>
       <use xlink:href="#ma18afe14e3" x="57.6" y="174.41725" style="stroke: #000000; stroke-width: 0.8"/>
      </g>
     </g>
     <g id="text_12">
      <!-- 0.25 -->
      <g transform="translate(28.334375 178.216469) scale(0.1 -0.1)">
       <use xlink:href="#DejaVuSans-30"/>
       <use xlink:href="#DejaVuSans-2e" x="63.623047"/>
       <use xlink:href="#DejaVuSans-32" x="95.410156"/>
       <use xlink:href="#DejaVuSans-35" x="159.033203"/>
      </g>
     </g>
    </g>
    <g id="ytick_5">
     <g id="line2d_12">
      <g>
       <use xlink:href="#ma18afe14e3" x="57.6" y="137.989551" style="stroke: #000000; stroke-width: 0.8"/>
      </g>
     </g>
     <g id="text_13">
      <!-- 0.50 -->
      <g transform="translate(28.334375 141.788769) scale(0.1 -0.1)">
       <use xlink:href="#DejaVuSans-30"/>
       <use xlink:href="#DejaVuSans-2e" x="63.623047"/>
       <use xlink:href="#DejaVuSans-35" x="95.410156"/>
       <use xlink:href="#DejaVuSans-30" x="159.033203"/>
      </g>
     </g>
    </g>
    <g id="ytick_6">
     <g id="line2d_13">
      <g>
       <use xlink:href="#ma18afe14e3" x="57.6" y="101.561851" style="stroke: #000000; stroke-width: 0.8"/>
      </g>
     </g>
     <g id="text_14">
      <!-- 0.75 -->
      <g transform="translate(28.334375 105.36107) scale(0.1 -0.1)">
       <defs>
        <path id="DejaVuSans-37" d="M 525 4666 
L 3525 4666 
L 3525 4397 
L 1831 0 
L 1172 0 
L 2766 4134 
L 525 4134 
L 525 4666 
z
" transform="scale(0.015625)"/>
       </defs>
       <use xlink:href="#DejaVuSans-30"/>
       <use xlink:href="#DejaVuSans-2e" x="63.623047"/>
       <use xlink:href="#DejaVuSans-37" x="95.410156"/>
       <use xlink:href="#DejaVuSans-35" x="159.033203"/>
      </g>
     </g>
    </g>
    <g id="ytick_7">
     <g id="line2d_14">
      <g>
       <use xlink:href="#ma18afe14e3" x="57.6" y="65.134151" style="stroke: #000000; stroke-width: 0.8"/>
      </g>
     </g>
     <g id="text_15">
      <!-- 1.00 -->
      <g transform="translate(28.334375 68.93337) scale(0.1 -0.1)">
       <use xlink:href="#DejaVuSans-31"/>
       <use xlink:href="#DejaVuSans-2e" x="63.623047"/>
       <use xlink:href="#DejaVuSans-30" x="95.410156"/>
       <use xlink:href="#DejaVuSans-30" x="159.033203"/>
      </g>
     </g>
    </g>
    <g id="text_16">
     <!-- Feature 1 -->
     <g transform="translate(13.875 198.188156) rotate(-90) scale(0.1 -0.1)">
      <use xlink:href="#DejaVuSans-46"/>
      <use xlink:href="#DejaVuSans-65" x="52.019531"/>
      <use xlink:href="#DejaVuSans-61" x="113.542969"/>
      <use xlink:href="#DejaVuSans-74" x="174.822266"/>
      <use xlink:href="#DejaVuSans-75" x="214.03125"/>
      <use xlink:href="#DejaVuSans-72" x="277.410156"/>
      <use xlink:href="#DejaVuSans-65" x="316.273438"/>
      <use xlink:href="#DejaVuSans-20" x="377.796875"/>
      <use xlink:href="#DejaVuSans-31" x="409.583984"/>
     </g>
    </g>
   </g>
   <g id="patch_3">
    <path d="M 57.6 307.584 
L 57.6 41.472 
" style="fill: none; stroke: #000000; stroke-width: 0.8; stroke-linejoin: miter; stroke-linecap: square"/>
   </g>
   <g id="patch_4">
    <path d="M 414.72 307.584 
L 414.72 41.472 
" style="fill: none; stroke: #000000; stroke-width: 0.8; stroke-linejoin: miter; stroke-linecap: square"/>
   </g>
   <g id="patch_5">
    <path d="M 57.6 307.584 
L 414.72 307.584 
" style="fill: none; stroke: #000000; stroke-width: 0.8; stroke-linejoin: miter; stroke-linecap: square"/>
   </g>
   <g id="patch_6">
    <path d="M 57.6 41.472 
L 414.72 41.472 
" style="fill: none; stroke: #000000; stroke-width: 0.8; stroke-linejoin: miter; stroke-linecap: square"/>
   </g>
  </g>
 </g>
 <defs>
  <clipPath id="pe7ad265513">
   <rect x="57.6" y="41.472" width="357.12" height="266.112"/>
  </clipPath>
 </defs>
</svg>
