<?xml version="1.0" encoding="utf-8" standalone="no"?>
<!DOCTYPE svg PUBLIC "-//W3C//DTD SVG 1.1//EN"
  "http://www.w3.org/Graphics/SVG/1.1/DTD/svg11.dtd">
<svg xmlns:xlink="http://www.w3.org/1999/xlink" width="460.8pt" height="345.6pt" viewBox="0 0 460.8 345.6" xmlns="http://www.w3.org/2000/svg" version="1.1">
 <metadata>
  <rdf:RDF xmlns:dc="http://purl.org/dc/elements/1.1/" xmlns:cc="http://creativecommons.org/ns#" xmlns:rdf="http://www.w3.org/1999/02/22-rdf-syntax-ns#">
   <cc:Work>
    <dc:type rdf:resource="http://purl.org/dc/dcmitype/StillImage"/>
    <dc:date>2024-11-13T20:25:14.875449</dc:date>
    <dc:format>image/svg+xml</dc:format>
    <dc:creator>
     <cc:Agent>
      <dc:title>Matplotlib v3.9.2, https://matplotlib.org/</dc:title>
     </cc:Agent>
    </dc:creator>
   </cc:Work>
  </rdf:RDF>
 </metadata>
 <defs>
  <style type="text/css">*{stroke-linejoin: round; stroke-linecap: butt}</style>
 </defs>
 <g id="figure_1">
  <g id="patch_1">
   <path d="M 0 345.6 
L 460.8 345.6 
L 460.8 0 
L 0 0 
z
" style="fill: #ffffff"/>
  </g>
  <g id="axes_1">
   <g id="patch_2">
    <path d="M 57.6 307.584 
L 414.72 307.584 
L 414.72 41.472 
L 57.6 41.472 
z
" style="fill: #ffffff"/>
   </g>
   <g id="matplotlib.axis_1">
    <g id="xtick_1">
     <g id="line2d_1">
      <defs>
       <path id="m1ace3381a1" d="M 0 0 
L 0 3.5 
" style="stroke: #000000; stroke-width: 0.8"/>
      </defs>
      <g>
       <use xlink:href="#m1ace3381a1" x="57.6" y="307.584" style="stroke: #000000; stroke-width: 0.8"/>
      </g>
     </g>
     <g id="text_1">
      <!-- −10 -->
      <g transform="translate(47.047656 322.182437) scale(0.1 -0.1)">
       <defs>
        <path id="DejaVuSans-2212" d="M 678 2272 
L 4684 2272 
L 4684 1741 
L 678 1741 
L 678 2272 
z
" transform="scale(0.015625)"/>
        <path id="DejaVuSans-31" d="M 794 531 
L 1825 531 
L 1825 4091 
L 703 3866 
L 703 4441 
L 1819 4666 
L 2450 4666 
L 2450 531 
L 3481 531 
L 3481 0 
L 794 0 
L 794 531 
z
" transform="scale(0.015625)"/>
        <path id="DejaVuSans-30" d="M 2034 4250 
Q 1547 4250 1301 3770 
Q 1056 3291 1056 2328 
Q 1056 1369 1301 889 
Q 1547 409 2034 409 
Q 2525 409 2770 889 
Q 3016 1369 3016 2328 
Q 3016 3291 2770 3770 
Q 2525 4250 2034 4250 
z
M 2034 4750 
Q 2819 4750 3233 4129 
Q 3647 3509 3647 2328 
Q 3647 1150 3233 529 
Q 2819 -91 2034 -91 
Q 1250 -91 836 529 
Q 422 1150 422 2328 
Q 422 3509 836 4129 
Q 1250 4750 2034 4750 
z
" transform="scale(0.015625)"/>
       </defs>
       <use xlink:href="#DejaVuSans-2212"/>
       <use xlink:href="#DejaVuSans-31" x="83.789062"/>
       <use xlink:href="#DejaVuSans-30" x="147.412109"/>
      </g>
     </g>
    </g>
    <g id="xtick_2">
     <g id="line2d_2">
      <g>
       <use xlink:href="#m1ace3381a1" x="97.28" y="307.584" style="stroke: #000000; stroke-width: 0.8"/>
      </g>
     </g>
     <g id="text_2">
      <!-- −8 -->
      <g transform="translate(89.908906 322.182437) scale(0.1 -0.1)">
       <defs>
        <path id="DejaVuSans-38" d="M 2034 2216 
Q 1584 2216 1326 1975 
Q 1069 1734 1069 1313 
Q 1069 891 1326 650 
Q 1584 409 2034 409 
Q 2484 409 2743 651 
Q 3003 894 3003 1313 
Q 3003 1734 2745 1975 
Q 2488 2216 2034 2216 
z
M 1403 2484 
Q 997 2584 770 2862 
Q 544 3141 544 3541 
Q 544 4100 942 4425 
Q 1341 4750 2034 4750 
Q 2731 4750 3128 4425 
Q 3525 4100 3525 3541 
Q 3525 3141 3298 2862 
Q 3072 2584 2669 2484 
Q 3125 2378 3379 2068 
Q 3634 1759 3634 1313 
Q 3634 634 3220 271 
Q 2806 -91 2034 -91 
Q 1263 -91 848 271 
Q 434 634 434 1313 
Q 434 1759 690 2068 
Q 947 2378 1403 2484 
z
M 1172 3481 
Q 1172 3119 1398 2916 
Q 1625 2713 2034 2713 
Q 2441 2713 2670 2916 
Q 2900 3119 2900 3481 
Q 2900 3844 2670 4047 
Q 2441 4250 2034 4250 
Q 1625 4250 1398 4047 
Q 1172 3844 1172 3481 
z
" transform="scale(0.015625)"/>
       </defs>
       <use xlink:href="#DejaVuSans-2212"/>
       <use xlink:href="#DejaVuSans-38" x="83.789062"/>
      </g>
     </g>
    </g>
    <g id="xtick_3">
     <g id="line2d_3">
      <g>
       <use xlink:href="#m1ace3381a1" x="136.96" y="307.584" style="stroke: #000000; stroke-width: 0.8"/>
      </g>
     </g>
     <g id="text_3">
      <!-- −6 -->
      <g transform="translate(129.588906 322.182437) scale(0.1 -0.1)">
       <defs>
        <path id="DejaVuSans-36" d="M 2113 2584 
Q 1688 2584 1439 2293 
Q 1191 2003 1191 1497 
Q 1191 994 1439 701 
Q 1688 409 2113 409 
Q 2538 409 2786 701 
Q 3034 994 3034 1497 
Q 3034 2003 2786 2293 
Q 2538 2584 2113 2584 
z
M 3366 4563 
L 3366 3988 
Q 3128 4100 2886 4159 
Q 2644 4219 2406 4219 
Q 1781 4219 1451 3797 
Q 1122 3375 1075 2522 
Q 1259 2794 1537 2939 
Q 1816 3084 2150 3084 
Q 2853 3084 3261 2657 
Q 3669 2231 3669 1497 
Q 3669 778 3244 343 
Q 2819 -91 2113 -91 
Q 1303 -91 875 529 
Q 447 1150 447 2328 
Q 447 3434 972 4092 
Q 1497 4750 2381 4750 
Q 2619 4750 2861 4703 
Q 3103 4656 3366 4563 
z
" transform="scale(0.015625)"/>
       </defs>
       <use xlink:href="#DejaVuSans-2212"/>
       <use xlink:href="#DejaVuSans-36" x="83.789062"/>
      </g>
     </g>
    </g>
    <g id="xtick_4">
     <g id="line2d_4">
      <g>
       <use xlink:href="#m1ace3381a1" x="176.64" y="307.584" style="stroke: #000000; stroke-width: 0.8"/>
      </g>
     </g>
     <g id="text_4">
      <!-- −4 -->
      <g transform="translate(169.268906 322.182437) scale(0.1 -0.1)">
       <defs>
        <path id="DejaVuSans-34" d="M 2419 4116 
L 825 1625 
L 2419 1625 
L 2419 4116 
z
M 2253 4666 
L 3047 4666 
L 3047 1625 
L 3713 1625 
L 3713 1100 
L 3047 1100 
L 3047 0 
L 2419 0 
L 2419 1100 
L 313 1100 
L 313 1709 
L 2253 4666 
z
" transform="scale(0.015625)"/>
       </defs>
       <use xlink:href="#DejaVuSans-2212"/>
       <use xlink:href="#DejaVuSans-34" x="83.789062"/>
      </g>
     </g>
    </g>
    <g id="xtick_5">
     <g id="line2d_5">
      <g>
       <use xlink:href="#m1ace3381a1" x="216.32" y="307.584" style="stroke: #000000; stroke-width: 0.8"/>
      </g>
     </g>
     <g id="text_5">
      <!-- −2 -->
      <g transform="translate(208.948906 322.182437) scale(0.1 -0.1)">
       <defs>
        <path id="DejaVuSans-32" d="M 1228 531 
L 3431 531 
L 3431 0 
L 469 0 
L 469 531 
Q 828 903 1448 1529 
Q 2069 2156 2228 2338 
Q 2531 2678 2651 2914 
Q 2772 3150 2772 3378 
Q 2772 3750 2511 3984 
Q 2250 4219 1831 4219 
Q 1534 4219 1204 4116 
Q 875 4013 500 3803 
L 500 4441 
Q 881 4594 1212 4672 
Q 1544 4750 1819 4750 
Q 2544 4750 2975 4387 
Q 3406 4025 3406 3419 
Q 3406 3131 3298 2873 
Q 3191 2616 2906 2266 
Q 2828 2175 2409 1742 
Q 1991 1309 1228 531 
z
" transform="scale(0.015625)"/>
       </defs>
       <use xlink:href="#DejaVuSans-2212"/>
       <use xlink:href="#DejaVuSans-32" x="83.789062"/>
      </g>
     </g>
    </g>
    <g id="xtick_6">
     <g id="line2d_6">
      <g>
       <use xlink:href="#m1ace3381a1" x="256" y="307.584" style="stroke: #000000; stroke-width: 0.8"/>
      </g>
     </g>
     <g id="text_6">
      <!-- 0 -->
      <g transform="translate(252.81875 322.182437) scale(0.1 -0.1)">
       <use xlink:href="#DejaVuSans-30"/>
      </g>
     </g>
    </g>
    <g id="xtick_7">
     <g id="line2d_7">
      <g>
       <use xlink:href="#m1ace3381a1" x="295.68" y="307.584" style="stroke: #000000; stroke-width: 0.8"/>
      </g>
     </g>
     <g id="text_7">
      <!-- 2 -->
      <g transform="translate(292.49875 322.182437) scale(0.1 -0.1)">
       <use xlink:href="#DejaVuSans-32"/>
      </g>
     </g>
    </g>
    <g id="xtick_8">
     <g id="line2d_8">
      <g>
       <use xlink:href="#m1ace3381a1" x="335.36" y="307.584" style="stroke: #000000; stroke-width: 0.8"/>
      </g>
     </g>
     <g id="text_8">
      <!-- 4 -->
      <g transform="translate(332.17875 322.182437) scale(0.1 -0.1)">
       <use xlink:href="#DejaVuSans-34"/>
      </g>
     </g>
    </g>
    <g id="xtick_9">
     <g id="line2d_9">
      <g>
       <use xlink:href="#m1ace3381a1" x="375.04" y="307.584" style="stroke: #000000; stroke-width: 0.8"/>
      </g>
     </g>
     <g id="text_9">
      <!-- 6 -->
      <g transform="translate(371.85875 322.182437) scale(0.1 -0.1)">
       <use xlink:href="#DejaVuSans-36"/>
      </g>
     </g>
    </g>
    <g id="xtick_10">
     <g id="line2d_10">
      <g>
       <use xlink:href="#m1ace3381a1" x="414.72" y="307.584" style="stroke: #000000; stroke-width: 0.8"/>
      </g>
     </g>
     <g id="text_10">
      <!-- 8 -->
      <g transform="translate(411.53875 322.182437) scale(0.1 -0.1)">
       <use xlink:href="#DejaVuSans-38"/>
      </g>
     </g>
    </g>
    <g id="text_11">
     <!-- Feature 0 -->
     <g transform="translate(212.499844 335.860562) scale(0.1 -0.1)">
      <defs>
       <path id="DejaVuSans-46" d="M 628 4666 
L 3309 4666 
L 3309 4134 
L 1259 4134 
L 1259 2759 
L 3109 2759 
L 3109 2228 
L 1259 2228 
L 1259 0 
L 628 0 
L 628 4666 
z
" transform="scale(0.015625)"/>
       <path id="DejaVuSans-65" d="M 3597 1894 
L 3597 1613 
L 953 1613 
Q 991 1019 1311 708 
Q 1631 397 2203 397 
Q 2534 397 2845 478 
Q 3156 559 3463 722 
L 3463 178 
Q 3153 47 2828 -22 
Q 2503 -91 2169 -91 
Q 1331 -91 842 396 
Q 353 884 353 1716 
Q 353 2575 817 3079 
Q 1281 3584 2069 3584 
Q 2775 3584 3186 3129 
Q 3597 2675 3597 1894 
z
M 3022 2063 
Q 3016 2534 2758 2815 
Q 2500 3097 2075 3097 
Q 1594 3097 1305 2825 
Q 1016 2553 972 2059 
L 3022 2063 
z
" transform="scale(0.015625)"/>
       <path id="DejaVuSans-61" d="M 2194 1759 
Q 1497 1759 1228 1600 
Q 959 1441 959 1056 
Q 959 750 1161 570 
Q 1363 391 1709 391 
Q 2188 391 2477 730 
Q 2766 1069 2766 1631 
L 2766 1759 
L 2194 1759 
z
M 3341 1997 
L 3341 0 
L 2766 0 
L 2766 531 
Q 2569 213 2275 61 
Q 1981 -91 1556 -91 
Q 1019 -91 701 211 
Q 384 513 384 1019 
Q 384 1609 779 1909 
Q 1175 2209 1959 2209 
L 2766 2209 
L 2766 2266 
Q 2766 2663 2505 2880 
Q 2244 3097 1772 3097 
Q 1472 3097 1187 3025 
Q 903 2953 641 2809 
L 641 3341 
Q 956 3463 1253 3523 
Q 1550 3584 1831 3584 
Q 2591 3584 2966 3190 
Q 3341 2797 3341 1997 
z
" transform="scale(0.015625)"/>
       <path id="DejaVuSans-74" d="M 1172 4494 
L 1172 3500 
L 2356 3500 
L 2356 3053 
L 1172 3053 
L 1172 1153 
Q 1172 725 1289 603 
Q 1406 481 1766 481 
L 2356 481 
L 2356 0 
L 1766 0 
Q 1100 0 847 248 
Q 594 497 594 1153 
L 594 3053 
L 172 3053 
L 172 3500 
L 594 3500 
L 594 4494 
L 1172 4494 
z
" transform="scale(0.015625)"/>
       <path id="DejaVuSans-75" d="M 544 1381 
L 544 3500 
L 1119 3500 
L 1119 1403 
Q 1119 906 1312 657 
Q 1506 409 1894 409 
Q 2359 409 2629 706 
Q 2900 1003 2900 1516 
L 2900 3500 
L 3475 3500 
L 3475 0 
L 2900 0 
L 2900 538 
Q 2691 219 2414 64 
Q 2138 -91 1772 -91 
Q 1169 -91 856 284 
Q 544 659 544 1381 
z
M 1991 3584 
L 1991 3584 
z
" transform="scale(0.015625)"/>
       <path id="DejaVuSans-72" d="M 2631 2963 
Q 2534 3019 2420 3045 
Q 2306 3072 2169 3072 
Q 1681 3072 1420 2755 
Q 1159 2438 1159 1844 
L 1159 0 
L 581 0 
L 581 3500 
L 1159 3500 
L 1159 2956 
Q 1341 3275 1631 3429 
Q 1922 3584 2338 3584 
Q 2397 3584 2469 3576 
Q 2541 3569 2628 3553 
L 2631 2963 
z
" transform="scale(0.015625)"/>
       <path id="DejaVuSans-20" transform="scale(0.015625)"/>
      </defs>
      <use xlink:href="#DejaVuSans-46"/>
      <use xlink:href="#DejaVuSans-65" x="52.019531"/>
      <use xlink:href="#DejaVuSans-61" x="113.542969"/>
      <use xlink:href="#DejaVuSans-74" x="174.822266"/>
      <use xlink:href="#DejaVuSans-75" x="214.03125"/>
      <use xlink:href="#DejaVuSans-72" x="277.410156"/>
      <use xlink:href="#DejaVuSans-65" x="316.273438"/>
      <use xlink:href="#DejaVuSans-20" x="377.796875"/>
      <use xlink:href="#DejaVuSans-30" x="409.583984"/>
     </g>
    </g>
   </g>
   <g id="matplotlib.axis_2">
    <g id="ytick_1">
     <g id="line2d_11">
      <defs>
       <path id="m40b585fdb2" d="M 0 0 
L -3.5 0 
" style="stroke: #000000; stroke-width: 0.8"/>
      </defs>
      <g>
       <use xlink:href="#m40b585fdb2" x="57.6" y="307.584" style="stroke: #000000; stroke-width: 0.8"/>
      </g>
     </g>
     <g id="text_12">
      <!-- −10 -->
      <g transform="translate(29.495313 311.383219) scale(0.1 -0.1)">
       <use xlink:href="#DejaVuSans-2212"/>
       <use xlink:href="#DejaVuSans-31" x="83.789062"/>
       <use xlink:href="#DejaVuSans-30" x="147.412109"/>
      </g>
     </g>
    </g>
    <g id="ytick_2">
     <g id="line2d_12">
      <g>
       <use xlink:href="#m40b585fdb2" x="57.6" y="254.3616" style="stroke: #000000; stroke-width: 0.8"/>
      </g>
     </g>
     <g id="text_13">
      <!-- −5 -->
      <g transform="translate(35.857813 258.160819) scale(0.1 -0.1)">
       <defs>
        <path id="DejaVuSans-35" d="M 691 4666 
L 3169 4666 
L 3169 4134 
L 1269 4134 
L 1269 2991 
Q 1406 3038 1543 3061 
Q 1681 3084 1819 3084 
Q 2600 3084 3056 2656 
Q 3513 2228 3513 1497 
Q 3513 744 3044 326 
Q 2575 -91 1722 -91 
Q 1428 -91 1123 -41 
Q 819 9 494 109 
L 494 744 
Q 775 591 1075 516 
Q 1375 441 1709 441 
Q 2250 441 2565 725 
Q 2881 1009 2881 1497 
Q 2881 1984 2565 2268 
Q 2250 2553 1709 2553 
Q 1456 2553 1204 2497 
Q 953 2441 691 2322 
L 691 4666 
z
" transform="scale(0.015625)"/>
       </defs>
       <use xlink:href="#DejaVuSans-2212"/>
       <use xlink:href="#DejaVuSans-35" x="83.789062"/>
      </g>
     </g>
    </g>
    <g id="ytick_3">
     <g id="line2d_13">
      <g>
       <use xlink:href="#m40b585fdb2" x="57.6" y="201.1392" style="stroke: #000000; stroke-width: 0.8"/>
      </g>
     </g>
     <g id="text_14">
      <!-- 0 -->
      <g transform="translate(44.2375 204.938419) scale(0.1 -0.1)">
       <use xlink:href="#DejaVuSans-30"/>
      </g>
     </g>
    </g>
    <g id="ytick_4">
     <g id="line2d_14">
      <g>
       <use xlink:href="#m40b585fdb2" x="57.6" y="147.9168" style="stroke: #000000; stroke-width: 0.8"/>
      </g>
     </g>
     <g id="text_15">
      <!-- 5 -->
      <g transform="translate(44.2375 151.716019) scale(0.1 -0.1)">
       <use xlink:href="#DejaVuSans-35"/>
      </g>
     </g>
    </g>
    <g id="ytick_5">
     <g id="line2d_15">
      <g>
       <use xlink:href="#m40b585fdb2" x="57.6" y="94.6944" style="stroke: #000000; stroke-width: 0.8"/>
      </g>
     </g>
     <g id="text_16">
      <!-- 10 -->
      <g transform="translate(37.875 98.493619) scale(0.1 -0.1)">
       <use xlink:href="#DejaVuSans-31"/>
       <use xlink:href="#DejaVuSans-30" x="63.623047"/>
      </g>
     </g>
    </g>
    <g id="ytick_6">
     <g id="line2d_16">
      <g>
       <use xlink:href="#m40b585fdb2" x="57.6" y="41.472" style="stroke: #000000; stroke-width: 0.8"/>
      </g>
     </g>
     <g id="text_17">
      <!-- 15 -->
      <g transform="translate(37.875 45.271219) scale(0.1 -0.1)">
       <use xlink:href="#DejaVuSans-31"/>
       <use xlink:href="#DejaVuSans-35" x="63.623047"/>
      </g>
     </g>
    </g>
    <g id="text_18">
     <!-- Feature 1 -->
     <g transform="translate(23.415625 198.188156) rotate(-90) scale(0.1 -0.1)">
      <use xlink:href="#DejaVuSans-46"/>
      <use xlink:href="#DejaVuSans-65" x="52.019531"/>
      <use xlink:href="#DejaVuSans-61" x="113.542969"/>
      <use xlink:href="#DejaVuSans-74" x="174.822266"/>
      <use xlink:href="#DejaVuSans-75" x="214.03125"/>
      <use xlink:href="#DejaVuSans-72" x="277.410156"/>
      <use xlink:href="#DejaVuSans-65" x="316.273438"/>
      <use xlink:href="#DejaVuSans-20" x="377.796875"/>
      <use xlink:href="#DejaVuSans-31" x="409.583984"/>
     </g>
    </g>
   </g>
   <g id="line2d_17">
    <defs>
     <path id="mdd0ee4f82f" d="M 0 5 
C 1.326016 5 2.597899 4.473168 3.535534 3.535534 
C 4.473168 2.597899 5 1.326016 5 0 
C 5 -1.326016 4.473168 -2.597899 3.535534 -3.535534 
C 2.597899 -4.473168 1.326016 -5 0 -5 
C -1.326016 -5 -2.597899 -4.473168 -3.535534 -3.535534 
C -4.473168 -2.597899 -5 -1.326016 -5 0 
C -5 1.326016 -4.473168 2.597899 -3.535534 3.535534 
C -2.597899 4.473168 -1.326016 5 0 5 
z
" style="stroke: #000000"/>
    </defs>
    <g clip-path="url(#p249002b5ee)">
     <use xlink:href="#mdd0ee4f82f" x="196.903147" y="99.411542" style="fill: #1f77b4; stroke: #000000"/>
     <use xlink:href="#mdd0ee4f82f" x="212.789786" y="94.802641" style="fill: #1f77b4; stroke: #000000"/>
     <use xlink:href="#mdd0ee4f82f" x="183.381807" y="101.187702" style="fill: #1f77b4; stroke: #000000"/>
     <use xlink:href="#mdd0ee4f82f" x="195.416966" y="104.006098" style="fill: #1f77b4; stroke: #000000"/>
     <use xlink:href="#mdd0ee4f82f" x="184.267833" y="117.919809" style="fill: #1f77b4; stroke: #000000"/>
     <use xlink:href="#mdd0ee4f82f" x="220.868696" y="103.362685" style="fill: #1f77b4; stroke: #000000"/>
     <use xlink:href="#mdd0ee4f82f" x="204.788838" y="94.504726" style="fill: #1f77b4; stroke: #000000"/>
     <use xlink:href="#mdd0ee4f82f" x="197.023312" y="110.144263" style="fill: #1f77b4; stroke: #000000"/>
     <use xlink:href="#mdd0ee4f82f" x="213.387608" y="88.815212" style="fill: #1f77b4; stroke: #000000"/>
     <use xlink:href="#mdd0ee4f82f" x="205.506731" y="88.531993" style="fill: #1f77b4; stroke: #000000"/>
     <use xlink:href="#mdd0ee4f82f" x="197.078446" y="93.934295" style="fill: #1f77b4; stroke: #000000"/>
     <use xlink:href="#mdd0ee4f82f" x="237.549101" y="97.017868" style="fill: #1f77b4; stroke: #000000"/>
     <use xlink:href="#mdd0ee4f82f" x="194.300848" y="108.29174" style="fill: #1f77b4; stroke: #000000"/>
     <use xlink:href="#mdd0ee4f82f" x="207.557279" y="120.352515" style="fill: #1f77b4; stroke: #000000"/>
     <use xlink:href="#mdd0ee4f82f" x="212.647345" y="109.285812" style="fill: #1f77b4; stroke: #000000"/>
     <use xlink:href="#mdd0ee4f82f" x="196.710702" y="107.163055" style="fill: #1f77b4; stroke: #000000"/>
     <use xlink:href="#mdd0ee4f82f" x="179.866308" y="103.091326" style="fill: #1f77b4; stroke: #000000"/>
     <use xlink:href="#mdd0ee4f82f" x="203.923057" y="108.391904" style="fill: #1f77b4; stroke: #000000"/>
     <use xlink:href="#mdd0ee4f82f" x="222.338031" y="90.750342" style="fill: #1f77b4; stroke: #000000"/>
     <use xlink:href="#mdd0ee4f82f" x="186.12295" y="101.841812" style="fill: #1f77b4; stroke: #000000"/>
     <use xlink:href="#mdd0ee4f82f" x="211.018051" y="125.552685" style="fill: #1f77b4; stroke: #000000"/>
     <use xlink:href="#mdd0ee4f82f" x="171.995149" y="111.17207" style="fill: #1f77b4; stroke: #000000"/>
     <use xlink:href="#mdd0ee4f82f" x="213.034906" y="123.953457" style="fill: #1f77b4; stroke: #000000"/>
     <use xlink:href="#mdd0ee4f82f" x="213.392378" y="112.053776" style="fill: #1f77b4; stroke: #000000"/>
     <use xlink:href="#mdd0ee4f82f" x="222.53681" y="118.182057" style="fill: #1f77b4; stroke: #000000"/>
     <use xlink:href="#mdd0ee4f82f" x="205.949734" y="116.445594" style="fill: #1f77b4; stroke: #000000"/>
     <use xlink:href="#mdd0ee4f82f" x="210.361373" y="126.046481" style="fill: #1f77b4; stroke: #000000"/>
     <use xlink:href="#mdd0ee4f82f" x="235.295991" y="107.590083" style="fill: #1f77b4; stroke: #000000"/>
     <use xlink:href="#mdd0ee4f82f" x="176.883643" y="112.849179" style="fill: #1f77b4; stroke: #000000"/>
     <use xlink:href="#mdd0ee4f82f" x="188.202322" y="120.22005" style="fill: #1f77b4; stroke: #000000"/>
     <use xlink:href="#mdd0ee4f82f" x="194.27966" y="85.470274" style="fill: #1f77b4; stroke: #000000"/>
     <use xlink:href="#mdd0ee4f82f" x="192.787387" y="98.675836" style="fill: #1f77b4; stroke: #000000"/>
     <use xlink:href="#mdd0ee4f82f" x="226.67255" y="95.273819" style="fill: #1f77b4; stroke: #000000"/>
     <use xlink:href="#mdd0ee4f82f" x="189.567443" y="108.478217" style="fill: #1f77b4; stroke: #000000"/>
    </g>
   </g>
   <g id="line2d_18">
    <defs>
     <path id="mb3063f6945" d="M 0 -5 
L -5 5 
L 5 5 
z
" style="stroke: #000000; stroke-linejoin: miter"/>
    </defs>
    <g clip-path="url(#p249002b5ee)">
     <use xlink:href="#mb3063f6945" x="364.195378" y="193.237745" style="fill: #ff7f0e; stroke: #000000; stroke-linejoin: miter"/>
     <use xlink:href="#mb3063f6945" x="375.886635" y="195.05781" style="fill: #ff7f0e; stroke: #000000; stroke-linejoin: miter"/>
     <use xlink:href="#mb3063f6945" x="328.402955" y="186.16378" style="fill: #ff7f0e; stroke: #000000; stroke-linejoin: miter"/>
     <use xlink:href="#mb3063f6945" x="343.696906" y="176.334557" style="fill: #ff7f0e; stroke: #000000; stroke-linejoin: miter"/>
     <use xlink:href="#mb3063f6945" x="349.981215" y="169.825113" style="fill: #ff7f0e; stroke: #000000; stroke-linejoin: miter"/>
     <use xlink:href="#mb3063f6945" x="319.974241" y="184.613385" style="fill: #ff7f0e; stroke: #000000; stroke-linejoin: miter"/>
     <use xlink:href="#mb3063f6945" x="353.930222" y="177.357037" style="fill: #ff7f0e; stroke: #000000; stroke-linejoin: miter"/>
     <use xlink:href="#mb3063f6945" x="344.238755" y="176.92602" style="fill: #ff7f0e; stroke: #000000; stroke-linejoin: miter"/>
     <use xlink:href="#mb3063f6945" x="366.216774" y="176.63645" style="fill: #ff7f0e; stroke: #000000; stroke-linejoin: miter"/>
     <use xlink:href="#mb3063f6945" x="349.87573" y="201.292472" style="fill: #ff7f0e; stroke: #000000; stroke-linejoin: miter"/>
     <use xlink:href="#mb3063f6945" x="347.366515" y="192.575805" style="fill: #ff7f0e; stroke: #000000; stroke-linejoin: miter"/>
     <use xlink:href="#mb3063f6945" x="326.97909" y="175.09469" style="fill: #ff7f0e; stroke: #000000; stroke-linejoin: miter"/>
     <use xlink:href="#mb3063f6945" x="332.014683" y="185.476778" style="fill: #ff7f0e; stroke: #000000; stroke-linejoin: miter"/>
     <use xlink:href="#mb3063f6945" x="296.079453" y="171.38711" style="fill: #ff7f0e; stroke: #000000; stroke-linejoin: miter"/>
     <use xlink:href="#mb3063f6945" x="348.156647" y="182.632893" style="fill: #ff7f0e; stroke: #000000; stroke-linejoin: miter"/>
     <use xlink:href="#mb3063f6945" x="377.376614" y="185.652552" style="fill: #ff7f0e; stroke: #000000; stroke-linejoin: miter"/>
     <use xlink:href="#mb3063f6945" x="334.126463" y="183.623628" style="fill: #ff7f0e; stroke: #000000; stroke-linejoin: miter"/>
     <use xlink:href="#mb3063f6945" x="309.986775" y="180.418061" style="fill: #ff7f0e; stroke: #000000; stroke-linejoin: miter"/>
     <use xlink:href="#mb3063f6945" x="349.250163" y="153.915903" style="fill: #ff7f0e; stroke: #000000; stroke-linejoin: miter"/>
     <use xlink:href="#mb3063f6945" x="337.544754" y="174.67237" style="fill: #ff7f0e; stroke: #000000; stroke-linejoin: miter"/>
     <use xlink:href="#mb3063f6945" x="353.164996" y="180.928273" style="fill: #ff7f0e; stroke: #000000; stroke-linejoin: miter"/>
     <use xlink:href="#mb3063f6945" x="341.25574" y="188.675659" style="fill: #ff7f0e; stroke: #000000; stroke-linejoin: miter"/>
     <use xlink:href="#mb3063f6945" x="350.032279" y="185.495071" style="fill: #ff7f0e; stroke: #000000; stroke-linejoin: miter"/>
     <use xlink:href="#mb3063f6945" x="363.74927" y="189.815791" style="fill: #ff7f0e; stroke: #000000; stroke-linejoin: miter"/>
     <use xlink:href="#mb3063f6945" x="385.477124" y="178.277545" style="fill: #ff7f0e; stroke: #000000; stroke-linejoin: miter"/>
     <use xlink:href="#mb3063f6945" x="317.290034" y="179.406018" style="fill: #ff7f0e; stroke: #000000; stroke-linejoin: miter"/>
     <use xlink:href="#mb3063f6945" x="332.515451" y="183.564012" style="fill: #ff7f0e; stroke: #000000; stroke-linejoin: miter"/>
     <use xlink:href="#mb3063f6945" x="329.813819" y="163.637589" style="fill: #ff7f0e; stroke: #000000; stroke-linejoin: miter"/>
     <use xlink:href="#mb3063f6945" x="340.27577" y="195.71419" style="fill: #ff7f0e; stroke: #000000; stroke-linejoin: miter"/>
     <use xlink:href="#mb3063f6945" x="349.78221" y="183.318613" style="fill: #ff7f0e; stroke: #000000; stroke-linejoin: miter"/>
     <use xlink:href="#mb3063f6945" x="370.728801" y="172.131899" style="fill: #ff7f0e; stroke: #000000; stroke-linejoin: miter"/>
     <use xlink:href="#mb3063f6945" x="359.698441" y="156.819574" style="fill: #ff7f0e; stroke: #000000; stroke-linejoin: miter"/>
     <use xlink:href="#mb3063f6945" x="344.855288" y="175.834923" style="fill: #ff7f0e; stroke: #000000; stroke-linejoin: miter"/>
    </g>
   </g>
   <g id="line2d_19">
    <defs>
     <path id="m4a2dff9016" d="M -0 5 
L 5 -5 
L -5 -5 
z
" style="stroke: #808080; stroke-linejoin: miter"/>
    </defs>
    <g clip-path="url(#p249002b5ee)">
     <use xlink:href="#m4a2dff9016" x="102.707809" y="290.49915" style="fill: #2ca02c; stroke: #808080; stroke-linejoin: miter"/>
     <use xlink:href="#m4a2dff9016" x="126.606698" y="268.405129" style="fill: #2ca02c; stroke: #808080; stroke-linejoin: miter"/>
     <use xlink:href="#m4a2dff9016" x="124.021002" y="260.460534" style="fill: #2ca02c; stroke: #808080; stroke-linejoin: miter"/>
     <use xlink:href="#m4a2dff9016" x="129.863517" y="271.213142" style="fill: #2ca02c; stroke: #808080; stroke-linejoin: miter"/>
     <use xlink:href="#m4a2dff9016" x="98.261689" y="269.238721" style="fill: #2ca02c; stroke: #808080; stroke-linejoin: miter"/>
     <use xlink:href="#m4a2dff9016" x="124.997742" y="265.569453" style="fill: #2ca02c; stroke: #808080; stroke-linejoin: miter"/>
     <use xlink:href="#m4a2dff9016" x="101.972465" y="272.738065" style="fill: #2ca02c; stroke: #808080; stroke-linejoin: miter"/>
     <use xlink:href="#m4a2dff9016" x="128.897231" y="275.149615" style="fill: #2ca02c; stroke: #808080; stroke-linejoin: miter"/>
     <use xlink:href="#m4a2dff9016" x="117.978499" y="270.743004" style="fill: #2ca02c; stroke: #808080; stroke-linejoin: miter"/>
     <use xlink:href="#m4a2dff9016" x="110.64934" y="265.258469" style="fill: #2ca02c; stroke: #808080; stroke-linejoin: miter"/>
     <use xlink:href="#m4a2dff9016" x="131.921437" y="283.498385" style="fill: #2ca02c; stroke: #808080; stroke-linejoin: miter"/>
     <use xlink:href="#m4a2dff9016" x="100.170512" y="265.996283" style="fill: #2ca02c; stroke: #808080; stroke-linejoin: miter"/>
     <use xlink:href="#m4a2dff9016" x="94.967094" y="288.429963" style="fill: #2ca02c; stroke: #808080; stroke-linejoin: miter"/>
     <use xlink:href="#m4a2dff9016" x="106.016506" y="271.902169" style="fill: #2ca02c; stroke: #808080; stroke-linejoin: miter"/>
     <use xlink:href="#m4a2dff9016" x="142.494733" y="283.110125" style="fill: #2ca02c; stroke: #808080; stroke-linejoin: miter"/>
     <use xlink:href="#m4a2dff9016" x="92.175236" y="284.357049" style="fill: #2ca02c; stroke: #808080; stroke-linejoin: miter"/>
     <use xlink:href="#m4a2dff9016" x="87.615729" y="272.409058" style="fill: #2ca02c; stroke: #808080; stroke-linejoin: miter"/>
     <use xlink:href="#m4a2dff9016" x="122.944106" y="270.272886" style="fill: #2ca02c; stroke: #808080; stroke-linejoin: miter"/>
     <use xlink:href="#m4a2dff9016" x="119.766154" y="258.902275" style="fill: #2ca02c; stroke: #808080; stroke-linejoin: miter"/>
     <use xlink:href="#m4a2dff9016" x="124.664271" y="266.052291" style="fill: #2ca02c; stroke: #808080; stroke-linejoin: miter"/>
     <use xlink:href="#m4a2dff9016" x="135.81787" y="254.184014" style="fill: #2ca02c; stroke: #808080; stroke-linejoin: miter"/>
     <use xlink:href="#m4a2dff9016" x="115.074695" y="266.774225" style="fill: #2ca02c; stroke: #808080; stroke-linejoin: miter"/>
     <use xlink:href="#m4a2dff9016" x="125.322754" y="281.978288" style="fill: #2ca02c; stroke: #808080; stroke-linejoin: miter"/>
     <use xlink:href="#m4a2dff9016" x="114.639696" y="282.397518" style="fill: #2ca02c; stroke: #808080; stroke-linejoin: miter"/>
     <use xlink:href="#m4a2dff9016" x="114.257405" y="245.419603" style="fill: #2ca02c; stroke: #808080; stroke-linejoin: miter"/>
     <use xlink:href="#m4a2dff9016" x="123.755816" y="287.63463" style="fill: #2ca02c; stroke: #808080; stroke-linejoin: miter"/>
     <use xlink:href="#m4a2dff9016" x="101.86023" y="283.058265" style="fill: #2ca02c; stroke: #808080; stroke-linejoin: miter"/>
     <use xlink:href="#m4a2dff9016" x="124.477975" y="270.686628" style="fill: #2ca02c; stroke: #808080; stroke-linejoin: miter"/>
     <use xlink:href="#m4a2dff9016" x="95.872735" y="267.385717" style="fill: #2ca02c; stroke: #808080; stroke-linejoin: miter"/>
     <use xlink:href="#m4a2dff9016" x="138.621579" y="269.980551" style="fill: #2ca02c; stroke: #808080; stroke-linejoin: miter"/>
     <use xlink:href="#m4a2dff9016" x="120.663058" y="286.540713" style="fill: #2ca02c; stroke: #808080; stroke-linejoin: miter"/>
     <use xlink:href="#m4a2dff9016" x="156.525163" y="269.330684" style="fill: #2ca02c; stroke: #808080; stroke-linejoin: miter"/>
     <use xlink:href="#m4a2dff9016" x="140.995933" y="263.157214" style="fill: #2ca02c; stroke: #808080; stroke-linejoin: miter"/>
    </g>
   </g>
   <g id="line2d_20">
    <path d="M -1 255.806245 
L 6.987755 252.566734 
L 19.134694 247.640426 
L 31.281633 242.714117 
L 43.428571 237.787809 
L 55.57551 232.861501 
L 67.722449 227.935192 
L 79.869388 223.008884 
L 92.016327 218.082575 
L 104.163265 213.156267 
L 116.310204 208.229958 
L 128.457143 203.30365 
L 140.604082 198.377342 
L 152.75102 193.451033 
L 164.897959 188.524725 
L 177.044898 183.598416 
L 189.191837 178.672108 
L 201.338776 173.7458 
L 213.485714 168.819491 
L 225.632653 163.893183 
L 237.779592 158.966874 
L 249.926531 154.040566 
L 262.073469 149.114258 
L 274.220408 144.187949 
L 286.367347 139.261641 
L 298.514286 134.335332 
L 310.661224 129.409024 
L 322.808163 124.482716 
L 334.955102 119.556407 
L 347.102041 114.630099 
L 359.24898 109.70379 
L 371.395918 104.777482 
L 383.542857 99.851174 
L 395.689796 94.924865 
L 407.836735 89.998557 
L 419.983673 85.072248 
L 432.130612 80.14594 
L 444.277551 75.219632 
L 456.42449 70.293323 
L 461.8 68.113233 
" clip-path="url(#p249002b5ee)" style="fill: none; stroke: #0000ff; stroke-width: 1.5; stroke-linecap: square"/>
   </g>
   <g id="line2d_21">
    <path d="M 211.033591 346.6 
L 213.485714 337.568194 
L 225.632653 292.827873 
L 237.779592 248.087553 
L 249.926531 203.347232 
L 262.073469 158.606911 
L 274.220408 113.86659 
L 286.367347 69.126269 
L 298.514286 24.385948 
L 305.406538 -1 
" clip-path="url(#p249002b5ee)" style="fill: none; stroke: #ff0000; stroke-width: 1.5; stroke-linecap: square"/>
   </g>
   <g id="line2d_22">
    <path d="M -1 77.78755 
L 6.987755 81.760964 
L 19.134694 87.803314 
L 31.281633 93.845665 
L 43.428571 99.888015 
L 55.57551 105.930366 
L 67.722449 111.972717 
L 79.869388 118.015067 
L 92.016327 124.057418 
L 104.163265 130.099768 
L 116.310204 136.142119 
L 128.457143 142.184469 
L 140.604082 148.22682 
L 152.75102 154.269171 
L 164.897959 160.311521 
L 177.044898 166.353872 
L 189.191837 172.396222 
L 201.338776 178.438573 
L 213.485714 184.480924 
L 225.632653 190.523274 
L 237.779592 196.565625 
L 249.926531 202.607975 
L 262.073469 208.650326 
L 274.220408 214.692676 
L 286.367347 220.735027 
L 298.514286 226.777378 
L 310.661224 232.819728 
L 322.808163 238.862079 
L 334.955102 244.904429 
L 347.102041 250.94678 
L 359.24898 256.98913 
L 371.395918 263.031481 
L 383.542857 269.073832 
L 395.689796 275.116182 
L 407.836735 281.158533 
L 419.983673 287.200883 
L 432.130612 293.243234 
L 444.277551 299.285584 
L 456.42449 305.327935 
L 461.8 308.001919 
" clip-path="url(#p249002b5ee)" style="fill: none; stroke: #008000; stroke-width: 1.5; stroke-linecap: square"/>
   </g>
   <g id="patch_3">
    <path d="M 57.6 307.584 
L 57.6 41.472 
" style="fill: none; stroke: #000000; stroke-width: 0.8; stroke-linejoin: miter; stroke-linecap: square"/>
   </g>
   <g id="patch_4">
    <path d="M 414.72 307.584 
L 414.72 41.472 
" style="fill: none; stroke: #000000; stroke-width: 0.8; stroke-linejoin: miter; stroke-linecap: square"/>
   </g>
   <g id="patch_5">
    <path d="M 57.6 307.584 
L 414.72 307.584 
" style="fill: none; stroke: #000000; stroke-width: 0.8; stroke-linejoin: miter; stroke-linecap: square"/>
   </g>
   <g id="patch_6">
    <path d="M 57.6 41.472 
L 414.72 41.472 
" style="fill: none; stroke: #000000; stroke-width: 0.8; stroke-linejoin: miter; stroke-linecap: square"/>
   </g>
   <g id="legend_1">
    <g id="patch_7">
     <path d="M 420.2912 227.7504 
L 510.674013 227.7504 
Q 512.674013 227.7504 512.674013 225.7504 
L 512.674013 138.68165 
Q 512.674013 136.68165 510.674013 136.68165 
L 420.2912 136.68165 
Q 418.2912 136.68165 418.2912 138.68165 
L 418.2912 225.7504 
Q 418.2912 227.7504 420.2912 227.7504 
z
" style="fill: #ffffff; opacity: 0.8; stroke: #cccccc; stroke-linejoin: miter"/>
    </g>
    <g id="line2d_23">
     <g>
      <use xlink:href="#mdd0ee4f82f" x="432.2912" y="144.780087" style="fill: #1f77b4; stroke: #000000"/>
     </g>
    </g>
    <g id="text_19">
     <!-- Class 0 -->
     <g transform="translate(450.2912 148.280087) scale(0.1 -0.1)">
      <defs>
       <path id="DejaVuSans-43" d="M 4122 4306 
L 4122 3641 
Q 3803 3938 3442 4084 
Q 3081 4231 2675 4231 
Q 1875 4231 1450 3742 
Q 1025 3253 1025 2328 
Q 1025 1406 1450 917 
Q 1875 428 2675 428 
Q 3081 428 3442 575 
Q 3803 722 4122 1019 
L 4122 359 
Q 3791 134 3420 21 
Q 3050 -91 2638 -91 
Q 1578 -91 968 557 
Q 359 1206 359 2328 
Q 359 3453 968 4101 
Q 1578 4750 2638 4750 
Q 3056 4750 3426 4639 
Q 3797 4528 4122 4306 
z
" transform="scale(0.015625)"/>
       <path id="DejaVuSans-6c" d="M 603 4863 
L 1178 4863 
L 1178 0 
L 603 0 
L 603 4863 
z
" transform="scale(0.015625)"/>
       <path id="DejaVuSans-73" d="M 2834 3397 
L 2834 2853 
Q 2591 2978 2328 3040 
Q 2066 3103 1784 3103 
Q 1356 3103 1142 2972 
Q 928 2841 928 2578 
Q 928 2378 1081 2264 
Q 1234 2150 1697 2047 
L 1894 2003 
Q 2506 1872 2764 1633 
Q 3022 1394 3022 966 
Q 3022 478 2636 193 
Q 2250 -91 1575 -91 
Q 1294 -91 989 -36 
Q 684 19 347 128 
L 347 722 
Q 666 556 975 473 
Q 1284 391 1588 391 
Q 1994 391 2212 530 
Q 2431 669 2431 922 
Q 2431 1156 2273 1281 
Q 2116 1406 1581 1522 
L 1381 1569 
Q 847 1681 609 1914 
Q 372 2147 372 2553 
Q 372 3047 722 3315 
Q 1072 3584 1716 3584 
Q 2034 3584 2315 3537 
Q 2597 3491 2834 3397 
z
" transform="scale(0.015625)"/>
      </defs>
      <use xlink:href="#DejaVuSans-43"/>
      <use xlink:href="#DejaVuSans-6c" x="69.824219"/>
      <use xlink:href="#DejaVuSans-61" x="97.607422"/>
      <use xlink:href="#DejaVuSans-73" x="158.886719"/>
      <use xlink:href="#DejaVuSans-73" x="210.986328"/>
      <use xlink:href="#DejaVuSans-20" x="263.085938"/>
      <use xlink:href="#DejaVuSans-30" x="294.873047"/>
     </g>
    </g>
    <g id="line2d_24">
     <g>
      <use xlink:href="#mb3063f6945" x="432.2912" y="159.458212" style="fill: #ff7f0e; stroke: #000000; stroke-linejoin: miter"/>
     </g>
    </g>
    <g id="text_20">
     <!-- Class 1 -->
     <g transform="translate(450.2912 162.958212) scale(0.1 -0.1)">
      <use xlink:href="#DejaVuSans-43"/>
      <use xlink:href="#DejaVuSans-6c" x="69.824219"/>
      <use xlink:href="#DejaVuSans-61" x="97.607422"/>
      <use xlink:href="#DejaVuSans-73" x="158.886719"/>
      <use xlink:href="#DejaVuSans-73" x="210.986328"/>
      <use xlink:href="#DejaVuSans-20" x="263.085938"/>
      <use xlink:href="#DejaVuSans-31" x="294.873047"/>
     </g>
    </g>
    <g id="line2d_25">
     <g>
      <use xlink:href="#m4a2dff9016" x="432.2912" y="174.136337" style="fill: #2ca02c; stroke: #808080; stroke-linejoin: miter"/>
     </g>
    </g>
    <g id="text_21">
     <!-- Class 2 -->
     <g transform="translate(450.2912 177.636337) scale(0.1 -0.1)">
      <use xlink:href="#DejaVuSans-43"/>
      <use xlink:href="#DejaVuSans-6c" x="69.824219"/>
      <use xlink:href="#DejaVuSans-61" x="97.607422"/>
      <use xlink:href="#DejaVuSans-73" x="158.886719"/>
      <use xlink:href="#DejaVuSans-73" x="210.986328"/>
      <use xlink:href="#DejaVuSans-20" x="263.085938"/>
      <use xlink:href="#DejaVuSans-32" x="294.873047"/>
     </g>
    </g>
    <g id="line2d_26">
     <path d="M 422.2912 188.814462 
L 432.2912 188.814462 
L 442.2912 188.814462 
" style="fill: none; stroke: #0000ff; stroke-width: 1.5; stroke-linecap: square"/>
    </g>
    <g id="text_22">
     <!-- Line class 0 -->
     <g transform="translate(450.2912 192.314462) scale(0.1 -0.1)">
      <defs>
       <path id="DejaVuSans-4c" d="M 628 4666 
L 1259 4666 
L 1259 531 
L 3531 531 
L 3531 0 
L 628 0 
L 628 4666 
z
" transform="scale(0.015625)"/>
       <path id="DejaVuSans-69" d="M 603 3500 
L 1178 3500 
L 1178 0 
L 603 0 
L 603 3500 
z
M 603 4863 
L 1178 4863 
L 1178 4134 
L 603 4134 
L 603 4863 
z
" transform="scale(0.015625)"/>
       <path id="DejaVuSans-6e" d="M 3513 2113 
L 3513 0 
L 2938 0 
L 2938 2094 
Q 2938 2591 2744 2837 
Q 2550 3084 2163 3084 
Q 1697 3084 1428 2787 
Q 1159 2491 1159 1978 
L 1159 0 
L 581 0 
L 581 3500 
L 1159 3500 
L 1159 2956 
Q 1366 3272 1645 3428 
Q 1925 3584 2291 3584 
Q 2894 3584 3203 3211 
Q 3513 2838 3513 2113 
z
" transform="scale(0.015625)"/>
       <path id="DejaVuSans-63" d="M 3122 3366 
L 3122 2828 
Q 2878 2963 2633 3030 
Q 2388 3097 2138 3097 
Q 1578 3097 1268 2742 
Q 959 2388 959 1747 
Q 959 1106 1268 751 
Q 1578 397 2138 397 
Q 2388 397 2633 464 
Q 2878 531 3122 666 
L 3122 134 
Q 2881 22 2623 -34 
Q 2366 -91 2075 -91 
Q 1284 -91 818 406 
Q 353 903 353 1747 
Q 353 2603 823 3093 
Q 1294 3584 2113 3584 
Q 2378 3584 2631 3529 
Q 2884 3475 3122 3366 
z
" transform="scale(0.015625)"/>
      </defs>
      <use xlink:href="#DejaVuSans-4c"/>
      <use xlink:href="#DejaVuSans-69" x="55.712891"/>
      <use xlink:href="#DejaVuSans-6e" x="83.496094"/>
      <use xlink:href="#DejaVuSans-65" x="146.875"/>
      <use xlink:href="#DejaVuSans-20" x="208.398438"/>
      <use xlink:href="#DejaVuSans-63" x="240.185547"/>
      <use xlink:href="#DejaVuSans-6c" x="295.166016"/>
      <use xlink:href="#DejaVuSans-61" x="322.949219"/>
      <use xlink:href="#DejaVuSans-73" x="384.228516"/>
      <use xlink:href="#DejaVuSans-73" x="436.328125"/>
      <use xlink:href="#DejaVuSans-20" x="488.427734"/>
      <use xlink:href="#DejaVuSans-30" x="520.214844"/>
     </g>
    </g>
    <g id="line2d_27">
     <path d="M 422.2912 203.492587 
L 432.2912 203.492587 
L 442.2912 203.492587 
" style="fill: none; stroke: #ff0000; stroke-width: 1.5; stroke-linecap: square"/>
    </g>
    <g id="text_23">
     <!-- Line class 1 -->
     <g transform="translate(450.2912 206.992587) scale(0.1 -0.1)">
      <use xlink:href="#DejaVuSans-4c"/>
      <use xlink:href="#DejaVuSans-69" x="55.712891"/>
      <use xlink:href="#DejaVuSans-6e" x="83.496094"/>
      <use xlink:href="#DejaVuSans-65" x="146.875"/>
      <use xlink:href="#DejaVuSans-20" x="208.398438"/>
      <use xlink:href="#DejaVuSans-63" x="240.185547"/>
      <use xlink:href="#DejaVuSans-6c" x="295.166016"/>
      <use xlink:href="#DejaVuSans-61" x="322.949219"/>
      <use xlink:href="#DejaVuSans-73" x="384.228516"/>
      <use xlink:href="#DejaVuSans-73" x="436.328125"/>
      <use xlink:href="#DejaVuSans-20" x="488.427734"/>
      <use xlink:href="#DejaVuSans-31" x="520.214844"/>
     </g>
    </g>
    <g id="line2d_28">
     <path d="M 422.2912 218.170712 
L 432.2912 218.170712 
L 442.2912 218.170712 
" style="fill: none; stroke: #008000; stroke-width: 1.5; stroke-linecap: square"/>
    </g>
    <g id="text_24">
     <!-- Line class 2 -->
     <g transform="translate(450.2912 221.670712) scale(0.1 -0.1)">
      <use xlink:href="#DejaVuSans-4c"/>
      <use xlink:href="#DejaVuSans-69" x="55.712891"/>
      <use xlink:href="#DejaVuSans-6e" x="83.496094"/>
      <use xlink:href="#DejaVuSans-65" x="146.875"/>
      <use xlink:href="#DejaVuSans-20" x="208.398438"/>
      <use xlink:href="#DejaVuSans-63" x="240.185547"/>
      <use xlink:href="#DejaVuSans-6c" x="295.166016"/>
      <use xlink:href="#DejaVuSans-61" x="322.949219"/>
      <use xlink:href="#DejaVuSans-73" x="384.228516"/>
      <use xlink:href="#DejaVuSans-73" x="436.328125"/>
      <use xlink:href="#DejaVuSans-20" x="488.427734"/>
      <use xlink:href="#DejaVuSans-32" x="520.214844"/>
     </g>
    </g>
   </g>
  </g>
 </g>
 <defs>
  <clipPath id="p249002b5ee">
   <rect x="57.6" y="41.472" width="357.12" height="266.112"/>
  </clipPath>
 </defs>
</svg>
