<?xml version="1.0" encoding="utf-8" standalone="no"?>
<!DOCTYPE svg PUBLIC "-//W3C//DTD SVG 1.1//EN"
  "http://www.w3.org/Graphics/SVG/1.1/DTD/svg11.dtd">
<svg xmlns:xlink="http://www.w3.org/1999/xlink" width="460.8pt" height="345.6pt" viewBox="0 0 460.8 345.6" xmlns="http://www.w3.org/2000/svg" version="1.1">
 <metadata>
  <rdf:RDF xmlns:dc="http://purl.org/dc/elements/1.1/" xmlns:cc="http://creativecommons.org/ns#" xmlns:rdf="http://www.w3.org/1999/02/22-rdf-syntax-ns#">
   <cc:Work>
    <dc:type rdf:resource="http://purl.org/dc/dcmitype/StillImage"/>
    <dc:date>2024-11-13T20:25:12.862221</dc:date>
    <dc:format>image/svg+xml</dc:format>
    <dc:creator>
     <cc:Agent>
      <dc:title>Matplotlib v3.9.2, https://matplotlib.org/</dc:title>
     </cc:Agent>
    </dc:creator>
   </cc:Work>
  </rdf:RDF>
 </metadata>
 <defs>
  <style type="text/css">*{stroke-linejoin: round; stroke-linecap: butt}</style>
 </defs>
 <g id="figure_1">
  <g id="patch_1">
   <path d="M 0 345.6 
L 460.8 345.6 
L 460.8 0 
L 0 0 
z
" style="fill: #ffffff"/>
  </g>
  <g id="axes_1">
   <g id="patch_2">
    <path d="M 57.6 307.584 
L 414.72 307.584 
L 414.72 41.472 
L 57.6 41.472 
z
" style="fill: #ffffff"/>
   </g>
   <g id="matplotlib.axis_1">
    <g id="xtick_1">
     <g id="line2d_1">
      <defs>
       <path id="m36501e4fb1" d="M 0 0 
L 0 3.5 
" style="stroke: #000000; stroke-width: 0.8"/>
      </defs>
      <g>
       <use xlink:href="#m36501e4fb1" x="88.050203" y="307.584" style="stroke: #000000; stroke-width: 0.8"/>
      </g>
     </g>
     <g id="text_1">
      <!-- −8 -->
      <g transform="translate(80.679109 322.182437) scale(0.1 -0.1)">
       <defs>
        <path id="DejaVuSans-2212" d="M 678 2272 
L 4684 2272 
L 4684 1741 
L 678 1741 
L 678 2272 
z
" transform="scale(0.015625)"/>
        <path id="DejaVuSans-38" d="M 2034 2216 
Q 1584 2216 1326 1975 
Q 1069 1734 1069 1313 
Q 1069 891 1326 650 
Q 1584 409 2034 409 
Q 2484 409 2743 651 
Q 3003 894 3003 1313 
Q 3003 1734 2745 1975 
Q 2488 2216 2034 2216 
z
M 1403 2484 
Q 997 2584 770 2862 
Q 544 3141 544 3541 
Q 544 4100 942 4425 
Q 1341 4750 2034 4750 
Q 2731 4750 3128 4425 
Q 3525 4100 3525 3541 
Q 3525 3141 3298 2862 
Q 3072 2584 2669 2484 
Q 3125 2378 3379 2068 
Q 3634 1759 3634 1313 
Q 3634 634 3220 271 
Q 2806 -91 2034 -91 
Q 1263 -91 848 271 
Q 434 634 434 1313 
Q 434 1759 690 2068 
Q 947 2378 1403 2484 
z
M 1172 3481 
Q 1172 3119 1398 2916 
Q 1625 2713 2034 2713 
Q 2441 2713 2670 2916 
Q 2900 3119 2900 3481 
Q 2900 3844 2670 4047 
Q 2441 4250 2034 4250 
Q 1625 4250 1398 4047 
Q 1172 3844 1172 3481 
z
" transform="scale(0.015625)"/>
       </defs>
       <use xlink:href="#DejaVuSans-2212"/>
       <use xlink:href="#DejaVuSans-38" x="83.789062"/>
      </g>
     </g>
    </g>
    <g id="xtick_2">
     <g id="line2d_2">
      <g>
       <use xlink:href="#m36501e4fb1" x="130.249869" y="307.584" style="stroke: #000000; stroke-width: 0.8"/>
      </g>
     </g>
     <g id="text_2">
      <!-- −6 -->
      <g transform="translate(122.878775 322.182437) scale(0.1 -0.1)">
       <defs>
        <path id="DejaVuSans-36" d="M 2113 2584 
Q 1688 2584 1439 2293 
Q 1191 2003 1191 1497 
Q 1191 994 1439 701 
Q 1688 409 2113 409 
Q 2538 409 2786 701 
Q 3034 994 3034 1497 
Q 3034 2003 2786 2293 
Q 2538 2584 2113 2584 
z
M 3366 4563 
L 3366 3988 
Q 3128 4100 2886 4159 
Q 2644 4219 2406 4219 
Q 1781 4219 1451 3797 
Q 1122 3375 1075 2522 
Q 1259 2794 1537 2939 
Q 1816 3084 2150 3084 
Q 2853 3084 3261 2657 
Q 3669 2231 3669 1497 
Q 3669 778 3244 343 
Q 2819 -91 2113 -91 
Q 1303 -91 875 529 
Q 447 1150 447 2328 
Q 447 3434 972 4092 
Q 1497 4750 2381 4750 
Q 2619 4750 2861 4703 
Q 3103 4656 3366 4563 
z
" transform="scale(0.015625)"/>
       </defs>
       <use xlink:href="#DejaVuSans-2212"/>
       <use xlink:href="#DejaVuSans-36" x="83.789062"/>
      </g>
     </g>
    </g>
    <g id="xtick_3">
     <g id="line2d_3">
      <g>
       <use xlink:href="#m36501e4fb1" x="172.449536" y="307.584" style="stroke: #000000; stroke-width: 0.8"/>
      </g>
     </g>
     <g id="text_3">
      <!-- −4 -->
      <g transform="translate(165.078442 322.182437) scale(0.1 -0.1)">
       <defs>
        <path id="DejaVuSans-34" d="M 2419 4116 
L 825 1625 
L 2419 1625 
L 2419 4116 
z
M 2253 4666 
L 3047 4666 
L 3047 1625 
L 3713 1625 
L 3713 1100 
L 3047 1100 
L 3047 0 
L 2419 0 
L 2419 1100 
L 313 1100 
L 313 1709 
L 2253 4666 
z
" transform="scale(0.015625)"/>
       </defs>
       <use xlink:href="#DejaVuSans-2212"/>
       <use xlink:href="#DejaVuSans-34" x="83.789062"/>
      </g>
     </g>
    </g>
    <g id="xtick_4">
     <g id="line2d_4">
      <g>
       <use xlink:href="#m36501e4fb1" x="214.649202" y="307.584" style="stroke: #000000; stroke-width: 0.8"/>
      </g>
     </g>
     <g id="text_4">
      <!-- −2 -->
      <g transform="translate(207.278108 322.182437) scale(0.1 -0.1)">
       <defs>
        <path id="DejaVuSans-32" d="M 1228 531 
L 3431 531 
L 3431 0 
L 469 0 
L 469 531 
Q 828 903 1448 1529 
Q 2069 2156 2228 2338 
Q 2531 2678 2651 2914 
Q 2772 3150 2772 3378 
Q 2772 3750 2511 3984 
Q 2250 4219 1831 4219 
Q 1534 4219 1204 4116 
Q 875 4013 500 3803 
L 500 4441 
Q 881 4594 1212 4672 
Q 1544 4750 1819 4750 
Q 2544 4750 2975 4387 
Q 3406 4025 3406 3419 
Q 3406 3131 3298 2873 
Q 3191 2616 2906 2266 
Q 2828 2175 2409 1742 
Q 1991 1309 1228 531 
z
" transform="scale(0.015625)"/>
       </defs>
       <use xlink:href="#DejaVuSans-2212"/>
       <use xlink:href="#DejaVuSans-32" x="83.789062"/>
      </g>
     </g>
    </g>
    <g id="xtick_5">
     <g id="line2d_5">
      <g>
       <use xlink:href="#m36501e4fb1" x="256.848868" y="307.584" style="stroke: #000000; stroke-width: 0.8"/>
      </g>
     </g>
     <g id="text_5">
      <!-- 0 -->
      <g transform="translate(253.667618 322.182437) scale(0.1 -0.1)">
       <defs>
        <path id="DejaVuSans-30" d="M 2034 4250 
Q 1547 4250 1301 3770 
Q 1056 3291 1056 2328 
Q 1056 1369 1301 889 
Q 1547 409 2034 409 
Q 2525 409 2770 889 
Q 3016 1369 3016 2328 
Q 3016 3291 2770 3770 
Q 2525 4250 2034 4250 
z
M 2034 4750 
Q 2819 4750 3233 4129 
Q 3647 3509 3647 2328 
Q 3647 1150 3233 529 
Q 2819 -91 2034 -91 
Q 1250 -91 836 529 
Q 422 1150 422 2328 
Q 422 3509 836 4129 
Q 1250 4750 2034 4750 
z
" transform="scale(0.015625)"/>
       </defs>
       <use xlink:href="#DejaVuSans-30"/>
      </g>
     </g>
    </g>
    <g id="xtick_6">
     <g id="line2d_6">
      <g>
       <use xlink:href="#m36501e4fb1" x="299.048535" y="307.584" style="stroke: #000000; stroke-width: 0.8"/>
      </g>
     </g>
     <g id="text_6">
      <!-- 2 -->
      <g transform="translate(295.867285 322.182437) scale(0.1 -0.1)">
       <use xlink:href="#DejaVuSans-32"/>
      </g>
     </g>
    </g>
    <g id="xtick_7">
     <g id="line2d_7">
      <g>
       <use xlink:href="#m36501e4fb1" x="341.248201" y="307.584" style="stroke: #000000; stroke-width: 0.8"/>
      </g>
     </g>
     <g id="text_7">
      <!-- 4 -->
      <g transform="translate(338.066951 322.182437) scale(0.1 -0.1)">
       <use xlink:href="#DejaVuSans-34"/>
      </g>
     </g>
    </g>
    <g id="xtick_8">
     <g id="line2d_8">
      <g>
       <use xlink:href="#m36501e4fb1" x="383.447868" y="307.584" style="stroke: #000000; stroke-width: 0.8"/>
      </g>
     </g>
     <g id="text_8">
      <!-- 6 -->
      <g transform="translate(380.266618 322.182437) scale(0.1 -0.1)">
       <use xlink:href="#DejaVuSans-36"/>
      </g>
     </g>
    </g>
    <g id="text_9">
     <!-- Feature 0 -->
     <g transform="translate(212.499844 335.860562) scale(0.1 -0.1)">
      <defs>
       <path id="DejaVuSans-46" d="M 628 4666 
L 3309 4666 
L 3309 4134 
L 1259 4134 
L 1259 2759 
L 3109 2759 
L 3109 2228 
L 1259 2228 
L 1259 0 
L 628 0 
L 628 4666 
z
" transform="scale(0.015625)"/>
       <path id="DejaVuSans-65" d="M 3597 1894 
L 3597 1613 
L 953 1613 
Q 991 1019 1311 708 
Q 1631 397 2203 397 
Q 2534 397 2845 478 
Q 3156 559 3463 722 
L 3463 178 
Q 3153 47 2828 -22 
Q 2503 -91 2169 -91 
Q 1331 -91 842 396 
Q 353 884 353 1716 
Q 353 2575 817 3079 
Q 1281 3584 2069 3584 
Q 2775 3584 3186 3129 
Q 3597 2675 3597 1894 
z
M 3022 2063 
Q 3016 2534 2758 2815 
Q 2500 3097 2075 3097 
Q 1594 3097 1305 2825 
Q 1016 2553 972 2059 
L 3022 2063 
z
" transform="scale(0.015625)"/>
       <path id="DejaVuSans-61" d="M 2194 1759 
Q 1497 1759 1228 1600 
Q 959 1441 959 1056 
Q 959 750 1161 570 
Q 1363 391 1709 391 
Q 2188 391 2477 730 
Q 2766 1069 2766 1631 
L 2766 1759 
L 2194 1759 
z
M 3341 1997 
L 3341 0 
L 2766 0 
L 2766 531 
Q 2569 213 2275 61 
Q 1981 -91 1556 -91 
Q 1019 -91 701 211 
Q 384 513 384 1019 
Q 384 1609 779 1909 
Q 1175 2209 1959 2209 
L 2766 2209 
L 2766 2266 
Q 2766 2663 2505 2880 
Q 2244 3097 1772 3097 
Q 1472 3097 1187 3025 
Q 903 2953 641 2809 
L 641 3341 
Q 956 3463 1253 3523 
Q 1550 3584 1831 3584 
Q 2591 3584 2966 3190 
Q 3341 2797 3341 1997 
z
" transform="scale(0.015625)"/>
       <path id="DejaVuSans-74" d="M 1172 4494 
L 1172 3500 
L 2356 3500 
L 2356 3053 
L 1172 3053 
L 1172 1153 
Q 1172 725 1289 603 
Q 1406 481 1766 481 
L 2356 481 
L 2356 0 
L 1766 0 
Q 1100 0 847 248 
Q 594 497 594 1153 
L 594 3053 
L 172 3053 
L 172 3500 
L 594 3500 
L 594 4494 
L 1172 4494 
z
" transform="scale(0.015625)"/>
       <path id="DejaVuSans-75" d="M 544 1381 
L 544 3500 
L 1119 3500 
L 1119 1403 
Q 1119 906 1312 657 
Q 1506 409 1894 409 
Q 2359 409 2629 706 
Q 2900 1003 2900 1516 
L 2900 3500 
L 3475 3500 
L 3475 0 
L 2900 0 
L 2900 538 
Q 2691 219 2414 64 
Q 2138 -91 1772 -91 
Q 1169 -91 856 284 
Q 544 659 544 1381 
z
M 1991 3584 
L 1991 3584 
z
" transform="scale(0.015625)"/>
       <path id="DejaVuSans-72" d="M 2631 2963 
Q 2534 3019 2420 3045 
Q 2306 3072 2169 3072 
Q 1681 3072 1420 2755 
Q 1159 2438 1159 1844 
L 1159 0 
L 581 0 
L 581 3500 
L 1159 3500 
L 1159 2956 
Q 1341 3275 1631 3429 
Q 1922 3584 2338 3584 
Q 2397 3584 2469 3576 
Q 2541 3569 2628 3553 
L 2631 2963 
z
" transform="scale(0.015625)"/>
       <path id="DejaVuSans-20" transform="scale(0.015625)"/>
      </defs>
      <use xlink:href="#DejaVuSans-46"/>
      <use xlink:href="#DejaVuSans-65" x="52.019531"/>
      <use xlink:href="#DejaVuSans-61" x="113.542969"/>
      <use xlink:href="#DejaVuSans-74" x="174.822266"/>
      <use xlink:href="#DejaVuSans-75" x="214.03125"/>
      <use xlink:href="#DejaVuSans-72" x="277.410156"/>
      <use xlink:href="#DejaVuSans-65" x="316.273438"/>
      <use xlink:href="#DejaVuSans-20" x="377.796875"/>
      <use xlink:href="#DejaVuSans-30" x="409.583984"/>
     </g>
    </g>
   </g>
   <g id="matplotlib.axis_2">
    <g id="ytick_1">
     <g id="line2d_9">
      <defs>
       <path id="m70cd6b62bc" d="M 0 0 
L -3.5 0 
" style="stroke: #000000; stroke-width: 0.8"/>
      </defs>
      <g>
       <use xlink:href="#m70cd6b62bc" x="57.6" y="280.919014" style="stroke: #000000; stroke-width: 0.8"/>
      </g>
     </g>
     <g id="text_10">
      <!-- −7.5 -->
      <g transform="translate(26.317187 284.718233) scale(0.1 -0.1)">
       <defs>
        <path id="DejaVuSans-37" d="M 525 4666 
L 3525 4666 
L 3525 4397 
L 1831 0 
L 1172 0 
L 2766 4134 
L 525 4134 
L 525 4666 
z
" transform="scale(0.015625)"/>
        <path id="DejaVuSans-2e" d="M 684 794 
L 1344 794 
L 1344 0 
L 684 0 
L 684 794 
z
" transform="scale(0.015625)"/>
        <path id="DejaVuSans-35" d="M 691 4666 
L 3169 4666 
L 3169 4134 
L 1269 4134 
L 1269 2991 
Q 1406 3038 1543 3061 
Q 1681 3084 1819 3084 
Q 2600 3084 3056 2656 
Q 3513 2228 3513 1497 
Q 3513 744 3044 326 
Q 2575 -91 1722 -91 
Q 1428 -91 1123 -41 
Q 819 9 494 109 
L 494 744 
Q 775 591 1075 516 
Q 1375 441 1709 441 
Q 2250 441 2565 725 
Q 2881 1009 2881 1497 
Q 2881 1984 2565 2268 
Q 2250 2553 1709 2553 
Q 1456 2553 1204 2497 
Q 953 2441 691 2322 
L 691 4666 
z
" transform="scale(0.015625)"/>
       </defs>
       <use xlink:href="#DejaVuSans-2212"/>
       <use xlink:href="#DejaVuSans-37" x="83.789062"/>
       <use xlink:href="#DejaVuSans-2e" x="147.412109"/>
       <use xlink:href="#DejaVuSans-35" x="179.199219"/>
      </g>
     </g>
    </g>
    <g id="ytick_2">
     <g id="line2d_10">
      <g>
       <use xlink:href="#m70cd6b62bc" x="57.6" y="250.472184" style="stroke: #000000; stroke-width: 0.8"/>
      </g>
     </g>
     <g id="text_11">
      <!-- −5.0 -->
      <g transform="translate(26.317187 254.271402) scale(0.1 -0.1)">
       <use xlink:href="#DejaVuSans-2212"/>
       <use xlink:href="#DejaVuSans-35" x="83.789062"/>
       <use xlink:href="#DejaVuSans-2e" x="147.412109"/>
       <use xlink:href="#DejaVuSans-30" x="179.199219"/>
      </g>
     </g>
    </g>
    <g id="ytick_3">
     <g id="line2d_11">
      <g>
       <use xlink:href="#m70cd6b62bc" x="57.6" y="220.025353" style="stroke: #000000; stroke-width: 0.8"/>
      </g>
     </g>
     <g id="text_12">
      <!-- −2.5 -->
      <g transform="translate(26.317187 223.824572) scale(0.1 -0.1)">
       <use xlink:href="#DejaVuSans-2212"/>
       <use xlink:href="#DejaVuSans-32" x="83.789062"/>
       <use xlink:href="#DejaVuSans-2e" x="147.412109"/>
       <use xlink:href="#DejaVuSans-35" x="179.199219"/>
      </g>
     </g>
    </g>
    <g id="ytick_4">
     <g id="line2d_12">
      <g>
       <use xlink:href="#m70cd6b62bc" x="57.6" y="189.578523" style="stroke: #000000; stroke-width: 0.8"/>
      </g>
     </g>
     <g id="text_13">
      <!-- 0.0 -->
      <g transform="translate(34.696875 193.377742) scale(0.1 -0.1)">
       <use xlink:href="#DejaVuSans-30"/>
       <use xlink:href="#DejaVuSans-2e" x="63.623047"/>
       <use xlink:href="#DejaVuSans-30" x="95.410156"/>
      </g>
     </g>
    </g>
    <g id="ytick_5">
     <g id="line2d_13">
      <g>
       <use xlink:href="#m70cd6b62bc" x="57.6" y="159.131692" style="stroke: #000000; stroke-width: 0.8"/>
      </g>
     </g>
     <g id="text_14">
      <!-- 2.5 -->
      <g transform="translate(34.696875 162.930911) scale(0.1 -0.1)">
       <use xlink:href="#DejaVuSans-32"/>
       <use xlink:href="#DejaVuSans-2e" x="63.623047"/>
       <use xlink:href="#DejaVuSans-35" x="95.410156"/>
      </g>
     </g>
    </g>
    <g id="ytick_6">
     <g id="line2d_14">
      <g>
       <use xlink:href="#m70cd6b62bc" x="57.6" y="128.684862" style="stroke: #000000; stroke-width: 0.8"/>
      </g>
     </g>
     <g id="text_15">
      <!-- 5.0 -->
      <g transform="translate(34.696875 132.484081) scale(0.1 -0.1)">
       <use xlink:href="#DejaVuSans-35"/>
       <use xlink:href="#DejaVuSans-2e" x="63.623047"/>
       <use xlink:href="#DejaVuSans-30" x="95.410156"/>
      </g>
     </g>
    </g>
    <g id="ytick_7">
     <g id="line2d_15">
      <g>
       <use xlink:href="#m70cd6b62bc" x="57.6" y="98.238032" style="stroke: #000000; stroke-width: 0.8"/>
      </g>
     </g>
     <g id="text_16">
      <!-- 7.5 -->
      <g transform="translate(34.696875 102.03725) scale(0.1 -0.1)">
       <use xlink:href="#DejaVuSans-37"/>
       <use xlink:href="#DejaVuSans-2e" x="63.623047"/>
       <use xlink:href="#DejaVuSans-35" x="95.410156"/>
      </g>
     </g>
    </g>
    <g id="ytick_8">
     <g id="line2d_16">
      <g>
       <use xlink:href="#m70cd6b62bc" x="57.6" y="67.791201" style="stroke: #000000; stroke-width: 0.8"/>
      </g>
     </g>
     <g id="text_17">
      <!-- 10.0 -->
      <g transform="translate(28.334375 71.59042) scale(0.1 -0.1)">
       <defs>
        <path id="DejaVuSans-31" d="M 794 531 
L 1825 531 
L 1825 4091 
L 703 3866 
L 703 4441 
L 1819 4666 
L 2450 4666 
L 2450 531 
L 3481 531 
L 3481 0 
L 794 0 
L 794 531 
z
" transform="scale(0.015625)"/>
       </defs>
       <use xlink:href="#DejaVuSans-31"/>
       <use xlink:href="#DejaVuSans-30" x="63.623047"/>
       <use xlink:href="#DejaVuSans-2e" x="127.246094"/>
       <use xlink:href="#DejaVuSans-30" x="159.033203"/>
      </g>
     </g>
    </g>
    <g id="text_18">
     <!-- Feature 1 -->
     <g transform="translate(20.2375 198.188156) rotate(-90) scale(0.1 -0.1)">
      <use xlink:href="#DejaVuSans-46"/>
      <use xlink:href="#DejaVuSans-65" x="52.019531"/>
      <use xlink:href="#DejaVuSans-61" x="113.542969"/>
      <use xlink:href="#DejaVuSans-74" x="174.822266"/>
      <use xlink:href="#DejaVuSans-75" x="214.03125"/>
      <use xlink:href="#DejaVuSans-72" x="277.410156"/>
      <use xlink:href="#DejaVuSans-65" x="316.273438"/>
      <use xlink:href="#DejaVuSans-20" x="377.796875"/>
      <use xlink:href="#DejaVuSans-31" x="409.583984"/>
     </g>
    </g>
   </g>
   <g id="line2d_17">
    <defs>
     <path id="ma5a1abe1d0" d="M 0 5 
C 1.326016 5 2.597899 4.473168 3.535534 3.535534 
C 4.473168 2.597899 5 1.326016 5 0 
C 5 -1.326016 4.473168 -2.597899 3.535534 -3.535534 
C 2.597899 -4.473168 1.326016 -5 0 -5 
C -1.326016 -5 -2.597899 -4.473168 -3.535534 -3.535534 
C -4.473168 -2.597899 -5 -1.326016 -5 0 
C -5 1.326016 -4.473168 2.597899 -3.535534 3.535534 
C -2.597899 4.473168 -1.326016 5 0 5 
z
" style="stroke: #000000"/>
    </defs>
    <g clip-path="url(#p928889bbbe)">
     <use xlink:href="#ma5a1abe1d0" x="193.999386" y="73.188253" style="fill: #1f77b4; stroke: #000000"/>
     <use xlink:href="#ma5a1abe1d0" x="210.89482" y="67.915044" style="fill: #1f77b4; stroke: #000000"/>
     <use xlink:href="#ma5a1abe1d0" x="179.619445" y="75.220421" style="fill: #1f77b4; stroke: #000000"/>
     <use xlink:href="#ma5a1abe1d0" x="192.418832" y="78.44505" style="fill: #1f77b4; stroke: #000000"/>
     <use xlink:href="#ma5a1abe1d0" x="180.561734" y="94.364227" style="fill: #1f77b4; stroke: #000000"/>
     <use xlink:href="#ma5a1abe1d0" x="219.486739" y="77.708898" style="fill: #1f77b4; stroke: #000000"/>
     <use xlink:href="#ma5a1abe1d0" x="202.385816" y="67.574188" style="fill: #1f77b4; stroke: #000000"/>
     <use xlink:href="#ma5a1abe1d0" x="194.127181" y="85.467944" style="fill: #1f77b4; stroke: #000000"/>
     <use xlink:href="#ma5a1abe1d0" x="211.530604" y="61.064611" style="fill: #1f77b4; stroke: #000000"/>
     <use xlink:href="#ma5a1abe1d0" x="203.149294" y="60.740571" style="fill: #1f77b4; stroke: #000000"/>
     <use xlink:href="#ma5a1abe1d0" x="194.185816" y="66.921538" style="fill: #1f77b4; stroke: #000000"/>
     <use xlink:href="#ma5a1abe1d0" x="237.226344" y="70.449565" style="fill: #1f77b4; stroke: #000000"/>
     <use xlink:href="#ma5a1abe1d0" x="191.231841" y="83.348407" style="fill: #1f77b4; stroke: #000000"/>
     <use xlink:href="#ma5a1abe1d0" x="205.330051" y="97.147573" style="fill: #1f77b4; stroke: #000000"/>
     <use xlink:href="#ma5a1abe1d0" x="210.743335" y="84.485761" style="fill: #1f77b4; stroke: #000000"/>
     <use xlink:href="#ma5a1abe1d0" x="193.794721" y="82.057038" style="fill: #1f77b4; stroke: #000000"/>
     <use xlink:href="#ma5a1abe1d0" x="175.880713" y="77.398426" style="fill: #1f77b4; stroke: #000000"/>
     <use xlink:href="#ma5a1abe1d0" x="201.465058" y="83.463008" style="fill: #1f77b4; stroke: #000000"/>
     <use xlink:href="#ma5a1abe1d0" x="221.049376" y="63.278663" style="fill: #1f77b4; stroke: #000000"/>
     <use xlink:href="#ma5a1abe1d0" x="182.534649" y="75.968812" style="fill: #1f77b4; stroke: #000000"/>
     <use xlink:href="#ma5a1abe1d0" x="209.010581" y="103.097274" style="fill: #1f77b4; stroke: #000000"/>
     <use xlink:href="#ma5a1abe1d0" x="167.509739" y="86.643896" style="fill: #1f77b4; stroke: #000000"/>
     <use xlink:href="#ma5a1abe1d0" x="211.155506" y="101.26754" style="fill: #1f77b4; stroke: #000000"/>
     <use xlink:href="#ma5a1abe1d0" x="211.535677" y="87.652687" style="fill: #1f77b4; stroke: #000000"/>
     <use xlink:href="#ma5a1abe1d0" x="221.260778" y="94.664274" style="fill: #1f77b4; stroke: #000000"/>
     <use xlink:href="#ma5a1abe1d0" x="203.620428" y="92.677525" style="fill: #1f77b4; stroke: #000000"/>
     <use xlink:href="#ma5a1abe1d0" x="208.312204" y="103.662244" style="fill: #1f77b4; stroke: #000000"/>
     <use xlink:href="#ma5a1abe1d0" x="234.830162" y="82.545616" style="fill: #1f77b4; stroke: #000000"/>
     <use xlink:href="#ma5a1abe1d0" x="172.70865" y="88.562736" style="fill: #1f77b4; stroke: #000000"/>
     <use xlink:href="#ma5a1abe1d0" x="184.746061" y="96.996015" style="fill: #1f77b4; stroke: #000000"/>
     <use xlink:href="#ma5a1abe1d0" x="191.209308" y="57.237547" style="fill: #1f77b4; stroke: #000000"/>
     <use xlink:href="#ma5a1abe1d0" x="189.622276" y="72.346505" style="fill: #1f77b4; stroke: #000000"/>
     <use xlink:href="#ma5a1abe1d0" x="225.659135" y="68.454135" style="fill: #1f77b4; stroke: #000000"/>
     <use xlink:href="#ma5a1abe1d0" x="186.197867" y="83.561761" style="fill: #1f77b4; stroke: #000000"/>
    </g>
   </g>
   <g id="line2d_18">
    <defs>
     <path id="mc6c944a4bd" d="M 0 -5 
L -5 5 
L 5 5 
z
" style="stroke: #000000; stroke-linejoin: miter"/>
    </defs>
    <g clip-path="url(#p928889bbbe)">
     <use xlink:href="#mc6c944a4bd" x="371.914616" y="180.538185" style="fill: #ff7f0e; stroke: #000000; stroke-linejoin: miter"/>
     <use xlink:href="#mc6c944a4bd" x="384.348264" y="182.620586" style="fill: #ff7f0e; stroke: #000000; stroke-linejoin: miter"/>
     <use xlink:href="#mc6c944a4bd" x="333.849387" y="172.444606" style="fill: #ff7f0e; stroke: #000000; stroke-linejoin: miter"/>
     <use xlink:href="#mc6c944a4bd" x="350.114498" y="161.198639" style="fill: #ff7f0e; stroke: #000000; stroke-linejoin: miter"/>
     <use xlink:href="#mc6c944a4bd" x="356.797858" y="153.75095" style="fill: #ff7f0e; stroke: #000000; stroke-linejoin: miter"/>
     <use xlink:href="#mc6c944a4bd" x="324.885451" y="170.670744" style="fill: #ff7f0e; stroke: #000000; stroke-linejoin: miter"/>
     <use xlink:href="#mc6c944a4bd" x="360.997626" y="162.368496" style="fill: #ff7f0e; stroke: #000000; stroke-linejoin: miter"/>
     <use xlink:href="#mc6c944a4bd" x="350.690754" y="161.875353" style="fill: #ff7f0e; stroke: #000000; stroke-linejoin: miter"/>
     <use xlink:href="#mc6c944a4bd" x="374.06437" y="161.544046" style="fill: #ff7f0e; stroke: #000000; stroke-linejoin: miter"/>
     <use xlink:href="#mc6c944a4bd" x="356.685675" y="189.753887" style="fill: #ff7f0e; stroke: #000000; stroke-linejoin: miter"/>
     <use xlink:href="#mc6c944a4bd" x="354.017125" y="179.780835" style="fill: #ff7f0e; stroke: #000000; stroke-linejoin: miter"/>
     <use xlink:href="#mc6c944a4bd" x="332.335107" y="159.780062" style="fill: #ff7f0e; stroke: #000000; stroke-linejoin: miter"/>
     <use xlink:href="#mc6c944a4bd" x="337.690458" y="171.658582" style="fill: #ff7f0e; stroke: #000000; stroke-linejoin: miter"/>
     <use xlink:href="#mc6c944a4bd" x="299.473353" y="155.538087" style="fill: #ff7f0e; stroke: #000000; stroke-linejoin: miter"/>
     <use xlink:href="#mc6c944a4bd" x="354.857431" y="168.404792" style="fill: #ff7f0e; stroke: #000000; stroke-linejoin: miter"/>
     <use xlink:href="#mc6c944a4bd" x="385.932856" y="171.859692" style="fill: #ff7f0e; stroke: #000000; stroke-linejoin: miter"/>
     <use xlink:href="#mc6c944a4bd" x="339.936335" y="169.538327" style="fill: #ff7f0e; stroke: #000000; stroke-linejoin: miter"/>
     <use xlink:href="#mc6c944a4bd" x="314.263785" y="165.870723" style="fill: #ff7f0e; stroke: #000000; stroke-linejoin: miter"/>
     <use xlink:href="#mc6c944a4bd" x="356.020385" y="135.548652" style="fill: #ff7f0e; stroke: #000000; stroke-linejoin: miter"/>
     <use xlink:href="#mc6c944a4bd" x="343.571686" y="159.296871" style="fill: #ff7f0e; stroke: #000000; stroke-linejoin: miter"/>
     <use xlink:href="#mc6c944a4bd" x="360.183808" y="166.454475" style="fill: #ff7f0e; stroke: #000000; stroke-linejoin: miter"/>
     <use xlink:href="#mc6c944a4bd" x="347.518319" y="175.318538" style="fill: #ff7f0e; stroke: #000000; stroke-linejoin: miter"/>
     <use xlink:href="#mc6c944a4bd" x="356.852165" y="171.679513" style="fill: #ff7f0e; stroke: #000000; stroke-linejoin: miter"/>
     <use xlink:href="#mc6c944a4bd" x="371.44018" y="176.623004" style="fill: #ff7f0e; stroke: #000000; stroke-linejoin: miter"/>
     <use xlink:href="#mc6c944a4bd" x="394.547746" y="163.421681" style="fill: #ff7f0e; stroke: #000000; stroke-linejoin: miter"/>
     <use xlink:href="#mc6c944a4bd" x="322.030798" y="164.712808" style="fill: #ff7f0e; stroke: #000000; stroke-linejoin: miter"/>
     <use xlink:href="#mc6c944a4bd" x="338.223024" y="169.470119" style="fill: #ff7f0e; stroke: #000000; stroke-linejoin: miter"/>
     <use xlink:href="#mc6c944a4bd" x="335.34984" y="146.671582" style="fill: #ff7f0e; stroke: #000000; stroke-linejoin: miter"/>
     <use xlink:href="#mc6c944a4bd" x="346.476121" y="183.371574" style="fill: #ff7f0e; stroke: #000000; stroke-linejoin: miter"/>
     <use xlink:href="#mc6c944a4bd" x="356.586217" y="169.189348" style="fill: #ff7f0e; stroke: #000000; stroke-linejoin: miter"/>
     <use xlink:href="#mc6c944a4bd" x="378.862909" y="156.390227" style="fill: #ff7f0e; stroke: #000000; stroke-linejoin: miter"/>
     <use xlink:href="#mc6c944a4bd" x="367.132125" y="138.870845" style="fill: #ff7f0e; stroke: #000000; stroke-linejoin: miter"/>
     <use xlink:href="#mc6c944a4bd" x="351.346436" y="160.626991" style="fill: #ff7f0e; stroke: #000000; stroke-linejoin: miter"/>
    </g>
   </g>
   <g id="line2d_19">
    <defs>
     <path id="mfc1aa4a420" d="M -0 5 
L 5 -5 
L -5 -5 
z
" style="stroke: #808080; stroke-linejoin: miter"/>
    </defs>
    <g clip-path="url(#p928889bbbe)">
     <use xlink:href="#mfc1aa4a420" x="93.822676" y="291.818453" style="fill: #2ca02c; stroke: #808080; stroke-linejoin: miter"/>
     <use xlink:href="#mfc1aa4a420" x="119.239136" y="266.53989" style="fill: #2ca02c; stroke: #808080; stroke-linejoin: miter"/>
     <use xlink:href="#mfc1aa4a420" x="116.489249" y="257.450193" style="fill: #2ca02c; stroke: #808080; stroke-linejoin: miter"/>
     <use xlink:href="#mfc1aa4a420" x="122.702762" y="269.752638" style="fill: #2ca02c; stroke: #808080; stroke-linejoin: miter"/>
     <use xlink:href="#mfc1aa4a420" x="89.094229" y="267.493632" style="fill: #2ca02c; stroke: #808080; stroke-linejoin: miter"/>
     <use xlink:href="#mfc1aa4a420" x="117.528012" y="263.295491" style="fill: #2ca02c; stroke: #808080; stroke-linejoin: miter"/>
     <use xlink:href="#mfc1aa4a420" x="93.040638" y="271.497358" style="fill: #2ca02c; stroke: #808080; stroke-linejoin: miter"/>
     <use xlink:href="#mfc1aa4a420" x="121.675117" y="274.256499" style="fill: #2ca02c; stroke: #808080; stroke-linejoin: miter"/>
     <use xlink:href="#mfc1aa4a420" x="110.063049" y="269.214736" style="fill: #2ca02c; stroke: #808080; stroke-linejoin: miter"/>
     <use xlink:href="#mfc1aa4a420" x="102.268491" y="262.939683" style="fill: #2ca02c; stroke: #808080; stroke-linejoin: miter"/>
     <use xlink:href="#mfc1aa4a420" x="124.891359" y="283.808627" style="fill: #2ca02c; stroke: #808080; stroke-linejoin: miter"/>
     <use xlink:href="#mfc1aa4a420" x="91.124262" y="263.783842" style="fill: #2ca02c; stroke: #808080; stroke-linejoin: miter"/>
     <use xlink:href="#mfc1aa4a420" x="85.590429" y="289.451022" style="fill: #2ca02c; stroke: #808080; stroke-linejoin: miter"/>
     <use xlink:href="#mfc1aa4a420" x="97.341474" y="270.540979" style="fill: #2ca02c; stroke: #808080; stroke-linejoin: miter"/>
     <use xlink:href="#mfc1aa4a420" x="136.136056" y="283.364405" style="fill: #2ca02c; stroke: #808080; stroke-linejoin: miter"/>
     <use xlink:href="#mfc1aa4a420" x="82.621288" y="284.791055" style="fill: #2ca02c; stroke: #808080; stroke-linejoin: miter"/>
     <use xlink:href="#mfc1aa4a420" x="77.772254" y="271.120928" style="fill: #2ca02c; stroke: #808080; stroke-linejoin: miter"/>
     <use xlink:href="#mfc1aa4a420" x="115.343971" y="268.676858" style="fill: #2ca02c; stroke: #808080; stroke-linejoin: miter"/>
     <use xlink:href="#mfc1aa4a420" x="111.96422" y="255.667333" style="fill: #2ca02c; stroke: #808080; stroke-linejoin: miter"/>
     <use xlink:href="#mfc1aa4a420" x="117.173366" y="263.847923" style="fill: #2ca02c; stroke: #808080; stroke-linejoin: miter"/>
     <use xlink:href="#mfc1aa4a420" x="129.035214" y="250.269001" style="fill: #2ca02c; stroke: #808080; stroke-linejoin: miter"/>
     <use xlink:href="#mfc1aa4a420" x="106.974855" y="264.673914" style="fill: #2ca02c; stroke: #808080; stroke-linejoin: miter"/>
     <use xlink:href="#mfc1aa4a420" x="117.873663" y="282.069429" style="fill: #2ca02c; stroke: #808080; stroke-linejoin: miter"/>
     <use xlink:href="#mfc1aa4a420" x="106.512234" y="282.549086" style="fill: #2ca02c; stroke: #808080; stroke-linejoin: miter"/>
     <use xlink:href="#mfc1aa4a420" x="106.105667" y="240.241323" style="fill: #2ca02c; stroke: #808080; stroke-linejoin: miter"/>
     <use xlink:href="#mfc1aa4a420" x="116.207225" y="288.541054" style="fill: #2ca02c; stroke: #808080; stroke-linejoin: miter"/>
     <use xlink:href="#mfc1aa4a420" x="92.921276" y="283.30507" style="fill: #2ca02c; stroke: #808080; stroke-linejoin: miter"/>
     <use xlink:href="#mfc1aa4a420" x="116.97524" y="269.150235" style="fill: #2ca02c; stroke: #808080; stroke-linejoin: miter"/>
     <use xlink:href="#mfc1aa4a420" x="86.553577" y="265.373544" style="fill: #2ca02c; stroke: #808080; stroke-linejoin: miter"/>
     <use xlink:href="#mfc1aa4a420" x="132.016958" y="268.342386" style="fill: #2ca02c; stroke: #808080; stroke-linejoin: miter"/>
     <use xlink:href="#mfc1aa4a420" x="112.918076" y="287.289464" style="fill: #2ca02c; stroke: #808080; stroke-linejoin: miter"/>
     <use xlink:href="#mfc1aa4a420" x="151.057413" y="267.59885" style="fill: #2ca02c; stroke: #808080; stroke-linejoin: miter"/>
     <use xlink:href="#mfc1aa4a420" x="134.542083" y="260.535562" style="fill: #2ca02c; stroke: #808080; stroke-linejoin: miter"/>
    </g>
   </g>
   <g id="patch_3">
    <path d="M 57.6 307.584 
L 57.6 41.472 
" style="fill: none; stroke: #000000; stroke-width: 0.8; stroke-linejoin: miter; stroke-linecap: square"/>
   </g>
   <g id="patch_4">
    <path d="M 414.72 307.584 
L 414.72 41.472 
" style="fill: none; stroke: #000000; stroke-width: 0.8; stroke-linejoin: miter; stroke-linecap: square"/>
   </g>
   <g id="patch_5">
    <path d="M 57.6 307.584 
L 414.72 307.584 
" style="fill: none; stroke: #000000; stroke-width: 0.8; stroke-linejoin: miter; stroke-linecap: square"/>
   </g>
   <g id="patch_6">
    <path d="M 57.6 41.472 
L 414.72 41.472 
" style="fill: none; stroke: #000000; stroke-width: 0.8; stroke-linejoin: miter; stroke-linecap: square"/>
   </g>
   <g id="legend_1">
    <g id="patch_7">
     <path d="M 339.871563 93.506375 
L 407.72 93.506375 
Q 409.72 93.506375 409.72 91.506375 
L 409.72 48.472 
Q 409.72 46.472 407.72 46.472 
L 339.871563 46.472 
Q 337.871563 46.472 337.871563 48.472 
L 337.871563 91.506375 
Q 337.871563 93.506375 339.871563 93.506375 
z
" style="fill: #ffffff; opacity: 0.8; stroke: #cccccc; stroke-linejoin: miter"/>
    </g>
    <g id="line2d_20">
     <g>
      <use xlink:href="#ma5a1abe1d0" x="351.871563" y="54.570438" style="fill: #1f77b4; stroke: #000000"/>
     </g>
    </g>
    <g id="text_19">
     <!-- Class 0 -->
     <g transform="translate(369.871563 58.070438) scale(0.1 -0.1)">
      <defs>
       <path id="DejaVuSans-43" d="M 4122 4306 
L 4122 3641 
Q 3803 3938 3442 4084 
Q 3081 4231 2675 4231 
Q 1875 4231 1450 3742 
Q 1025 3253 1025 2328 
Q 1025 1406 1450 917 
Q 1875 428 2675 428 
Q 3081 428 3442 575 
Q 3803 722 4122 1019 
L 4122 359 
Q 3791 134 3420 21 
Q 3050 -91 2638 -91 
Q 1578 -91 968 557 
Q 359 1206 359 2328 
Q 359 3453 968 4101 
Q 1578 4750 2638 4750 
Q 3056 4750 3426 4639 
Q 3797 4528 4122 4306 
z
" transform="scale(0.015625)"/>
       <path id="DejaVuSans-6c" d="M 603 4863 
L 1178 4863 
L 1178 0 
L 603 0 
L 603 4863 
z
" transform="scale(0.015625)"/>
       <path id="DejaVuSans-73" d="M 2834 3397 
L 2834 2853 
Q 2591 2978 2328 3040 
Q 2066 3103 1784 3103 
Q 1356 3103 1142 2972 
Q 928 2841 928 2578 
Q 928 2378 1081 2264 
Q 1234 2150 1697 2047 
L 1894 2003 
Q 2506 1872 2764 1633 
Q 3022 1394 3022 966 
Q 3022 478 2636 193 
Q 2250 -91 1575 -91 
Q 1294 -91 989 -36 
Q 684 19 347 128 
L 347 722 
Q 666 556 975 473 
Q 1284 391 1588 391 
Q 1994 391 2212 530 
Q 2431 669 2431 922 
Q 2431 1156 2273 1281 
Q 2116 1406 1581 1522 
L 1381 1569 
Q 847 1681 609 1914 
Q 372 2147 372 2553 
Q 372 3047 722 3315 
Q 1072 3584 1716 3584 
Q 2034 3584 2315 3537 
Q 2597 3491 2834 3397 
z
" transform="scale(0.015625)"/>
      </defs>
      <use xlink:href="#DejaVuSans-43"/>
      <use xlink:href="#DejaVuSans-6c" x="69.824219"/>
      <use xlink:href="#DejaVuSans-61" x="97.607422"/>
      <use xlink:href="#DejaVuSans-73" x="158.886719"/>
      <use xlink:href="#DejaVuSans-73" x="210.986328"/>
      <use xlink:href="#DejaVuSans-20" x="263.085938"/>
      <use xlink:href="#DejaVuSans-30" x="294.873047"/>
     </g>
    </g>
    <g id="line2d_21">
     <g>
      <use xlink:href="#mc6c944a4bd" x="351.871563" y="69.248563" style="fill: #ff7f0e; stroke: #000000; stroke-linejoin: miter"/>
     </g>
    </g>
    <g id="text_20">
     <!-- Class 1 -->
     <g transform="translate(369.871563 72.748563) scale(0.1 -0.1)">
      <use xlink:href="#DejaVuSans-43"/>
      <use xlink:href="#DejaVuSans-6c" x="69.824219"/>
      <use xlink:href="#DejaVuSans-61" x="97.607422"/>
      <use xlink:href="#DejaVuSans-73" x="158.886719"/>
      <use xlink:href="#DejaVuSans-73" x="210.986328"/>
      <use xlink:href="#DejaVuSans-20" x="263.085938"/>
      <use xlink:href="#DejaVuSans-31" x="294.873047"/>
     </g>
    </g>
    <g id="line2d_22">
     <g>
      <use xlink:href="#mfc1aa4a420" x="351.871563" y="83.926688" style="fill: #2ca02c; stroke: #808080; stroke-linejoin: miter"/>
     </g>
    </g>
    <g id="text_21">
     <!-- Class 2 -->
     <g transform="translate(369.871563 87.426688) scale(0.1 -0.1)">
      <use xlink:href="#DejaVuSans-43"/>
      <use xlink:href="#DejaVuSans-6c" x="69.824219"/>
      <use xlink:href="#DejaVuSans-61" x="97.607422"/>
      <use xlink:href="#DejaVuSans-73" x="158.886719"/>
      <use xlink:href="#DejaVuSans-73" x="210.986328"/>
      <use xlink:href="#DejaVuSans-20" x="263.085938"/>
      <use xlink:href="#DejaVuSans-32" x="294.873047"/>
     </g>
    </g>
   </g>
  </g>
 </g>
 <defs>
  <clipPath id="p928889bbbe">
   <rect x="57.6" y="41.472" width="357.12" height="266.112"/>
  </clipPath>
 </defs>
</svg>
